G04 #@! TF.GenerationSoftware,KiCad,Pcbnew,7.0.8*
G04 #@! TF.CreationDate,2023-12-17T13:49:59+01:00*
G04 #@! TF.ProjectId,ePaper_timetable,65506170-6572-45f7-9469-6d657461626c,rev?*
G04 #@! TF.SameCoordinates,Original*
G04 #@! TF.FileFunction,Soldermask,Top*
G04 #@! TF.FilePolarity,Negative*
%FSLAX46Y46*%
G04 Gerber Fmt 4.6, Leading zero omitted, Abs format (unit mm)*
G04 Created by KiCad (PCBNEW 7.0.8) date 2023-12-17 13:49:59*
%MOMM*%
%LPD*%
G01*
G04 APERTURE LIST*
G04 Aperture macros list*
%AMRoundRect*
0 Rectangle with rounded corners*
0 $1 Rounding radius*
0 $2 $3 $4 $5 $6 $7 $8 $9 X,Y pos of 4 corners*
0 Add a 4 corners polygon primitive as box body*
4,1,4,$2,$3,$4,$5,$6,$7,$8,$9,$2,$3,0*
0 Add four circle primitives for the rounded corners*
1,1,$1+$1,$2,$3*
1,1,$1+$1,$4,$5*
1,1,$1+$1,$6,$7*
1,1,$1+$1,$8,$9*
0 Add four rect primitives between the rounded corners*
20,1,$1+$1,$2,$3,$4,$5,0*
20,1,$1+$1,$4,$5,$6,$7,0*
20,1,$1+$1,$6,$7,$8,$9,0*
20,1,$1+$1,$8,$9,$2,$3,0*%
%AMFreePoly0*
4,1,58,1.881242,0.792533,1.914585,0.788777,1.924216,0.782725,1.935306,0.780194,1.961541,0.759271,1.989950,0.741421,2.341421,0.389950,2.359271,0.361541,2.380194,0.335306,2.382725,0.324216,2.388777,0.314585,2.392533,0.281242,2.400000,0.248529,2.400000,-0.248529,2.392533,-0.281242,2.388777,-0.314585,2.382725,-0.324216,2.380194,-0.335306,2.359271,-0.361541,2.341421,-0.389950,
1.989950,-0.741421,1.961541,-0.759271,1.935306,-0.780194,1.924216,-0.782725,1.914585,-0.788777,1.881242,-0.792533,1.848529,-0.800000,0.000000,-0.800000,-0.248529,-0.800000,-0.281242,-0.792533,-0.314585,-0.788777,-0.324216,-0.782725,-0.335306,-0.780194,-0.361541,-0.759271,-0.389950,-0.741421,-0.741421,-0.389950,-0.759271,-0.361541,-0.780194,-0.335306,-0.782725,-0.324216,-0.788777,-0.314585,
-0.792533,-0.281242,-0.800000,-0.248529,-0.800000,0.248529,-0.792533,0.281242,-0.788777,0.314585,-0.782725,0.324216,-0.780194,0.335306,-0.759271,0.361541,-0.741421,0.389950,-0.389950,0.741421,-0.361541,0.759271,-0.335306,0.780194,-0.324216,0.782725,-0.314585,0.788777,-0.281242,0.792533,-0.248529,0.800000,1.848529,0.800000,1.881242,0.792533,1.881242,0.792533,$1*%
%AMFreePoly1*
4,1,19,0.550000,-0.750000,0.000000,-0.750000,0.000000,-0.744911,-0.071157,-0.744911,-0.207708,-0.704816,-0.327430,-0.627875,-0.420627,-0.520320,-0.479746,-0.390866,-0.500000,-0.250000,-0.500000,0.250000,-0.479746,0.390866,-0.420627,0.520320,-0.327430,0.627875,-0.207708,0.704816,-0.071157,0.744911,0.000000,0.744911,0.000000,0.750000,0.550000,0.750000,0.550000,-0.750000,0.550000,-0.750000,
$1*%
%AMFreePoly2*
4,1,19,0.000000,0.744911,0.071157,0.744911,0.207708,0.704816,0.327430,0.627875,0.420627,0.520320,0.479746,0.390866,0.500000,0.250000,0.500000,-0.250000,0.479746,-0.390866,0.420627,-0.520320,0.327430,-0.627875,0.207708,-0.704816,0.071157,-0.744911,0.000000,-0.744911,0.000000,-0.750000,-0.550000,-0.750000,-0.550000,0.750000,0.000000,0.750000,0.000000,0.744911,0.000000,0.744911,
$1*%
G04 Aperture macros list end*
%ADD10O,1.800000X1.100000*%
%ADD11O,1.450000X1.050000*%
%ADD12FreePoly0,90.000000*%
%ADD13O,1.600000X3.200000*%
%ADD14RoundRect,0.200000X0.600000X-1.400000X0.600000X1.400000X-0.600000X1.400000X-0.600000X-1.400000X0*%
%ADD15R,1.574800X1.574800*%
%ADD16C,1.574800*%
%ADD17RoundRect,0.300000X0.450000X-0.450000X0.450000X0.450000X-0.450000X0.450000X-0.450000X-0.450000X0*%
%ADD18RoundRect,0.250000X-0.337500X-0.475000X0.337500X-0.475000X0.337500X0.475000X-0.337500X0.475000X0*%
%ADD19RoundRect,0.250000X-0.250000X-0.750000X0.250000X-0.750000X0.250000X0.750000X-0.250000X0.750000X0*%
%ADD20RoundRect,0.250000X-0.450000X0.350000X-0.450000X-0.350000X0.450000X-0.350000X0.450000X0.350000X0*%
%ADD21RoundRect,0.250000X0.450000X-0.325000X0.450000X0.325000X-0.450000X0.325000X-0.450000X-0.325000X0*%
%ADD22RoundRect,0.225000X0.375000X-0.225000X0.375000X0.225000X-0.375000X0.225000X-0.375000X-0.225000X0*%
%ADD23RoundRect,0.250000X-0.475000X0.337500X-0.475000X-0.337500X0.475000X-0.337500X0.475000X0.337500X0*%
%ADD24RoundRect,0.250000X0.337500X0.475000X-0.337500X0.475000X-0.337500X-0.475000X0.337500X-0.475000X0*%
%ADD25FreePoly1,0.000000*%
%ADD26R,1.000000X1.500000*%
%ADD27FreePoly2,0.000000*%
%ADD28RoundRect,0.076200X-0.150000X-0.400000X0.150000X-0.400000X0.150000X0.400000X-0.150000X0.400000X0*%
%ADD29RoundRect,0.599500X-0.599500X-0.978500X0.599500X-0.978500X0.599500X0.978500X-0.599500X0.978500X0*%
%ADD30C,6.400000*%
%ADD31RoundRect,0.225000X0.225000X0.375000X-0.225000X0.375000X-0.225000X-0.375000X0.225000X-0.375000X0*%
%ADD32RoundRect,0.250000X0.450000X-0.350000X0.450000X0.350000X-0.450000X0.350000X-0.450000X-0.350000X0*%
%ADD33R,5.700000X2.410000*%
%ADD34RoundRect,0.150000X0.150000X-0.587500X0.150000X0.587500X-0.150000X0.587500X-0.150000X-0.587500X0*%
%ADD35FreePoly1,180.000000*%
%ADD36FreePoly2,180.000000*%
%ADD37R,1.000000X1.250000*%
%ADD38RoundRect,0.250000X-0.350000X-0.450000X0.350000X-0.450000X0.350000X0.450000X-0.350000X0.450000X0*%
%ADD39RoundRect,0.250000X0.475000X-0.337500X0.475000X0.337500X-0.475000X0.337500X-0.475000X-0.337500X0*%
%ADD40R,1.700000X1.700000*%
%ADD41O,1.700000X1.700000*%
%ADD42RoundRect,0.250000X0.625000X-0.400000X0.625000X0.400000X-0.625000X0.400000X-0.625000X-0.400000X0*%
%ADD43RoundRect,0.150000X-0.150000X-0.625000X0.150000X-0.625000X0.150000X0.625000X-0.150000X0.625000X0*%
%ADD44RoundRect,0.250000X-0.350000X-0.650000X0.350000X-0.650000X0.350000X0.650000X-0.350000X0.650000X0*%
%ADD45C,0.650000*%
%ADD46RoundRect,0.150000X-0.150000X-0.425000X0.150000X-0.425000X0.150000X0.425000X-0.150000X0.425000X0*%
%ADD47RoundRect,0.075000X-0.075000X-0.500000X0.075000X-0.500000X0.075000X0.500000X-0.075000X0.500000X0*%
%ADD48O,1.000000X2.100000*%
%ADD49O,1.000000X1.800000*%
%ADD50RoundRect,0.225000X-0.225000X-0.375000X0.225000X-0.375000X0.225000X0.375000X-0.225000X0.375000X0*%
%ADD51RoundRect,0.250000X1.450000X-0.400000X1.450000X0.400000X-1.450000X0.400000X-1.450000X-0.400000X0*%
%ADD52RoundRect,0.150000X0.512500X0.150000X-0.512500X0.150000X-0.512500X-0.150000X0.512500X-0.150000X0*%
%ADD53R,0.650000X1.560000*%
%ADD54RoundRect,0.250000X0.350000X0.450000X-0.350000X0.450000X-0.350000X-0.450000X0.350000X-0.450000X0*%
%ADD55RoundRect,0.100000X0.637500X0.100000X-0.637500X0.100000X-0.637500X-0.100000X0.637500X-0.100000X0*%
%ADD56RoundRect,0.150000X0.150000X-0.650000X0.150000X0.650000X-0.150000X0.650000X-0.150000X-0.650000X0*%
%ADD57R,3.200000X2.400000*%
%ADD58RoundRect,0.250000X-1.550000X0.650000X-1.550000X-0.650000X1.550000X-0.650000X1.550000X0.650000X0*%
%ADD59O,3.600000X1.800000*%
%ADD60C,2.000000*%
G04 APERTURE END LIST*
G36*
X160441537Y-139860000D02*
G01*
X159341537Y-139860000D01*
X159341537Y-140710000D01*
X157841537Y-140710000D01*
X157841537Y-137460000D01*
X160441537Y-137460000D01*
X160441537Y-139860000D01*
G37*
D10*
X111890000Y-107449000D03*
D11*
X114920000Y-107149000D03*
X114920000Y-102299000D03*
D10*
X111890000Y-101999000D03*
D12*
X111760000Y-115214000D03*
D13*
X114300000Y-114414000D03*
D14*
X116840000Y-114414000D03*
D13*
X119380000Y-114414000D03*
X121920000Y-114414000D03*
X124460000Y-114414000D03*
X127000000Y-114414000D03*
D14*
X129540000Y-114414000D03*
D13*
X132080000Y-114414000D03*
X134620000Y-114414000D03*
X137160000Y-114414000D03*
X139700000Y-114414000D03*
D14*
X142240000Y-114414000D03*
D13*
X144780000Y-114414000D03*
X147320000Y-114414000D03*
X149860000Y-114414000D03*
X152400000Y-114414000D03*
D14*
X154940000Y-114414000D03*
D13*
X157480000Y-114414000D03*
X160020000Y-114414000D03*
X160020000Y-95034000D03*
X157480000Y-95034000D03*
D14*
X154940000Y-95034000D03*
D13*
X152400000Y-95034000D03*
X149860000Y-95034000D03*
X147320000Y-95034000D03*
X144780000Y-95034000D03*
D14*
X142240000Y-95034000D03*
D13*
X139700000Y-95034000D03*
X137160000Y-95034000D03*
X134620000Y-95034000D03*
X132080000Y-95034000D03*
D14*
X129540000Y-95034000D03*
D13*
X127000000Y-95034000D03*
X124460000Y-95034000D03*
X121920000Y-95034000D03*
X119380000Y-95034000D03*
D14*
X116840000Y-95034000D03*
D13*
X114300000Y-95034000D03*
X111760000Y-95034000D03*
D15*
X141590000Y-104139800D03*
D16*
X141590000Y-101599800D03*
X141590000Y-99059800D03*
D17*
X114890000Y-104724000D03*
X111590000Y-103724000D03*
X111590000Y-105724000D03*
X119890000Y-107224000D03*
X122390000Y-107224000D03*
X124890000Y-107224000D03*
D18*
X139871037Y-132715000D03*
X141946037Y-132715000D03*
D19*
X160020000Y-118745000D03*
D20*
X82691750Y-86448000D03*
X82691750Y-88448000D03*
X140030200Y-88433400D03*
X140030200Y-90433400D03*
D21*
X85231750Y-84679000D03*
X85231750Y-82629000D03*
D22*
X131318000Y-136778000D03*
X131318000Y-133478000D03*
D23*
X144083537Y-130153500D03*
X144083537Y-132228500D03*
D24*
X130218000Y-131191000D03*
X128143000Y-131191000D03*
D25*
X154940000Y-128524000D03*
D26*
X156240000Y-128524000D03*
D27*
X157540000Y-128524000D03*
D28*
X156703537Y-137160000D03*
X156203537Y-137160000D03*
X155703537Y-137160000D03*
X155203537Y-137160000D03*
X154703537Y-137160000D03*
X154203537Y-137160000D03*
X153703537Y-137160000D03*
X153203537Y-137160000D03*
X152703537Y-137160000D03*
X152203537Y-137160000D03*
X151703537Y-137160000D03*
X151203537Y-137160000D03*
X150703537Y-137160000D03*
X150203537Y-137160000D03*
X149703537Y-137160000D03*
X149203537Y-137160000D03*
X148703537Y-137160000D03*
X148203537Y-137160000D03*
X147703537Y-137160000D03*
X147203537Y-137160000D03*
X146703537Y-137160000D03*
X146203537Y-137160000D03*
X145703537Y-137160000D03*
X145203537Y-137160000D03*
D29*
X142742537Y-139138000D03*
X159069537Y-139192000D03*
D30*
X158750000Y-83185000D03*
D20*
X97586800Y-149571200D03*
X97586800Y-151571200D03*
D21*
X82691750Y-84679000D03*
X82691750Y-82629000D03*
D18*
X85718250Y-99910000D03*
X87793250Y-99910000D03*
D31*
X135254000Y-128524000D03*
X131954000Y-128524000D03*
D19*
X107543600Y-112064800D03*
D30*
X71120000Y-83185000D03*
D32*
X119380000Y-135747000D03*
X119380000Y-133747000D03*
D33*
X122936000Y-125411000D03*
X122936000Y-130621000D03*
D34*
X121986000Y-135430500D03*
X123886000Y-135430500D03*
X122936000Y-133555500D03*
D35*
X125125000Y-138829000D03*
D26*
X123825000Y-138829000D03*
D36*
X122525000Y-138829000D03*
D37*
X132435600Y-89614200D03*
X132435600Y-81864200D03*
D20*
X100137000Y-89471000D03*
X100137000Y-91471000D03*
D38*
X110506000Y-119380000D03*
X112506000Y-119380000D03*
D19*
X134620000Y-118745000D03*
D23*
X152465537Y-131550500D03*
X152465537Y-133625500D03*
D18*
X119972000Y-121920000D03*
X122047000Y-121920000D03*
D39*
X139892537Y-138705500D03*
X139892537Y-136630500D03*
D19*
X157480000Y-118745000D03*
D20*
X112395000Y-127921000D03*
X112395000Y-129921000D03*
D34*
X123799600Y-90220800D03*
X125699600Y-90220800D03*
X124749600Y-88345800D03*
D20*
X152044400Y-88601800D03*
X152044400Y-90601800D03*
D30*
X134620000Y-142240000D03*
D40*
X106045000Y-120015000D03*
D41*
X103505000Y-120015000D03*
X100965000Y-120015000D03*
D38*
X106569000Y-115697000D03*
X108569000Y-115697000D03*
D42*
X80518000Y-108458000D03*
X80518000Y-105358000D03*
D38*
X124730000Y-83616800D03*
X126730000Y-83616800D03*
D19*
X132080000Y-118745000D03*
D40*
X143525000Y-88646000D03*
D41*
X146065000Y-88646000D03*
X148605000Y-88646000D03*
D23*
X150179537Y-131550500D03*
X150179537Y-133625500D03*
D20*
X85231750Y-86464000D03*
X85231750Y-88464000D03*
X102677000Y-96329000D03*
X102677000Y-98329000D03*
D43*
X145050000Y-83875000D03*
X146050000Y-83875000D03*
X147050000Y-83875000D03*
D44*
X143750000Y-81350000D03*
X148350000Y-81350000D03*
D37*
X106680000Y-89718800D03*
X106680000Y-97468800D03*
D18*
X94781500Y-89455000D03*
X96856500Y-89455000D03*
X139617037Y-134747000D03*
X141692037Y-134747000D03*
D23*
X148147537Y-131423500D03*
X148147537Y-133498500D03*
D40*
X93960000Y-85115000D03*
D41*
X91420000Y-85115000D03*
D24*
X126818300Y-85699600D03*
X124743300Y-85699600D03*
D23*
X146115537Y-130153500D03*
X146115537Y-132228500D03*
D39*
X89342000Y-92270500D03*
X89342000Y-90195500D03*
D45*
X79025000Y-155070000D03*
X84805000Y-155070000D03*
D46*
X78715000Y-153995000D03*
X79515000Y-153995000D03*
D47*
X80665000Y-153995000D03*
X81665000Y-153995000D03*
X82165000Y-153995000D03*
X83165000Y-153995000D03*
D46*
X84315000Y-153995000D03*
X85115000Y-153995000D03*
X85115000Y-153995000D03*
X84315000Y-153995000D03*
D47*
X83665000Y-153995000D03*
X82665000Y-153995000D03*
X81165000Y-153995000D03*
X80165000Y-153995000D03*
D46*
X79515000Y-153995000D03*
X78715000Y-153995000D03*
D48*
X77595000Y-154570000D03*
D49*
X77595000Y-158750000D03*
D48*
X86235000Y-154570000D03*
D49*
X86235000Y-158750000D03*
D38*
X119345200Y-85674200D03*
X121345200Y-85674200D03*
D50*
X131954000Y-131191000D03*
X135254000Y-131191000D03*
D20*
X125095000Y-141512000D03*
X125095000Y-143512000D03*
D38*
X84979000Y-150495000D03*
X86979000Y-150495000D03*
D51*
X76962000Y-150815000D03*
X76962000Y-146365000D03*
D52*
X82829500Y-149162000D03*
X82829500Y-148212000D03*
X82829500Y-147262000D03*
X80554500Y-147262000D03*
X80554500Y-148212000D03*
X80554500Y-149162000D03*
D24*
X159533500Y-132842000D03*
X157458500Y-132842000D03*
D30*
X71120000Y-156210000D03*
D53*
X95885000Y-94615000D03*
X96835000Y-94615000D03*
X97785000Y-94615000D03*
X97785000Y-91915000D03*
X96835000Y-91915000D03*
X95885000Y-91915000D03*
D54*
X112379000Y-125476000D03*
X110379000Y-125476000D03*
D55*
X99697500Y-98812000D03*
X99697500Y-98162000D03*
X99697500Y-97512000D03*
X99697500Y-96862000D03*
X93972500Y-96862000D03*
X93972500Y-97512000D03*
X93972500Y-98162000D03*
X93972500Y-98812000D03*
D42*
X76708000Y-142774000D03*
X76708000Y-139674000D03*
D20*
X73660000Y-148860000D03*
X73660000Y-150860000D03*
D40*
X115316000Y-130326000D03*
D41*
X115316000Y-127786000D03*
X115316000Y-125246000D03*
X115316000Y-122706000D03*
D56*
X82526750Y-96810000D03*
X83796750Y-96810000D03*
X85066750Y-96810000D03*
X86336750Y-96810000D03*
X86336750Y-91510000D03*
X85066750Y-91510000D03*
X83796750Y-91510000D03*
X82526750Y-91510000D03*
D57*
X84431750Y-94160000D03*
D20*
X117551200Y-149418800D03*
X117551200Y-151418800D03*
D32*
X122682000Y-143512000D03*
X122682000Y-141512000D03*
D54*
X83691750Y-99910000D03*
X81691750Y-99910000D03*
D58*
X75438000Y-111688000D03*
D59*
X75438000Y-115498000D03*
D20*
X127000000Y-149495000D03*
X127000000Y-151495000D03*
D34*
X111949000Y-89992000D03*
X113849000Y-89992000D03*
X112899000Y-88117000D03*
D24*
X160615037Y-135128000D03*
X158540037Y-135128000D03*
D60*
X110272000Y-149150000D03*
X110272000Y-155650000D03*
X114772000Y-149150000D03*
X114772000Y-155650000D03*
X130338000Y-149150000D03*
X130338000Y-155650000D03*
X134838000Y-149150000D03*
X134838000Y-155650000D03*
X90206000Y-149150000D03*
X90206000Y-155650000D03*
X94706000Y-149150000D03*
X94706000Y-155650000D03*
M02*
