G04 #@! TF.GenerationSoftware,KiCad,Pcbnew,7.0.8*
G04 #@! TF.CreationDate,2023-12-17T13:49:59+01:00*
G04 #@! TF.ProjectId,ePaper_timetable,65506170-6572-45f7-9469-6d657461626c,rev?*
G04 #@! TF.SameCoordinates,Original*
G04 #@! TF.FileFunction,Copper,L2,Bot*
G04 #@! TF.FilePolarity,Positive*
%FSLAX46Y46*%
G04 Gerber Fmt 4.6, Leading zero omitted, Abs format (unit mm)*
G04 Created by KiCad (PCBNEW 7.0.8) date 2023-12-17 13:49:59*
%MOMM*%
%LPD*%
G01*
G04 APERTURE LIST*
G04 Aperture macros list*
%AMRoundRect*
0 Rectangle with rounded corners*
0 $1 Rounding radius*
0 $2 $3 $4 $5 $6 $7 $8 $9 X,Y pos of 4 corners*
0 Add a 4 corners polygon primitive as box body*
4,1,4,$2,$3,$4,$5,$6,$7,$8,$9,$2,$3,0*
0 Add four circle primitives for the rounded corners*
1,1,$1+$1,$2,$3*
1,1,$1+$1,$4,$5*
1,1,$1+$1,$6,$7*
1,1,$1+$1,$8,$9*
0 Add four rect primitives between the rounded corners*
20,1,$1+$1,$2,$3,$4,$5,0*
20,1,$1+$1,$4,$5,$6,$7,0*
20,1,$1+$1,$6,$7,$8,$9,0*
20,1,$1+$1,$8,$9,$2,$3,0*%
G04 Aperture macros list end*
G04 #@! TA.AperFunction,ComponentPad*
%ADD10R,1.574800X1.574800*%
G04 #@! TD*
G04 #@! TA.AperFunction,ComponentPad*
%ADD11C,1.574800*%
G04 #@! TD*
G04 #@! TA.AperFunction,TestPad*
%ADD12RoundRect,0.300000X0.450000X-0.450000X0.450000X0.450000X-0.450000X0.450000X-0.450000X-0.450000X0*%
G04 #@! TD*
G04 #@! TA.AperFunction,ComponentPad*
%ADD13C,6.400000*%
G04 #@! TD*
G04 #@! TA.AperFunction,ComponentPad*
%ADD14R,1.700000X1.700000*%
G04 #@! TD*
G04 #@! TA.AperFunction,ComponentPad*
%ADD15O,1.700000X1.700000*%
G04 #@! TD*
G04 #@! TA.AperFunction,ComponentPad*
%ADD16O,1.000000X2.100000*%
G04 #@! TD*
G04 #@! TA.AperFunction,ComponentPad*
%ADD17O,1.000000X1.800000*%
G04 #@! TD*
G04 #@! TA.AperFunction,ComponentPad*
%ADD18RoundRect,0.250000X-1.550000X0.650000X-1.550000X-0.650000X1.550000X-0.650000X1.550000X0.650000X0*%
G04 #@! TD*
G04 #@! TA.AperFunction,ComponentPad*
%ADD19O,3.600000X1.800000*%
G04 #@! TD*
G04 #@! TA.AperFunction,ComponentPad*
%ADD20C,2.000000*%
G04 #@! TD*
G04 #@! TA.AperFunction,ViaPad*
%ADD21C,0.800000*%
G04 #@! TD*
G04 #@! TA.AperFunction,ViaPad*
%ADD22C,0.600000*%
G04 #@! TD*
G04 #@! TA.AperFunction,ViaPad*
%ADD23C,1.000000*%
G04 #@! TD*
G04 #@! TA.AperFunction,Conductor*
%ADD24C,0.300000*%
G04 #@! TD*
G04 #@! TA.AperFunction,Conductor*
%ADD25C,0.250000*%
G04 #@! TD*
G04 #@! TA.AperFunction,Conductor*
%ADD26C,1.000000*%
G04 #@! TD*
G04 #@! TA.AperFunction,Conductor*
%ADD27C,0.600000*%
G04 #@! TD*
G04 APERTURE END LIST*
D10*
X141590000Y-104139800D03*
D11*
X141590000Y-101599800D03*
X141590000Y-99059800D03*
D12*
X114890000Y-104724000D03*
X111590000Y-103724000D03*
X111590000Y-105724000D03*
X124890000Y-107224000D03*
D13*
X158750000Y-83185000D03*
X71120000Y-83185000D03*
X134620000Y-142240000D03*
D14*
X106045000Y-120015000D03*
D15*
X103505000Y-120015000D03*
X100965000Y-120015000D03*
D14*
X143525000Y-88646000D03*
D15*
X146065000Y-88646000D03*
X148605000Y-88646000D03*
D14*
X93960000Y-85115000D03*
D15*
X91420000Y-85115000D03*
D16*
X77595000Y-154570000D03*
D17*
X77595000Y-158750000D03*
D16*
X86235000Y-154570000D03*
D17*
X86235000Y-158750000D03*
D13*
X71120000Y-156210000D03*
D14*
X115316000Y-130326000D03*
D15*
X115316000Y-127786000D03*
X115316000Y-125246000D03*
X115316000Y-122706000D03*
D18*
X75438000Y-111688000D03*
D19*
X75438000Y-115498000D03*
D20*
X110272000Y-149150000D03*
X110272000Y-155650000D03*
X114772000Y-149150000D03*
X114772000Y-155650000D03*
X130338000Y-149150000D03*
X130338000Y-155650000D03*
X134838000Y-149150000D03*
X134838000Y-155650000D03*
X90206000Y-149150000D03*
X90206000Y-155650000D03*
X94706000Y-149150000D03*
X94706000Y-155650000D03*
D21*
X87833200Y-156591000D03*
X85090000Y-133350000D03*
X75869800Y-153136600D03*
X87630000Y-146050000D03*
X142646400Y-128447800D03*
X129844800Y-117729000D03*
X153670000Y-120650000D03*
X85013800Y-98399600D03*
X147447000Y-110490000D03*
X161772600Y-137261600D03*
X89535000Y-106045000D03*
X102870000Y-144780000D03*
X138404600Y-130175000D03*
X89535000Y-110490000D03*
X129184400Y-141097000D03*
X146380200Y-140284200D03*
X158750000Y-126695200D03*
X139827000Y-109220000D03*
X128143000Y-111709200D03*
X76835000Y-121285000D03*
X154381200Y-92100400D03*
X79375000Y-135255000D03*
X104013000Y-104140000D03*
X84455000Y-141605000D03*
X145135600Y-128524000D03*
X78486000Y-110134400D03*
X84632800Y-147269200D03*
X132384800Y-152958800D03*
X79959200Y-98501200D03*
X134213600Y-81737200D03*
X154559000Y-125349000D03*
X90601800Y-95910400D03*
X130911600Y-111760000D03*
X142240000Y-106680000D03*
X145491200Y-139141200D03*
X138709400Y-121005600D03*
X159588200Y-122580400D03*
X72059800Y-152120600D03*
X72593200Y-113588800D03*
X124460000Y-101600000D03*
X104140000Y-153492200D03*
X71805800Y-149606000D03*
X124460000Y-104267000D03*
X126085600Y-145491200D03*
X116967000Y-105918000D03*
X100025200Y-138328400D03*
X123875800Y-145440400D03*
X79375000Y-126365000D03*
X150368000Y-82169000D03*
X97688400Y-83108800D03*
X104089200Y-122428000D03*
X140614400Y-123063000D03*
X141732000Y-81280000D03*
X139649200Y-101625400D03*
X92456000Y-152400000D03*
X102997000Y-109220000D03*
X116763800Y-103124000D03*
X117500400Y-123850400D03*
X128422400Y-97840800D03*
X87630000Y-118745000D03*
X106553000Y-106680000D03*
X73660000Y-130810000D03*
X73660000Y-126365000D03*
X133477000Y-124460000D03*
X89535000Y-122555000D03*
X97790000Y-104140000D03*
X73660000Y-135255000D03*
X157353000Y-130810000D03*
X148717000Y-107950000D03*
X89535000Y-114935000D03*
X101904800Y-93040200D03*
X143484600Y-92100400D03*
X95250000Y-133350000D03*
X102362000Y-122351800D03*
X117322600Y-120853200D03*
X118160800Y-131089400D03*
X81915000Y-130175000D03*
X116332000Y-144780000D03*
X72567800Y-109677200D03*
X127203200Y-135712200D03*
X117805200Y-92252800D03*
X80010000Y-118745000D03*
X116763800Y-117170200D03*
X88468200Y-83185000D03*
X95885000Y-139700000D03*
X161747200Y-133121400D03*
X120726200Y-142087600D03*
X89027000Y-129540000D03*
X105918000Y-147320000D03*
X100203000Y-106680000D03*
X83185000Y-122555000D03*
X156235400Y-92202000D03*
X141097000Y-92125800D03*
X160426400Y-142646400D03*
X101625400Y-99999800D03*
X129540000Y-144780000D03*
X118008400Y-97688400D03*
X83820000Y-110490000D03*
X139217400Y-143713200D03*
X113157000Y-140335000D03*
X106680000Y-151130000D03*
X103657400Y-100101400D03*
X147193000Y-91236800D03*
X133731000Y-127381000D03*
X129540000Y-119380000D03*
X127431800Y-120319800D03*
X126492000Y-133121400D03*
X79781400Y-101676200D03*
X110490000Y-137160000D03*
X113030000Y-144780000D03*
X83185000Y-115570000D03*
X113766600Y-121132600D03*
X143738600Y-101574600D03*
X128244600Y-91694000D03*
X119380000Y-101600000D03*
X88188800Y-93827600D03*
X109474000Y-143637000D03*
X115189000Y-111836200D03*
X130860800Y-97840800D03*
X145084800Y-86106000D03*
X120954800Y-144729200D03*
X92710000Y-125857000D03*
X105410000Y-142240000D03*
X112420400Y-152323800D03*
X157124400Y-142290800D03*
X107594400Y-87604600D03*
X94615000Y-146050000D03*
X89204800Y-94640400D03*
X87706200Y-152527000D03*
X136448800Y-123063000D03*
X148717000Y-105410000D03*
X156591000Y-122224800D03*
X118465600Y-111988600D03*
X117983000Y-138430000D03*
X147193000Y-86106000D03*
X116027200Y-97713800D03*
X75819000Y-155930600D03*
X145211800Y-91363800D03*
X96647000Y-97282000D03*
X141859000Y-143637000D03*
X136575800Y-133299200D03*
X153670000Y-123190000D03*
X85725000Y-126365000D03*
X139573000Y-127254000D03*
X118922800Y-89458800D03*
X153543000Y-129667000D03*
X130937000Y-91948000D03*
X116154200Y-92151200D03*
X95885000Y-122555000D03*
X130505200Y-81788000D03*
X119507000Y-104140000D03*
X92760800Y-89382600D03*
X161340800Y-130987800D03*
X122834400Y-154000200D03*
X100838000Y-95351600D03*
X101600000Y-133350000D03*
X92710000Y-119380000D03*
X89763600Y-98044000D03*
X155600400Y-118186200D03*
X83820000Y-106045000D03*
X161290000Y-116840000D03*
X145734537Y-134364087D03*
X140462000Y-129032000D03*
X136906000Y-131572000D03*
X143194537Y-134747000D03*
D22*
X122631200Y-136906000D03*
X156021537Y-139446000D03*
X155259537Y-138430000D03*
X125476000Y-134366000D03*
D21*
X152400000Y-118211600D03*
D22*
X153365200Y-138938000D03*
D21*
X150495000Y-119227600D03*
D22*
X152552400Y-139928600D03*
D21*
X139471400Y-118897400D03*
D22*
X151104600Y-140512800D03*
D21*
X141503400Y-118287800D03*
D22*
X150850600Y-139522200D03*
D21*
X144780000Y-118414800D03*
D22*
X149656800Y-139217400D03*
X149689569Y-138194031D03*
D21*
X147320000Y-118516400D03*
X145288000Y-105918000D03*
X146558000Y-102108000D03*
X147320000Y-99314000D03*
X86868000Y-89027000D03*
X117856000Y-118110000D03*
X81229200Y-89916000D03*
X119126000Y-118872000D03*
X124333000Y-117348000D03*
X123571000Y-121285000D03*
D23*
X121920000Y-99060000D03*
X121920000Y-118872000D03*
X87310000Y-102155000D03*
X86156800Y-102184200D03*
X81268750Y-93052000D03*
X81254600Y-94132400D03*
D22*
X138582400Y-91719400D03*
X148798300Y-91851500D03*
D23*
X102423000Y-91487000D03*
D21*
X84010500Y-152590500D03*
X79375000Y-152527000D03*
D24*
X140462000Y-129032000D02*
X145734537Y-134304537D01*
X145734537Y-134364087D02*
X145734537Y-134304537D01*
X143194537Y-134747000D02*
X140081000Y-134747000D01*
X140081000Y-134747000D02*
X136906000Y-131572000D01*
D25*
X140716000Y-142240000D02*
X153735537Y-142240000D01*
X156021537Y-139954000D02*
X156021537Y-139446000D01*
X122631200Y-136906000D02*
X135382000Y-136906000D01*
X153735537Y-142240000D02*
X156021537Y-139954000D01*
X135382000Y-136906000D02*
X140716000Y-142240000D01*
X134620000Y-134366000D02*
X125476000Y-134366000D01*
X141732000Y-141478000D02*
X134620000Y-134366000D01*
X155259537Y-139446000D02*
X153227537Y-141478000D01*
X153227537Y-141478000D02*
X141732000Y-141478000D01*
X155259537Y-138430000D02*
X155259537Y-139446000D01*
X152527000Y-118338600D02*
X152527000Y-127254000D01*
D24*
X153365200Y-138938000D02*
X153365200Y-133654800D01*
X152527000Y-132816600D02*
X152527000Y-127254000D01*
D25*
X152400000Y-118211600D02*
X152527000Y-118338600D01*
D24*
X153365200Y-133654800D02*
X152527000Y-132816600D01*
D25*
X152552400Y-136804400D02*
X152552400Y-139928600D01*
X150495000Y-119227600D02*
X150495000Y-134747000D01*
X150495000Y-134747000D02*
X152552400Y-136804400D01*
X147066000Y-139192000D02*
X148386800Y-140512800D01*
X148386800Y-140512800D02*
X151104600Y-140512800D01*
X139471400Y-118897400D02*
X147066000Y-126492000D01*
X147066000Y-126492000D02*
X147066000Y-139192000D01*
X141732000Y-118287800D02*
X147955000Y-124510800D01*
X150418800Y-139954000D02*
X150850600Y-139522200D01*
X141503400Y-118287800D02*
X141732000Y-118287800D01*
X149098000Y-139954000D02*
X150418800Y-139954000D01*
X147955000Y-138811000D02*
X149098000Y-139954000D01*
X147955000Y-124510800D02*
X147955000Y-138811000D01*
X149402800Y-139217400D02*
X149656800Y-139217400D01*
X148655537Y-138470137D02*
X149402800Y-139217400D01*
X144780000Y-118414800D02*
X148655537Y-122290337D01*
X148655537Y-122290337D02*
X148655537Y-138470137D01*
X147320000Y-118516400D02*
X149417537Y-120613937D01*
X149417537Y-120613937D02*
X149417537Y-137921999D01*
X149417537Y-137921999D02*
X149689569Y-138194031D01*
D24*
X102056000Y-149150000D02*
X94706000Y-149150000D01*
X145288000Y-105918000D02*
X102056000Y-149150000D01*
X146558000Y-106680000D02*
X114772000Y-138466000D01*
X146558000Y-102108000D02*
X146558000Y-106680000D01*
X114772000Y-138466000D02*
X114772000Y-149150000D01*
D25*
X120904000Y-134874000D02*
X120904000Y-138480800D01*
X120904000Y-138480800D02*
X129082800Y-146659600D01*
X134112000Y-146659600D02*
X134838000Y-147385600D01*
D24*
X147320000Y-108458000D02*
X147320000Y-99314000D01*
D25*
X129082800Y-146659600D02*
X134112000Y-146659600D01*
X134838000Y-147385600D02*
X134838000Y-149150000D01*
X147320000Y-108458000D02*
X120904000Y-134874000D01*
D24*
X115951000Y-118110000D02*
X117856000Y-118110000D01*
X86868000Y-89027000D02*
X115951000Y-118110000D01*
X81737200Y-90424000D02*
X86614000Y-90424000D01*
X86614000Y-90424000D02*
X115316000Y-119126000D01*
X81229200Y-89916000D02*
X81737200Y-90424000D01*
X118872000Y-119126000D02*
X119126000Y-118872000D01*
X115316000Y-119126000D02*
X118872000Y-119126000D01*
X115316000Y-127786000D02*
X119229000Y-127786000D01*
X124333000Y-122682000D02*
X124333000Y-117348000D01*
X119229000Y-127786000D02*
X124333000Y-122682000D01*
X115340000Y-125222000D02*
X115316000Y-125246000D01*
X123571000Y-121285000D02*
X123444000Y-121285000D01*
X119507000Y-125222000D02*
X115340000Y-125222000D01*
X123444000Y-121285000D02*
X119507000Y-125222000D01*
D26*
X121920000Y-99060000D02*
X121920000Y-118872000D01*
X81268750Y-96875750D02*
X81268750Y-95097600D01*
X86156800Y-101763800D02*
X86156800Y-102184200D01*
X85579600Y-101186600D02*
X81268750Y-96875750D01*
X86548000Y-102155000D02*
X85579600Y-101186600D01*
X81268750Y-95097600D02*
X81268750Y-93052000D01*
X85579600Y-101186600D02*
X86156800Y-101763800D01*
X81268750Y-94146550D02*
X81254600Y-94132400D01*
X87310000Y-102155000D02*
X86548000Y-102155000D01*
X81268750Y-95097600D02*
X81268750Y-94146550D01*
D25*
X138582400Y-102235000D02*
X140487200Y-104139800D01*
X138582400Y-91719400D02*
X138582400Y-102235000D01*
X140487200Y-104139800D02*
X141590000Y-104139800D01*
X148798300Y-91851500D02*
X141590000Y-99059800D01*
D26*
X102423000Y-91487000D02*
X96567000Y-91487000D01*
X91420000Y-86340000D02*
X91420000Y-85115000D01*
X96567000Y-91487000D02*
X91420000Y-86340000D01*
D27*
X83947000Y-152527000D02*
X84010500Y-152590500D01*
X79375000Y-152527000D02*
X83947000Y-152527000D01*
G04 #@! TA.AperFunction,Conductor*
G36*
X160529617Y-79575606D02*
G01*
X160763820Y-79590956D01*
X160770241Y-79591802D01*
X160998843Y-79637274D01*
X161005103Y-79638951D01*
X161225807Y-79713870D01*
X161231789Y-79716347D01*
X161337668Y-79768560D01*
X161440837Y-79819438D01*
X161446451Y-79822679D01*
X161640248Y-79952170D01*
X161645387Y-79956113D01*
X161726968Y-80027658D01*
X161820624Y-80109792D01*
X161825207Y-80114375D01*
X161978883Y-80289608D01*
X161982829Y-80294751D01*
X162112320Y-80488548D01*
X162115561Y-80494162D01*
X162218649Y-80703203D01*
X162221129Y-80709192D01*
X162296048Y-80929896D01*
X162297725Y-80936156D01*
X162343197Y-81164758D01*
X162344043Y-81171184D01*
X162359394Y-81405381D01*
X162359500Y-81408620D01*
X162359500Y-97056000D01*
X162340593Y-97114191D01*
X162291093Y-97150155D01*
X162260500Y-97155000D01*
X152781000Y-97155000D01*
X152781000Y-112268000D01*
X162260500Y-112268000D01*
X162318691Y-112286907D01*
X162354655Y-112336407D01*
X162359500Y-112367000D01*
X162359500Y-142746379D01*
X162359394Y-142749618D01*
X162344043Y-142983815D01*
X162343197Y-142990241D01*
X162297725Y-143218843D01*
X162296048Y-143225103D01*
X162221129Y-143445807D01*
X162218649Y-143451796D01*
X162115561Y-143660837D01*
X162112320Y-143666451D01*
X161982829Y-143860248D01*
X161978883Y-143865391D01*
X161825207Y-144040624D01*
X161820624Y-144045207D01*
X161645391Y-144198883D01*
X161640248Y-144202829D01*
X161446451Y-144332320D01*
X161440837Y-144335561D01*
X161231796Y-144438649D01*
X161225807Y-144441129D01*
X161005103Y-144516048D01*
X160998843Y-144517725D01*
X160770241Y-144563197D01*
X160763815Y-144564043D01*
X160547246Y-144578238D01*
X160529616Y-144579394D01*
X160526379Y-144579500D01*
X141263882Y-144579500D01*
X141224000Y-144579500D01*
X141088959Y-144579500D01*
X141088954Y-144579500D01*
X141088947Y-144579501D01*
X140820855Y-144612052D01*
X140820840Y-144612054D01*
X140558615Y-144676687D01*
X140306079Y-144772462D01*
X140066927Y-144897978D01*
X140066926Y-144897979D01*
X139844672Y-145051389D01*
X139844653Y-145051404D01*
X139642503Y-145230493D01*
X139642493Y-145230503D01*
X139463404Y-145432653D01*
X139463389Y-145432672D01*
X139309979Y-145654926D01*
X139309978Y-145654927D01*
X139184462Y-145894079D01*
X139088687Y-146146615D01*
X139024054Y-146408840D01*
X139024052Y-146408855D01*
X138991501Y-146676947D01*
X138991500Y-146676964D01*
X138991500Y-157986379D01*
X138991394Y-157989618D01*
X138976043Y-158223815D01*
X138975197Y-158230241D01*
X138929725Y-158458843D01*
X138928048Y-158465103D01*
X138853129Y-158685807D01*
X138850649Y-158691796D01*
X138747561Y-158900837D01*
X138744320Y-158906451D01*
X138614829Y-159100248D01*
X138610883Y-159105391D01*
X138457207Y-159280624D01*
X138452624Y-159285207D01*
X138277391Y-159438883D01*
X138272248Y-159442829D01*
X138078451Y-159572320D01*
X138072837Y-159575561D01*
X137863796Y-159678649D01*
X137857807Y-159681129D01*
X137637103Y-159756048D01*
X137630843Y-159757725D01*
X137402241Y-159803197D01*
X137395815Y-159804043D01*
X137187920Y-159817670D01*
X137161616Y-159819394D01*
X137158379Y-159819500D01*
X87176918Y-159819500D01*
X87118727Y-159800593D01*
X87082763Y-159751093D01*
X87082763Y-159689907D01*
X87095663Y-159663944D01*
X87113851Y-159637812D01*
X87113857Y-159637801D01*
X87194060Y-159450905D01*
X87194061Y-159450902D01*
X87234999Y-159251696D01*
X87235000Y-159251689D01*
X87235000Y-159000001D01*
X87234999Y-159000000D01*
X86535000Y-159000000D01*
X86535000Y-158500000D01*
X87234999Y-158500000D01*
X87235000Y-158499999D01*
X87235000Y-158299286D01*
X87219581Y-158147664D01*
X87219580Y-158147662D01*
X87158696Y-157953608D01*
X87158695Y-157953607D01*
X87060002Y-157775795D01*
X87059991Y-157775780D01*
X86927525Y-157621474D01*
X86927513Y-157621463D01*
X86766693Y-157496980D01*
X86766691Y-157496979D01*
X86584097Y-157407413D01*
X86485000Y-157381754D01*
X86485000Y-158183889D01*
X86460543Y-158144390D01*
X86371038Y-158076799D01*
X86263160Y-158046105D01*
X86151479Y-158056454D01*
X86051078Y-158106448D01*
X85985000Y-158178930D01*
X85985000Y-157376633D01*
X85984999Y-157376632D01*
X85983059Y-157376930D01*
X85983058Y-157376930D01*
X85792333Y-157447566D01*
X85619735Y-157555147D01*
X85619729Y-157555152D01*
X85472330Y-157695266D01*
X85356148Y-157862187D01*
X85356142Y-157862198D01*
X85275939Y-158049094D01*
X85275938Y-158049097D01*
X85235000Y-158248303D01*
X85235000Y-158499999D01*
X85235001Y-158500000D01*
X85935000Y-158500000D01*
X85935000Y-159000000D01*
X85235001Y-159000000D01*
X85235000Y-159000001D01*
X85235000Y-159200713D01*
X85250418Y-159352335D01*
X85250419Y-159352337D01*
X85311303Y-159546391D01*
X85311304Y-159546392D01*
X85381275Y-159672455D01*
X85392984Y-159732509D01*
X85367157Y-159787977D01*
X85313660Y-159817670D01*
X85294715Y-159819500D01*
X78536918Y-159819500D01*
X78478727Y-159800593D01*
X78442763Y-159751093D01*
X78442763Y-159689907D01*
X78455663Y-159663944D01*
X78473851Y-159637812D01*
X78473857Y-159637801D01*
X78554060Y-159450905D01*
X78554061Y-159450902D01*
X78594999Y-159251696D01*
X78595000Y-159251689D01*
X78595000Y-159000001D01*
X78594999Y-159000000D01*
X77895000Y-159000000D01*
X77895000Y-158500000D01*
X78594999Y-158500000D01*
X78595000Y-158499999D01*
X78595000Y-158299286D01*
X78579581Y-158147664D01*
X78579580Y-158147662D01*
X78518696Y-157953608D01*
X78518695Y-157953607D01*
X78420002Y-157775795D01*
X78419991Y-157775780D01*
X78287525Y-157621474D01*
X78287513Y-157621463D01*
X78126693Y-157496980D01*
X78126691Y-157496979D01*
X77944097Y-157407413D01*
X77845000Y-157381754D01*
X77845000Y-158183889D01*
X77820543Y-158144390D01*
X77731038Y-158076799D01*
X77623160Y-158046105D01*
X77511479Y-158056454D01*
X77411078Y-158106448D01*
X77345000Y-158178930D01*
X77345000Y-157376633D01*
X77344999Y-157376632D01*
X77343059Y-157376930D01*
X77343058Y-157376930D01*
X77152333Y-157447566D01*
X76979735Y-157555147D01*
X76979729Y-157555152D01*
X76832330Y-157695266D01*
X76716148Y-157862187D01*
X76716142Y-157862198D01*
X76635939Y-158049094D01*
X76635938Y-158049097D01*
X76595000Y-158248303D01*
X76595000Y-158499999D01*
X76595001Y-158500000D01*
X77295000Y-158500000D01*
X77295000Y-159000000D01*
X76595001Y-159000000D01*
X76595000Y-159000001D01*
X76595000Y-159200713D01*
X76610418Y-159352335D01*
X76610419Y-159352337D01*
X76671303Y-159546391D01*
X76671304Y-159546392D01*
X76741275Y-159672455D01*
X76752984Y-159732509D01*
X76727157Y-159787977D01*
X76673660Y-159817670D01*
X76654715Y-159819500D01*
X69343621Y-159819500D01*
X69340383Y-159819394D01*
X69314080Y-159817670D01*
X69106184Y-159804043D01*
X69099758Y-159803197D01*
X68871156Y-159757725D01*
X68864896Y-159756048D01*
X68644192Y-159681129D01*
X68638203Y-159678649D01*
X68429162Y-159575561D01*
X68423548Y-159572320D01*
X68229751Y-159442829D01*
X68224608Y-159438883D01*
X68125922Y-159352337D01*
X68049372Y-159285204D01*
X68044792Y-159280624D01*
X68026924Y-159260250D01*
X67891113Y-159105387D01*
X67887170Y-159100248D01*
X67757679Y-158906451D01*
X67754438Y-158900837D01*
X67703560Y-158797668D01*
X67651347Y-158691789D01*
X67648870Y-158685807D01*
X67573951Y-158465103D01*
X67572274Y-158458843D01*
X67526802Y-158230241D01*
X67525956Y-158223815D01*
X67520750Y-158144390D01*
X67510606Y-157989617D01*
X67510500Y-157986379D01*
X67510500Y-155170713D01*
X76595000Y-155170713D01*
X76610418Y-155322335D01*
X76610419Y-155322337D01*
X76671303Y-155516391D01*
X76671304Y-155516392D01*
X76769997Y-155694204D01*
X76770008Y-155694219D01*
X76902474Y-155848525D01*
X76902486Y-155848536D01*
X77063306Y-155973019D01*
X77063308Y-155973020D01*
X77245902Y-156062586D01*
X77345000Y-156088244D01*
X77345000Y-155286110D01*
X77369457Y-155325610D01*
X77458962Y-155393201D01*
X77566840Y-155423895D01*
X77678521Y-155413546D01*
X77778922Y-155363552D01*
X77845000Y-155291069D01*
X77845000Y-156093365D01*
X77846941Y-156093069D01*
X78037666Y-156022433D01*
X78210264Y-155914852D01*
X78210270Y-155914847D01*
X78357669Y-155774733D01*
X78473851Y-155607812D01*
X78473858Y-155607798D01*
X78499603Y-155547806D01*
X78539925Y-155501787D01*
X78599596Y-155488257D01*
X78650847Y-155508303D01*
X78734767Y-155572698D01*
X78874764Y-155630687D01*
X78987280Y-155645500D01*
X78987281Y-155645500D01*
X79062719Y-155645500D01*
X79062720Y-155645500D01*
X79175236Y-155630687D01*
X79315233Y-155572698D01*
X79435451Y-155480451D01*
X79527698Y-155360233D01*
X79585687Y-155220236D01*
X79605466Y-155070000D01*
X84224534Y-155070000D01*
X84243553Y-155214469D01*
X84244313Y-155220236D01*
X84302302Y-155360233D01*
X84394549Y-155480451D01*
X84514767Y-155572698D01*
X84654764Y-155630687D01*
X84767280Y-155645500D01*
X84767281Y-155645500D01*
X84842719Y-155645500D01*
X84842720Y-155645500D01*
X84955236Y-155630687D01*
X85095233Y-155572698D01*
X85177582Y-155509508D01*
X85235258Y-155489084D01*
X85293924Y-155506461D01*
X85324410Y-155540005D01*
X85409997Y-155694204D01*
X85410008Y-155694219D01*
X85542474Y-155848525D01*
X85542486Y-155848536D01*
X85703306Y-155973019D01*
X85703308Y-155973020D01*
X85885902Y-156062586D01*
X85985000Y-156088244D01*
X85985000Y-155286110D01*
X86009457Y-155325610D01*
X86098962Y-155393201D01*
X86206840Y-155423895D01*
X86318521Y-155413546D01*
X86418922Y-155363552D01*
X86485000Y-155291069D01*
X86485000Y-156093365D01*
X86486941Y-156093069D01*
X86677666Y-156022433D01*
X86850264Y-155914852D01*
X86850270Y-155914847D01*
X86997669Y-155774733D01*
X87084487Y-155650000D01*
X88700859Y-155650000D01*
X88721386Y-155897736D01*
X88782412Y-156138719D01*
X88882265Y-156366363D01*
X88882270Y-156366372D01*
X88982563Y-156519881D01*
X89680070Y-155822373D01*
X89682884Y-155835915D01*
X89752442Y-155970156D01*
X89855638Y-156080652D01*
X89984819Y-156159209D01*
X90036002Y-156173550D01*
X89335942Y-156873610D01*
X89382768Y-156910054D01*
X89601388Y-157028366D01*
X89836513Y-157109084D01*
X90081706Y-157150000D01*
X90330294Y-157150000D01*
X90575486Y-157109084D01*
X90810611Y-157028366D01*
X91029234Y-156910053D01*
X91029237Y-156910051D01*
X91076056Y-156873610D01*
X90377568Y-156175121D01*
X90494458Y-156124349D01*
X90611739Y-156028934D01*
X90698928Y-155905415D01*
X90729355Y-155819801D01*
X91429435Y-156519881D01*
X91529729Y-156366372D01*
X91529734Y-156366363D01*
X91629587Y-156138719D01*
X91690613Y-155897736D01*
X91711140Y-155650000D01*
X93500357Y-155650000D01*
X93520885Y-155871536D01*
X93581771Y-156085528D01*
X93680942Y-156284689D01*
X93815019Y-156462236D01*
X93979438Y-156612124D01*
X94168599Y-156729247D01*
X94376060Y-156809618D01*
X94594757Y-156850500D01*
X94817243Y-156850500D01*
X95035940Y-156809618D01*
X95243401Y-156729247D01*
X95432562Y-156612124D01*
X95596981Y-156462236D01*
X95731058Y-156284689D01*
X95830229Y-156085528D01*
X95891115Y-155871536D01*
X95911643Y-155650000D01*
X108766859Y-155650000D01*
X108787386Y-155897736D01*
X108848412Y-156138719D01*
X108948265Y-156366363D01*
X108948270Y-156366372D01*
X109048563Y-156519881D01*
X109746070Y-155822373D01*
X109748884Y-155835915D01*
X109818442Y-155970156D01*
X109921638Y-156080652D01*
X110050819Y-156159209D01*
X110102002Y-156173550D01*
X109401942Y-156873610D01*
X109448768Y-156910054D01*
X109667388Y-157028366D01*
X109902513Y-157109084D01*
X110147706Y-157150000D01*
X110396294Y-157150000D01*
X110641486Y-157109084D01*
X110876611Y-157028366D01*
X111095234Y-156910053D01*
X111095237Y-156910051D01*
X111142056Y-156873610D01*
X110443568Y-156175121D01*
X110560458Y-156124349D01*
X110677739Y-156028934D01*
X110764928Y-155905415D01*
X110795355Y-155819801D01*
X111495435Y-156519881D01*
X111595729Y-156366372D01*
X111595734Y-156366363D01*
X111695587Y-156138719D01*
X111756613Y-155897736D01*
X111777140Y-155650000D01*
X113566357Y-155650000D01*
X113586885Y-155871536D01*
X113647771Y-156085528D01*
X113746942Y-156284689D01*
X113881019Y-156462236D01*
X114045438Y-156612124D01*
X114234599Y-156729247D01*
X114442060Y-156809618D01*
X114660757Y-156850500D01*
X114883243Y-156850500D01*
X115101940Y-156809618D01*
X115309401Y-156729247D01*
X115498562Y-156612124D01*
X115662981Y-156462236D01*
X115797058Y-156284689D01*
X115896229Y-156085528D01*
X115957115Y-155871536D01*
X115977643Y-155650000D01*
X128832859Y-155650000D01*
X128853386Y-155897736D01*
X128914412Y-156138719D01*
X129014265Y-156366363D01*
X129014270Y-156366372D01*
X129114563Y-156519881D01*
X129812070Y-155822373D01*
X129814884Y-155835915D01*
X129884442Y-155970156D01*
X129987638Y-156080652D01*
X130116819Y-156159209D01*
X130168002Y-156173550D01*
X129467942Y-156873610D01*
X129514768Y-156910054D01*
X129733388Y-157028366D01*
X129968513Y-157109084D01*
X130213706Y-157150000D01*
X130462294Y-157150000D01*
X130707486Y-157109084D01*
X130942611Y-157028366D01*
X131161234Y-156910053D01*
X131161237Y-156910051D01*
X131208057Y-156873610D01*
X130509568Y-156175121D01*
X130626458Y-156124349D01*
X130743739Y-156028934D01*
X130830928Y-155905415D01*
X130861355Y-155819801D01*
X131561435Y-156519881D01*
X131661729Y-156366372D01*
X131661734Y-156366363D01*
X131761587Y-156138719D01*
X131822613Y-155897736D01*
X131843140Y-155650000D01*
X133632357Y-155650000D01*
X133652885Y-155871536D01*
X133713771Y-156085528D01*
X133812942Y-156284689D01*
X133947019Y-156462236D01*
X134111438Y-156612124D01*
X134300599Y-156729247D01*
X134508060Y-156809618D01*
X134726757Y-156850500D01*
X134949243Y-156850500D01*
X135167940Y-156809618D01*
X135375401Y-156729247D01*
X135564562Y-156612124D01*
X135728981Y-156462236D01*
X135863058Y-156284689D01*
X135962229Y-156085528D01*
X136023115Y-155871536D01*
X136043643Y-155650000D01*
X136023115Y-155428464D01*
X135962229Y-155214472D01*
X135863058Y-155015311D01*
X135728981Y-154837764D01*
X135564562Y-154687876D01*
X135375401Y-154570753D01*
X135167940Y-154490382D01*
X135167939Y-154490381D01*
X135167937Y-154490381D01*
X134949243Y-154449500D01*
X134726757Y-154449500D01*
X134508062Y-154490381D01*
X134459191Y-154509314D01*
X134300599Y-154570753D01*
X134157191Y-154659547D01*
X134111438Y-154687876D01*
X133947020Y-154837763D01*
X133812943Y-155015309D01*
X133812938Y-155015318D01*
X133732888Y-155176080D01*
X133713771Y-155214472D01*
X133652885Y-155428464D01*
X133632357Y-155650000D01*
X131843140Y-155650000D01*
X131822613Y-155402263D01*
X131761587Y-155161280D01*
X131661734Y-154933636D01*
X131661729Y-154933627D01*
X131561435Y-154780117D01*
X130863929Y-155477622D01*
X130861116Y-155464085D01*
X130791558Y-155329844D01*
X130688362Y-155219348D01*
X130559181Y-155140791D01*
X130507994Y-155126449D01*
X131208056Y-154426388D01*
X131161232Y-154389945D01*
X130942611Y-154271633D01*
X130707486Y-154190915D01*
X130462294Y-154150000D01*
X130213706Y-154150000D01*
X129968513Y-154190915D01*
X129733388Y-154271633D01*
X129514765Y-154389947D01*
X129514764Y-154389947D01*
X129467942Y-154426388D01*
X130166432Y-155124878D01*
X130049542Y-155175651D01*
X129932261Y-155271066D01*
X129845072Y-155394585D01*
X129814644Y-155480198D01*
X129114564Y-154780118D01*
X129014268Y-154933632D01*
X128914412Y-155161283D01*
X128853386Y-155402263D01*
X128832859Y-155650000D01*
X115977643Y-155650000D01*
X115957115Y-155428464D01*
X115896229Y-155214472D01*
X115797058Y-155015311D01*
X115662981Y-154837764D01*
X115498562Y-154687876D01*
X115309401Y-154570753D01*
X115101940Y-154490382D01*
X115101939Y-154490381D01*
X115101937Y-154490381D01*
X114883243Y-154449500D01*
X114660757Y-154449500D01*
X114442062Y-154490381D01*
X114393191Y-154509314D01*
X114234599Y-154570753D01*
X114091191Y-154659547D01*
X114045438Y-154687876D01*
X113881020Y-154837763D01*
X113746943Y-155015309D01*
X113746938Y-155015318D01*
X113666888Y-155176080D01*
X113647771Y-155214472D01*
X113586885Y-155428464D01*
X113566357Y-155650000D01*
X111777140Y-155650000D01*
X111756613Y-155402263D01*
X111695587Y-155161280D01*
X111595734Y-154933636D01*
X111595729Y-154933627D01*
X111495435Y-154780117D01*
X110797929Y-155477622D01*
X110795116Y-155464085D01*
X110725558Y-155329844D01*
X110622362Y-155219348D01*
X110493181Y-155140791D01*
X110441994Y-155126449D01*
X111142056Y-154426388D01*
X111095232Y-154389945D01*
X110876611Y-154271633D01*
X110641486Y-154190915D01*
X110396294Y-154150000D01*
X110147706Y-154150000D01*
X109902513Y-154190915D01*
X109667388Y-154271633D01*
X109448765Y-154389947D01*
X109448764Y-154389947D01*
X109401942Y-154426388D01*
X110100432Y-155124878D01*
X109983542Y-155175651D01*
X109866261Y-155271066D01*
X109779072Y-155394585D01*
X109748644Y-155480198D01*
X109048564Y-154780118D01*
X108948268Y-154933632D01*
X108848412Y-155161283D01*
X108787386Y-155402263D01*
X108766859Y-155650000D01*
X95911643Y-155650000D01*
X95891115Y-155428464D01*
X95830229Y-155214472D01*
X95731058Y-155015311D01*
X95596981Y-154837764D01*
X95432562Y-154687876D01*
X95243401Y-154570753D01*
X95035940Y-154490382D01*
X95035939Y-154490381D01*
X95035937Y-154490381D01*
X94817243Y-154449500D01*
X94594757Y-154449500D01*
X94376062Y-154490381D01*
X94327191Y-154509314D01*
X94168599Y-154570753D01*
X94025191Y-154659547D01*
X93979438Y-154687876D01*
X93815020Y-154837763D01*
X93680943Y-155015309D01*
X93680938Y-155015318D01*
X93600888Y-155176080D01*
X93581771Y-155214472D01*
X93520885Y-155428464D01*
X93500357Y-155650000D01*
X91711140Y-155650000D01*
X91690613Y-155402263D01*
X91629587Y-155161280D01*
X91529734Y-154933636D01*
X91529729Y-154933627D01*
X91429435Y-154780117D01*
X90731929Y-155477622D01*
X90729116Y-155464085D01*
X90659558Y-155329844D01*
X90556362Y-155219348D01*
X90427181Y-155140791D01*
X90375994Y-155126449D01*
X91076056Y-154426388D01*
X91029232Y-154389945D01*
X90810611Y-154271633D01*
X90575486Y-154190915D01*
X90330294Y-154150000D01*
X90081706Y-154150000D01*
X89836513Y-154190915D01*
X89601388Y-154271633D01*
X89382765Y-154389947D01*
X89382764Y-154389947D01*
X89335942Y-154426388D01*
X90034432Y-155124878D01*
X89917542Y-155175651D01*
X89800261Y-155271066D01*
X89713072Y-155394585D01*
X89682644Y-155480198D01*
X88982564Y-154780118D01*
X88882268Y-154933632D01*
X88782412Y-155161283D01*
X88721386Y-155402263D01*
X88700859Y-155650000D01*
X87084487Y-155650000D01*
X87113851Y-155607812D01*
X87113857Y-155607801D01*
X87194060Y-155420905D01*
X87194061Y-155420902D01*
X87234999Y-155221696D01*
X87235000Y-155221689D01*
X87235000Y-154820001D01*
X87234999Y-154820000D01*
X86535000Y-154820000D01*
X86535000Y-154320000D01*
X87234999Y-154320000D01*
X87235000Y-154319999D01*
X87235000Y-153969286D01*
X87219581Y-153817664D01*
X87219580Y-153817662D01*
X87158696Y-153623608D01*
X87158695Y-153623607D01*
X87060002Y-153445795D01*
X87059991Y-153445780D01*
X86927525Y-153291474D01*
X86927513Y-153291463D01*
X86766693Y-153166980D01*
X86766691Y-153166979D01*
X86584097Y-153077413D01*
X86485000Y-153051754D01*
X86485000Y-153853889D01*
X86460543Y-153814390D01*
X86371038Y-153746799D01*
X86263160Y-153716105D01*
X86151479Y-153726454D01*
X86051078Y-153776448D01*
X85985000Y-153848930D01*
X85985000Y-153046633D01*
X85984999Y-153046632D01*
X85983059Y-153046930D01*
X85983058Y-153046930D01*
X85792333Y-153117566D01*
X85619735Y-153225147D01*
X85619729Y-153225152D01*
X85472330Y-153365266D01*
X85356148Y-153532187D01*
X85356142Y-153532198D01*
X85275939Y-153719094D01*
X85275938Y-153719097D01*
X85235000Y-153918303D01*
X85235000Y-154477031D01*
X85216093Y-154535222D01*
X85166593Y-154571186D01*
X85105407Y-154571186D01*
X85098114Y-154568495D01*
X84955238Y-154509314D01*
X84955240Y-154509314D01*
X84955236Y-154509313D01*
X84955234Y-154509312D01*
X84955232Y-154509312D01*
X84842720Y-154494500D01*
X84767280Y-154494500D01*
X84767279Y-154494500D01*
X84654767Y-154509312D01*
X84654761Y-154509314D01*
X84514768Y-154567301D01*
X84394551Y-154659547D01*
X84394547Y-154659551D01*
X84302301Y-154779768D01*
X84244314Y-154919761D01*
X84244312Y-154919767D01*
X84224534Y-155069999D01*
X84224534Y-155070000D01*
X79605466Y-155070000D01*
X79585687Y-154919764D01*
X79527698Y-154779767D01*
X79435451Y-154659549D01*
X79315233Y-154567302D01*
X79175236Y-154509313D01*
X79175234Y-154509312D01*
X79175232Y-154509312D01*
X79062720Y-154494500D01*
X78987280Y-154494500D01*
X78987279Y-154494500D01*
X78874767Y-154509312D01*
X78874761Y-154509314D01*
X78731886Y-154568495D01*
X78670889Y-154573296D01*
X78618720Y-154541326D01*
X78595305Y-154484798D01*
X78595000Y-154477031D01*
X78595000Y-153969286D01*
X78579581Y-153817664D01*
X78579580Y-153817662D01*
X78518696Y-153623608D01*
X78518695Y-153623607D01*
X78420002Y-153445795D01*
X78419991Y-153445780D01*
X78287525Y-153291474D01*
X78287513Y-153291463D01*
X78126693Y-153166980D01*
X78126691Y-153166979D01*
X77944097Y-153077413D01*
X77845000Y-153051754D01*
X77845000Y-153853889D01*
X77820543Y-153814390D01*
X77731038Y-153746799D01*
X77623160Y-153716105D01*
X77511479Y-153726454D01*
X77411078Y-153776448D01*
X77345000Y-153848930D01*
X77345000Y-153046633D01*
X77344999Y-153046632D01*
X77343059Y-153046930D01*
X77343058Y-153046930D01*
X77152333Y-153117566D01*
X76979735Y-153225147D01*
X76979729Y-153225152D01*
X76832330Y-153365266D01*
X76716148Y-153532187D01*
X76716142Y-153532198D01*
X76635939Y-153719094D01*
X76635938Y-153719097D01*
X76595000Y-153918303D01*
X76595000Y-154319999D01*
X76595001Y-154320000D01*
X77295000Y-154320000D01*
X77295000Y-154820000D01*
X76595001Y-154820000D01*
X76595000Y-154820001D01*
X76595000Y-155170713D01*
X67510500Y-155170713D01*
X67510500Y-152527000D01*
X78769318Y-152527000D01*
X78789955Y-152683758D01*
X78789957Y-152683766D01*
X78850462Y-152829838D01*
X78850462Y-152829839D01*
X78899189Y-152893341D01*
X78946718Y-152955282D01*
X79072159Y-153051536D01*
X79072160Y-153051536D01*
X79072161Y-153051537D01*
X79218233Y-153112042D01*
X79218238Y-153112044D01*
X79335809Y-153127522D01*
X79374999Y-153132682D01*
X79375000Y-153132682D01*
X79375001Y-153132682D01*
X79406352Y-153128554D01*
X79531762Y-153112044D01*
X79677841Y-153051536D01*
X79679118Y-153050555D01*
X79682506Y-153047957D01*
X79740182Y-153027534D01*
X79742772Y-153027500D01*
X83559974Y-153027500D01*
X83618165Y-153046407D01*
X83620217Y-153047939D01*
X83707659Y-153115036D01*
X83853738Y-153175544D01*
X83971309Y-153191022D01*
X84010499Y-153196182D01*
X84010500Y-153196182D01*
X84010501Y-153196182D01*
X84041852Y-153192054D01*
X84167262Y-153175544D01*
X84313341Y-153115036D01*
X84438782Y-153018782D01*
X84535036Y-152893341D01*
X84595544Y-152747262D01*
X84616182Y-152590500D01*
X84595544Y-152433738D01*
X84569243Y-152370241D01*
X84535037Y-152287661D01*
X84535037Y-152287660D01*
X84438786Y-152162223D01*
X84438785Y-152162222D01*
X84438782Y-152162218D01*
X84438777Y-152162214D01*
X84438776Y-152162213D01*
X84313338Y-152065962D01*
X84167266Y-152005457D01*
X84167258Y-152005455D01*
X84010501Y-151984818D01*
X84010499Y-151984818D01*
X83853741Y-152005455D01*
X83853733Y-152005457D01*
X83821126Y-152018964D01*
X83783241Y-152026500D01*
X79742772Y-152026500D01*
X79684581Y-152007593D01*
X79682506Y-152006043D01*
X79677842Y-152002464D01*
X79677838Y-152002462D01*
X79531766Y-151941957D01*
X79531758Y-151941955D01*
X79375001Y-151921318D01*
X79374999Y-151921318D01*
X79218241Y-151941955D01*
X79218233Y-151941957D01*
X79072161Y-152002462D01*
X79072160Y-152002462D01*
X78946723Y-152098713D01*
X78946713Y-152098723D01*
X78850462Y-152224160D01*
X78850462Y-152224161D01*
X78789957Y-152370233D01*
X78789955Y-152370241D01*
X78769318Y-152526999D01*
X78769318Y-152527000D01*
X67510500Y-152527000D01*
X67510500Y-149150000D01*
X88700859Y-149150000D01*
X88721386Y-149397736D01*
X88782412Y-149638719D01*
X88882265Y-149866363D01*
X88882270Y-149866372D01*
X88982563Y-150019881D01*
X89680070Y-149322373D01*
X89682884Y-149335915D01*
X89752442Y-149470156D01*
X89855638Y-149580652D01*
X89984819Y-149659209D01*
X90036002Y-149673550D01*
X89335942Y-150373610D01*
X89382768Y-150410054D01*
X89601388Y-150528366D01*
X89836513Y-150609084D01*
X90081706Y-150650000D01*
X90330294Y-150650000D01*
X90575486Y-150609084D01*
X90810611Y-150528366D01*
X91029234Y-150410053D01*
X91029237Y-150410051D01*
X91076056Y-150373610D01*
X90377568Y-149675121D01*
X90494458Y-149624349D01*
X90611739Y-149528934D01*
X90698928Y-149405415D01*
X90729355Y-149319801D01*
X91429435Y-150019881D01*
X91529729Y-149866372D01*
X91529734Y-149866363D01*
X91629587Y-149638719D01*
X91690613Y-149397736D01*
X91711140Y-149150000D01*
X93500357Y-149150000D01*
X93520885Y-149371536D01*
X93581771Y-149585528D01*
X93680942Y-149784689D01*
X93815019Y-149962236D01*
X93979438Y-150112124D01*
X94168599Y-150229247D01*
X94376060Y-150309618D01*
X94594757Y-150350500D01*
X94817243Y-150350500D01*
X95035940Y-150309618D01*
X95243401Y-150229247D01*
X95432562Y-150112124D01*
X95596981Y-149962236D01*
X95731058Y-149784689D01*
X95830229Y-149585528D01*
X95833963Y-149572406D01*
X95868074Y-149521611D01*
X95925526Y-149500568D01*
X95929183Y-149500500D01*
X102009381Y-149500500D01*
X102029696Y-149502607D01*
X102031844Y-149503057D01*
X102041315Y-149505043D01*
X102074712Y-149500879D01*
X102080837Y-149500500D01*
X102085041Y-149500500D01*
X102095790Y-149498706D01*
X102106540Y-149496912D01*
X102157393Y-149490573D01*
X102157396Y-149490571D01*
X102164429Y-149488477D01*
X102171377Y-149486092D01*
X102171381Y-149486092D01*
X102216444Y-149461704D01*
X102262484Y-149439198D01*
X102268470Y-149434923D01*
X102274256Y-149430420D01*
X102308957Y-149392724D01*
X102551681Y-149150000D01*
X108766859Y-149150000D01*
X108787386Y-149397736D01*
X108848412Y-149638719D01*
X108948265Y-149866363D01*
X108948270Y-149866372D01*
X109048563Y-150019881D01*
X109746070Y-149322373D01*
X109748884Y-149335915D01*
X109818442Y-149470156D01*
X109921638Y-149580652D01*
X110050819Y-149659209D01*
X110102002Y-149673550D01*
X109401942Y-150373610D01*
X109448768Y-150410054D01*
X109667388Y-150528366D01*
X109902513Y-150609084D01*
X110147706Y-150650000D01*
X110396294Y-150650000D01*
X110641486Y-150609084D01*
X110876611Y-150528366D01*
X111095234Y-150410053D01*
X111095237Y-150410051D01*
X111142056Y-150373610D01*
X110443568Y-149675121D01*
X110560458Y-149624349D01*
X110677739Y-149528934D01*
X110764928Y-149405415D01*
X110795355Y-149319801D01*
X111495435Y-150019881D01*
X111595729Y-149866372D01*
X111595734Y-149866363D01*
X111695587Y-149638719D01*
X111756613Y-149397736D01*
X111777140Y-149150000D01*
X113566357Y-149150000D01*
X113586885Y-149371536D01*
X113647771Y-149585528D01*
X113746942Y-149784689D01*
X113881019Y-149962236D01*
X114045438Y-150112124D01*
X114234599Y-150229247D01*
X114442060Y-150309618D01*
X114660757Y-150350500D01*
X114883243Y-150350500D01*
X115101940Y-150309618D01*
X115309401Y-150229247D01*
X115498562Y-150112124D01*
X115662981Y-149962236D01*
X115797058Y-149784689D01*
X115896229Y-149585528D01*
X115957115Y-149371536D01*
X115977643Y-149150000D01*
X128832859Y-149150000D01*
X128853386Y-149397736D01*
X128914412Y-149638719D01*
X129014265Y-149866363D01*
X129014270Y-149866372D01*
X129114563Y-150019881D01*
X129812070Y-149322373D01*
X129814884Y-149335915D01*
X129884442Y-149470156D01*
X129987638Y-149580652D01*
X130116819Y-149659209D01*
X130168002Y-149673550D01*
X129467942Y-150373610D01*
X129514768Y-150410054D01*
X129733388Y-150528366D01*
X129968513Y-150609084D01*
X130213706Y-150650000D01*
X130462294Y-150650000D01*
X130707486Y-150609084D01*
X130942611Y-150528366D01*
X131161234Y-150410053D01*
X131161237Y-150410051D01*
X131208057Y-150373610D01*
X130509568Y-149675121D01*
X130626458Y-149624349D01*
X130743739Y-149528934D01*
X130830928Y-149405415D01*
X130861355Y-149319801D01*
X131561435Y-150019881D01*
X131661729Y-149866372D01*
X131661734Y-149866363D01*
X131761587Y-149638719D01*
X131822613Y-149397736D01*
X131843140Y-149150000D01*
X131822613Y-148902263D01*
X131761587Y-148661280D01*
X131661734Y-148433636D01*
X131661729Y-148433627D01*
X131561435Y-148280117D01*
X130863929Y-148977622D01*
X130861116Y-148964085D01*
X130791558Y-148829844D01*
X130688362Y-148719348D01*
X130559181Y-148640791D01*
X130507994Y-148626449D01*
X131208056Y-147926388D01*
X131161232Y-147889945D01*
X130942611Y-147771633D01*
X130707486Y-147690915D01*
X130462294Y-147650000D01*
X130213706Y-147650000D01*
X129968513Y-147690915D01*
X129733388Y-147771633D01*
X129514765Y-147889947D01*
X129514764Y-147889947D01*
X129467942Y-147926388D01*
X130166432Y-148624878D01*
X130049542Y-148675651D01*
X129932261Y-148771066D01*
X129845072Y-148894585D01*
X129814644Y-148980198D01*
X129114564Y-148280118D01*
X129014268Y-148433632D01*
X128914412Y-148661283D01*
X128853386Y-148902263D01*
X128832859Y-149150000D01*
X115977643Y-149150000D01*
X115957115Y-148928464D01*
X115896229Y-148714472D01*
X115797058Y-148515311D01*
X115662981Y-148337764D01*
X115498562Y-148187876D01*
X115309401Y-148070753D01*
X115211186Y-148032704D01*
X115185737Y-148022845D01*
X115138306Y-147984193D01*
X115122500Y-147930530D01*
X115122500Y-138652189D01*
X115141407Y-138593998D01*
X115151490Y-138582191D01*
X146772884Y-106960796D01*
X146788734Y-106947926D01*
X146798669Y-106941437D01*
X146798674Y-106941430D01*
X146803448Y-106937037D01*
X146859066Y-106911536D01*
X146919051Y-106923595D01*
X146960491Y-106968610D01*
X146969500Y-107009873D01*
X146969500Y-108307165D01*
X146950593Y-108365356D01*
X146940504Y-108377169D01*
X120685413Y-134632259D01*
X120682229Y-134635176D01*
X120650807Y-134661542D01*
X120650806Y-134661544D01*
X120630292Y-134697075D01*
X120627972Y-134700716D01*
X120604446Y-134734316D01*
X120604442Y-134734324D01*
X120604051Y-134735786D01*
X120594170Y-134759640D01*
X120593414Y-134760948D01*
X120593410Y-134760960D01*
X120586287Y-134801349D01*
X120585353Y-134805564D01*
X120574736Y-134845187D01*
X120574736Y-134845193D01*
X120578312Y-134886072D01*
X120578500Y-134890373D01*
X120578500Y-138464425D01*
X120578312Y-138468727D01*
X120577919Y-138473231D01*
X120574736Y-138509606D01*
X120585354Y-138549236D01*
X120586289Y-138553452D01*
X120593411Y-138593845D01*
X120594164Y-138595148D01*
X120604054Y-138619024D01*
X120604443Y-138620479D01*
X120604446Y-138620484D01*
X120617834Y-138639605D01*
X120627971Y-138654081D01*
X120630292Y-138657724D01*
X120650806Y-138693255D01*
X120682224Y-138719618D01*
X120685410Y-138722537D01*
X128841057Y-146878184D01*
X128843975Y-146881369D01*
X128870344Y-146912793D01*
X128870345Y-146912794D01*
X128905873Y-146933306D01*
X128909512Y-146935625D01*
X128943111Y-146959151D01*
X128943113Y-146959152D01*
X128943116Y-146959154D01*
X128944567Y-146959542D01*
X128968459Y-146969440D01*
X128968986Y-146969743D01*
X128969755Y-146970188D01*
X129010151Y-146977310D01*
X129014348Y-146978240D01*
X129053993Y-146988864D01*
X129094877Y-146985287D01*
X129099177Y-146985100D01*
X133936166Y-146985100D01*
X133994357Y-147004007D01*
X134006170Y-147014096D01*
X134483504Y-147491430D01*
X134511281Y-147545947D01*
X134512500Y-147561434D01*
X134512500Y-147920845D01*
X134493593Y-147979036D01*
X134449263Y-148013160D01*
X134411849Y-148027654D01*
X134300599Y-148070753D01*
X134111438Y-148187876D01*
X133947020Y-148337763D01*
X133812943Y-148515309D01*
X133812938Y-148515318D01*
X133713772Y-148714469D01*
X133713771Y-148714472D01*
X133652885Y-148928464D01*
X133632357Y-149150000D01*
X133652885Y-149371536D01*
X133713771Y-149585528D01*
X133812942Y-149784689D01*
X133947019Y-149962236D01*
X134111438Y-150112124D01*
X134300599Y-150229247D01*
X134508060Y-150309618D01*
X134726757Y-150350500D01*
X134949243Y-150350500D01*
X135167940Y-150309618D01*
X135375401Y-150229247D01*
X135564562Y-150112124D01*
X135728981Y-149962236D01*
X135863058Y-149784689D01*
X135962229Y-149585528D01*
X136023115Y-149371536D01*
X136043643Y-149150000D01*
X136023115Y-148928464D01*
X135962229Y-148714472D01*
X135863058Y-148515311D01*
X135728981Y-148337764D01*
X135564562Y-148187876D01*
X135375401Y-148070753D01*
X135226737Y-148013160D01*
X135179306Y-147974508D01*
X135163500Y-147920845D01*
X135163500Y-147401973D01*
X135163687Y-147397672D01*
X135167264Y-147356793D01*
X135156640Y-147317148D01*
X135155710Y-147312948D01*
X135148588Y-147272555D01*
X135147840Y-147271259D01*
X135137942Y-147247367D01*
X135137554Y-147245916D01*
X135137552Y-147245913D01*
X135137551Y-147245911D01*
X135114025Y-147212312D01*
X135111703Y-147208668D01*
X135091193Y-147173143D01*
X135070069Y-147155419D01*
X135059765Y-147146773D01*
X135056588Y-147143861D01*
X134353741Y-146441014D01*
X134350822Y-146437829D01*
X134324456Y-146406406D01*
X134301818Y-146393336D01*
X134288918Y-146385888D01*
X134285288Y-146383575D01*
X134251684Y-146360046D01*
X134251679Y-146360043D01*
X134250224Y-146359654D01*
X134226348Y-146349764D01*
X134225045Y-146349011D01*
X134184652Y-146341889D01*
X134180436Y-146340954D01*
X134154153Y-146333912D01*
X134140807Y-146330336D01*
X134140806Y-146330336D01*
X134136381Y-146330723D01*
X134099926Y-146333912D01*
X134095626Y-146334100D01*
X129258634Y-146334100D01*
X129200443Y-146315193D01*
X129188630Y-146305104D01*
X121258496Y-138374970D01*
X121230719Y-138320453D01*
X121229500Y-138304966D01*
X121229500Y-136906002D01*
X122125553Y-136906002D01*
X122146034Y-137048456D01*
X122205822Y-137179371D01*
X122205823Y-137179373D01*
X122267374Y-137250407D01*
X122300073Y-137288144D01*
X122421142Y-137365950D01*
X122421147Y-137365953D01*
X122527603Y-137397211D01*
X122559235Y-137406499D01*
X122559236Y-137406499D01*
X122559239Y-137406500D01*
X122559241Y-137406500D01*
X122703159Y-137406500D01*
X122703161Y-137406500D01*
X122841253Y-137365953D01*
X122962328Y-137288143D01*
X122981801Y-137265670D01*
X123034197Y-137234073D01*
X123056621Y-137231500D01*
X135206166Y-137231500D01*
X135264357Y-137250407D01*
X135276170Y-137260496D01*
X140474257Y-142458584D01*
X140477175Y-142461769D01*
X140503544Y-142493193D01*
X140503545Y-142493194D01*
X140539073Y-142513706D01*
X140542712Y-142516025D01*
X140576311Y-142539551D01*
X140576313Y-142539552D01*
X140576316Y-142539554D01*
X140577767Y-142539942D01*
X140601659Y-142549840D01*
X140602954Y-142550588D01*
X140611854Y-142552157D01*
X140643365Y-142557713D01*
X140647544Y-142558638D01*
X140687193Y-142569263D01*
X140728065Y-142565687D01*
X140732365Y-142565500D01*
X153719163Y-142565500D01*
X153723463Y-142565687D01*
X153764344Y-142569264D01*
X153803989Y-142558640D01*
X153808187Y-142557710D01*
X153848582Y-142550588D01*
X153849882Y-142549838D01*
X153873773Y-142539942D01*
X153874001Y-142539880D01*
X153875221Y-142539554D01*
X153908840Y-142516012D01*
X153912448Y-142513714D01*
X153947992Y-142493194D01*
X153974364Y-142461763D01*
X153977263Y-142458598D01*
X156240126Y-140195737D01*
X156243303Y-140192824D01*
X156274731Y-140166455D01*
X156295249Y-140130914D01*
X156297554Y-140127296D01*
X156321091Y-140093684D01*
X156321479Y-140092236D01*
X156331375Y-140068345D01*
X156332123Y-140067048D01*
X156332122Y-140067048D01*
X156332125Y-140067045D01*
X156339250Y-140026628D01*
X156340178Y-140022443D01*
X156350800Y-139982807D01*
X156347224Y-139941934D01*
X156347037Y-139937634D01*
X156347037Y-139871562D01*
X156365944Y-139813371D01*
X156371218Y-139806731D01*
X156446914Y-139719373D01*
X156506702Y-139588457D01*
X156519577Y-139498907D01*
X156527184Y-139446002D01*
X156527184Y-139445997D01*
X156506702Y-139303543D01*
X156464608Y-139211371D01*
X156446914Y-139172627D01*
X156352665Y-139063857D01*
X156352664Y-139063856D01*
X156352663Y-139063855D01*
X156231594Y-138986049D01*
X156231591Y-138986047D01*
X156231590Y-138986047D01*
X156231587Y-138986046D01*
X156093501Y-138945500D01*
X156093498Y-138945500D01*
X155949576Y-138945500D01*
X155949572Y-138945500D01*
X155811486Y-138986046D01*
X155811479Y-138986049D01*
X155737560Y-139033554D01*
X155678385Y-139049109D01*
X155621368Y-139026910D01*
X155588289Y-138975437D01*
X155585037Y-138950270D01*
X155585037Y-138855562D01*
X155603944Y-138797371D01*
X155609218Y-138790731D01*
X155684914Y-138703373D01*
X155744702Y-138572457D01*
X155753739Y-138509606D01*
X155765184Y-138430002D01*
X155765184Y-138429997D01*
X155744702Y-138287543D01*
X155701996Y-138194031D01*
X155684914Y-138156627D01*
X155590665Y-138047857D01*
X155590664Y-138047856D01*
X155590663Y-138047855D01*
X155469594Y-137970049D01*
X155469591Y-137970047D01*
X155469590Y-137970047D01*
X155469587Y-137970046D01*
X155331501Y-137929500D01*
X155331498Y-137929500D01*
X155187576Y-137929500D01*
X155187572Y-137929500D01*
X155049486Y-137970046D01*
X155049479Y-137970049D01*
X154928410Y-138047855D01*
X154834159Y-138156628D01*
X154774371Y-138287543D01*
X154753890Y-138429997D01*
X154753890Y-138430002D01*
X154774371Y-138572456D01*
X154828545Y-138691078D01*
X154834160Y-138703373D01*
X154895786Y-138774494D01*
X154909856Y-138790731D01*
X154933674Y-138847090D01*
X154934037Y-138855562D01*
X154934037Y-139270166D01*
X154915130Y-139328357D01*
X154905041Y-139340170D01*
X153121707Y-141123504D01*
X153067190Y-141151281D01*
X153051703Y-141152500D01*
X151372124Y-141152500D01*
X151313933Y-141133593D01*
X151277969Y-141084093D01*
X151277969Y-141022907D01*
X151313933Y-140973407D01*
X151318601Y-140970216D01*
X151435726Y-140894944D01*
X151435725Y-140894944D01*
X151435728Y-140894943D01*
X151529977Y-140786173D01*
X151589765Y-140655257D01*
X151610247Y-140512800D01*
X151589765Y-140370343D01*
X151529977Y-140239427D01*
X151435728Y-140130657D01*
X151435727Y-140130656D01*
X151435726Y-140130655D01*
X151314657Y-140052849D01*
X151314654Y-140052847D01*
X151314653Y-140052847D01*
X151253914Y-140035012D01*
X151203408Y-140000477D01*
X151182846Y-139942850D01*
X151200084Y-139884143D01*
X151206987Y-139875192D01*
X151275977Y-139795573D01*
X151335765Y-139664657D01*
X151345127Y-139599543D01*
X151356247Y-139522202D01*
X151356247Y-139522197D01*
X151335765Y-139379743D01*
X151313817Y-139331684D01*
X151275977Y-139248827D01*
X151181728Y-139140057D01*
X151181727Y-139140056D01*
X151181726Y-139140055D01*
X151060657Y-139062249D01*
X151060654Y-139062247D01*
X151060653Y-139062247D01*
X151060650Y-139062246D01*
X150922564Y-139021700D01*
X150922561Y-139021700D01*
X150778639Y-139021700D01*
X150778635Y-139021700D01*
X150640549Y-139062246D01*
X150640542Y-139062249D01*
X150519473Y-139140055D01*
X150425222Y-139248828D01*
X150365434Y-139379743D01*
X150344953Y-139522197D01*
X150344953Y-139526512D01*
X150326046Y-139584703D01*
X150315957Y-139596516D01*
X150312969Y-139599504D01*
X150258452Y-139627281D01*
X150242965Y-139628500D01*
X150173326Y-139628500D01*
X150115135Y-139609593D01*
X150079171Y-139560093D01*
X150079171Y-139498907D01*
X150083273Y-139488373D01*
X150141965Y-139359857D01*
X150150062Y-139303543D01*
X150162447Y-139217402D01*
X150162447Y-139217397D01*
X150141965Y-139074943D01*
X150117649Y-139021700D01*
X150082177Y-138944027D01*
X149987928Y-138835257D01*
X149987927Y-138835256D01*
X149987926Y-138835255D01*
X149932334Y-138799529D01*
X149893603Y-138752163D01*
X149890109Y-138691078D01*
X149923188Y-138639605D01*
X149932330Y-138632963D01*
X150020697Y-138576174D01*
X150114946Y-138467404D01*
X150174734Y-138336488D01*
X150186243Y-138256438D01*
X150195216Y-138194033D01*
X150195216Y-138194028D01*
X150174734Y-138051574D01*
X150114946Y-137920659D01*
X150114946Y-137920658D01*
X150020697Y-137811888D01*
X150020696Y-137811887D01*
X150020695Y-137811886D01*
X149899626Y-137734080D01*
X149899623Y-137734079D01*
X149899622Y-137734078D01*
X149814144Y-137708979D01*
X149763639Y-137674444D01*
X149743077Y-137616817D01*
X149743037Y-137613990D01*
X149743037Y-120630301D01*
X149743224Y-120626004D01*
X149746800Y-120585130D01*
X149736175Y-120545481D01*
X149735250Y-120541302D01*
X149728125Y-120500892D01*
X149728125Y-120500891D01*
X149727377Y-120499596D01*
X149717479Y-120475704D01*
X149717091Y-120474253D01*
X149693559Y-120440646D01*
X149691244Y-120437011D01*
X149670730Y-120401481D01*
X149655391Y-120388610D01*
X149639308Y-120375115D01*
X149636131Y-120372203D01*
X148491527Y-119227600D01*
X149889318Y-119227600D01*
X149909955Y-119384358D01*
X149909957Y-119384366D01*
X149970462Y-119530438D01*
X149970462Y-119530439D01*
X150016202Y-119590048D01*
X150066718Y-119655882D01*
X150066722Y-119655885D01*
X150130767Y-119705028D01*
X150165423Y-119755452D01*
X150169500Y-119783570D01*
X150169500Y-134730625D01*
X150169312Y-134734927D01*
X150167035Y-134760960D01*
X150165736Y-134775806D01*
X150176354Y-134815436D01*
X150177289Y-134819652D01*
X150184411Y-134860045D01*
X150185164Y-134861348D01*
X150195054Y-134885224D01*
X150195443Y-134886679D01*
X150195446Y-134886684D01*
X150218971Y-134920281D01*
X150221292Y-134923924D01*
X150241806Y-134959455D01*
X150273224Y-134985818D01*
X150276410Y-134988737D01*
X152197904Y-136910230D01*
X152225681Y-136964747D01*
X152226900Y-136980234D01*
X152226900Y-139503036D01*
X152207993Y-139561227D01*
X152202720Y-139567867D01*
X152127022Y-139655228D01*
X152067234Y-139786143D01*
X152046753Y-139928597D01*
X152046753Y-139928602D01*
X152067234Y-140071056D01*
X152123477Y-140194208D01*
X152127023Y-140201973D01*
X152159477Y-140239427D01*
X152221273Y-140310744D01*
X152342342Y-140388550D01*
X152342347Y-140388553D01*
X152448803Y-140419811D01*
X152480435Y-140429099D01*
X152480436Y-140429099D01*
X152480439Y-140429100D01*
X152480441Y-140429100D01*
X152624359Y-140429100D01*
X152624361Y-140429100D01*
X152762453Y-140388553D01*
X152883528Y-140310743D01*
X152977777Y-140201973D01*
X153037565Y-140071057D01*
X153058047Y-139928600D01*
X153054559Y-139904343D01*
X153037565Y-139786143D01*
X152991928Y-139686213D01*
X152977777Y-139655227D01*
X152902080Y-139567867D01*
X152878263Y-139511507D01*
X152877900Y-139503036D01*
X152877900Y-139401082D01*
X152896807Y-139342891D01*
X152946307Y-139306927D01*
X153007493Y-139306927D01*
X153030423Y-139317798D01*
X153126811Y-139379743D01*
X153155147Y-139397953D01*
X153261603Y-139429211D01*
X153293235Y-139438499D01*
X153293236Y-139438499D01*
X153293239Y-139438500D01*
X153293241Y-139438500D01*
X153437159Y-139438500D01*
X153437161Y-139438500D01*
X153575253Y-139397953D01*
X153696328Y-139320143D01*
X153790577Y-139211373D01*
X153850365Y-139080457D01*
X153864193Y-138984281D01*
X153870847Y-138938002D01*
X153870847Y-138937997D01*
X153850365Y-138795543D01*
X153815691Y-138719618D01*
X153790577Y-138664627D01*
X153763139Y-138632961D01*
X153739880Y-138606117D01*
X153716063Y-138549757D01*
X153715700Y-138541287D01*
X153715700Y-133701418D01*
X153717807Y-133681102D01*
X153717817Y-133681053D01*
X153720243Y-133669485D01*
X153716079Y-133636088D01*
X153715700Y-133629962D01*
X153715700Y-133625759D01*
X153712112Y-133604259D01*
X153705773Y-133553407D01*
X153705772Y-133553405D01*
X153705772Y-133553403D01*
X153703679Y-133546375D01*
X153701291Y-133539416D01*
X153676904Y-133494354D01*
X153654398Y-133448315D01*
X153650148Y-133442362D01*
X153645618Y-133436542D01*
X153607924Y-133401841D01*
X152906496Y-132700414D01*
X152878719Y-132645897D01*
X152877500Y-132630410D01*
X152877500Y-127224959D01*
X152872586Y-127195512D01*
X152863092Y-127138619D01*
X152863090Y-127138615D01*
X152860429Y-127130861D01*
X152861727Y-127130415D01*
X152852500Y-127093976D01*
X152852500Y-118641925D01*
X152871407Y-118583734D01*
X152872959Y-118581657D01*
X152880705Y-118571562D01*
X152924536Y-118514441D01*
X152985044Y-118368362D01*
X153005682Y-118211600D01*
X152985044Y-118054838D01*
X152958959Y-117991864D01*
X152924537Y-117908761D01*
X152924537Y-117908760D01*
X152828286Y-117783323D01*
X152828285Y-117783322D01*
X152828282Y-117783318D01*
X152828277Y-117783314D01*
X152828276Y-117783313D01*
X152746764Y-117720767D01*
X152702841Y-117687064D01*
X152702840Y-117687063D01*
X152702838Y-117687062D01*
X152556766Y-117626557D01*
X152556758Y-117626555D01*
X152400001Y-117605918D01*
X152399999Y-117605918D01*
X152243241Y-117626555D01*
X152243233Y-117626557D01*
X152097161Y-117687062D01*
X152097160Y-117687062D01*
X151971723Y-117783313D01*
X151971713Y-117783323D01*
X151875462Y-117908760D01*
X151875462Y-117908761D01*
X151814957Y-118054833D01*
X151814955Y-118054841D01*
X151794318Y-118211599D01*
X151794318Y-118211600D01*
X151814955Y-118368358D01*
X151814957Y-118368366D01*
X151875462Y-118514438D01*
X151875462Y-118514439D01*
X151971713Y-118639876D01*
X151971718Y-118639882D01*
X151971722Y-118639885D01*
X151971723Y-118639886D01*
X151975203Y-118642556D01*
X152097159Y-118736136D01*
X152140386Y-118754041D01*
X152186910Y-118793775D01*
X152201500Y-118845504D01*
X152201500Y-127106169D01*
X152196136Y-127138314D01*
X152176500Y-127195512D01*
X152176500Y-132769981D01*
X152174393Y-132790296D01*
X152171957Y-132801913D01*
X152176120Y-132835309D01*
X152176500Y-132841437D01*
X152176500Y-132845638D01*
X152180087Y-132867141D01*
X152186425Y-132917988D01*
X152188527Y-132925048D01*
X152190907Y-132931980D01*
X152215295Y-132977044D01*
X152237801Y-133023082D01*
X152242078Y-133029072D01*
X152246579Y-133034855D01*
X152284275Y-133069558D01*
X152985704Y-133770985D01*
X153013481Y-133825502D01*
X153014700Y-133840989D01*
X153014700Y-136583153D01*
X152995793Y-136641344D01*
X152946293Y-136677308D01*
X152885107Y-136677308D01*
X152835607Y-136641344D01*
X152834604Y-136639937D01*
X152828425Y-136631113D01*
X152826112Y-136627483D01*
X152805594Y-136591945D01*
X152774165Y-136565573D01*
X152770988Y-136562661D01*
X150849496Y-134641170D01*
X150821719Y-134586653D01*
X150820500Y-134571166D01*
X150820500Y-119783570D01*
X150839407Y-119725379D01*
X150859233Y-119705028D01*
X150886374Y-119684202D01*
X150923282Y-119655882D01*
X151019536Y-119530441D01*
X151080044Y-119384362D01*
X151100682Y-119227600D01*
X151080044Y-119070838D01*
X151061407Y-119025845D01*
X151019537Y-118924761D01*
X151019537Y-118924760D01*
X150923286Y-118799323D01*
X150923285Y-118799322D01*
X150923282Y-118799318D01*
X150923277Y-118799314D01*
X150923276Y-118799313D01*
X150846812Y-118740641D01*
X150797841Y-118703064D01*
X150797840Y-118703063D01*
X150797838Y-118703062D01*
X150651766Y-118642557D01*
X150651758Y-118642555D01*
X150495001Y-118621918D01*
X150494999Y-118621918D01*
X150338241Y-118642555D01*
X150338233Y-118642557D01*
X150192161Y-118703062D01*
X150192160Y-118703062D01*
X150066723Y-118799313D01*
X150066713Y-118799323D01*
X149970462Y-118924760D01*
X149970462Y-118924761D01*
X149909957Y-119070833D01*
X149909955Y-119070841D01*
X149889318Y-119227599D01*
X149889318Y-119227600D01*
X148491527Y-119227600D01*
X147943292Y-118679366D01*
X147915515Y-118624849D01*
X147915143Y-118596446D01*
X147925682Y-118516400D01*
X147905044Y-118359638D01*
X147875287Y-118287799D01*
X147844537Y-118213561D01*
X147844537Y-118213560D01*
X147748286Y-118088123D01*
X147748285Y-118088122D01*
X147748282Y-118088118D01*
X147748277Y-118088114D01*
X147748276Y-118088113D01*
X147622838Y-117991862D01*
X147476766Y-117931357D01*
X147476758Y-117931355D01*
X147320001Y-117910718D01*
X147319999Y-117910718D01*
X147163241Y-117931355D01*
X147163233Y-117931357D01*
X147017161Y-117991862D01*
X147017160Y-117991862D01*
X146891723Y-118088113D01*
X146891713Y-118088123D01*
X146795462Y-118213560D01*
X146795462Y-118213561D01*
X146734957Y-118359633D01*
X146734955Y-118359641D01*
X146714318Y-118516399D01*
X146714318Y-118516400D01*
X146734955Y-118673158D01*
X146734957Y-118673166D01*
X146795462Y-118819238D01*
X146795462Y-118819239D01*
X146891713Y-118944676D01*
X146891718Y-118944682D01*
X147017159Y-119040936D01*
X147017160Y-119040936D01*
X147017161Y-119040937D01*
X147163233Y-119101442D01*
X147163238Y-119101444D01*
X147320000Y-119122082D01*
X147400041Y-119111543D01*
X147460199Y-119122692D01*
X147482966Y-119139692D01*
X149063041Y-120719767D01*
X149090818Y-120774284D01*
X149092037Y-120789771D01*
X149092037Y-122025904D01*
X149073130Y-122084095D01*
X149023630Y-122120059D01*
X148962444Y-122120059D01*
X148912944Y-122084095D01*
X148909517Y-122078818D01*
X148908731Y-122077882D01*
X148877302Y-122051510D01*
X148874125Y-122048598D01*
X145403292Y-118577766D01*
X145375515Y-118523249D01*
X145375143Y-118494846D01*
X145385682Y-118414800D01*
X145365044Y-118258038D01*
X145304537Y-118111961D01*
X145304537Y-118111960D01*
X145208286Y-117986523D01*
X145208285Y-117986522D01*
X145208282Y-117986518D01*
X145208277Y-117986514D01*
X145208276Y-117986513D01*
X145106947Y-117908761D01*
X145082841Y-117890264D01*
X145082840Y-117890263D01*
X145082838Y-117890262D01*
X144936766Y-117829757D01*
X144936758Y-117829755D01*
X144780001Y-117809118D01*
X144779999Y-117809118D01*
X144623241Y-117829755D01*
X144623233Y-117829757D01*
X144477161Y-117890262D01*
X144477160Y-117890262D01*
X144351723Y-117986513D01*
X144351713Y-117986523D01*
X144255462Y-118111960D01*
X144255462Y-118111961D01*
X144194957Y-118258033D01*
X144194955Y-118258041D01*
X144174318Y-118414799D01*
X144174318Y-118414800D01*
X144194955Y-118571558D01*
X144194957Y-118571566D01*
X144255462Y-118717638D01*
X144255462Y-118717639D01*
X144351713Y-118843076D01*
X144351718Y-118843082D01*
X144477159Y-118939336D01*
X144477160Y-118939336D01*
X144477161Y-118939337D01*
X144574606Y-118979700D01*
X144623238Y-118999844D01*
X144780000Y-119020482D01*
X144860041Y-119009943D01*
X144920199Y-119021092D01*
X144942966Y-119038092D01*
X148301041Y-122396167D01*
X148328818Y-122450684D01*
X148330037Y-122466171D01*
X148330037Y-124186503D01*
X148311130Y-124244694D01*
X148261630Y-124280658D01*
X148200444Y-124280658D01*
X148161033Y-124256507D01*
X142120223Y-118215697D01*
X142092446Y-118161180D01*
X142092074Y-118158614D01*
X142088444Y-118131041D01*
X142088444Y-118131038D01*
X142027937Y-117984961D01*
X142027937Y-117984960D01*
X141931686Y-117859523D01*
X141931685Y-117859522D01*
X141931682Y-117859518D01*
X141931677Y-117859514D01*
X141931676Y-117859513D01*
X141823206Y-117776282D01*
X141806241Y-117763264D01*
X141806240Y-117763263D01*
X141806238Y-117763262D01*
X141660166Y-117702757D01*
X141660158Y-117702755D01*
X141503401Y-117682118D01*
X141503399Y-117682118D01*
X141346641Y-117702755D01*
X141346633Y-117702757D01*
X141200561Y-117763262D01*
X141200560Y-117763262D01*
X141075123Y-117859513D01*
X141075113Y-117859523D01*
X140978862Y-117984960D01*
X140978862Y-117984961D01*
X140918357Y-118131033D01*
X140918355Y-118131041D01*
X140897718Y-118287799D01*
X140897718Y-118287800D01*
X140918355Y-118444558D01*
X140918357Y-118444566D01*
X140978862Y-118590638D01*
X140978862Y-118590639D01*
X141074811Y-118715682D01*
X141075118Y-118716082D01*
X141200559Y-118812336D01*
X141200560Y-118812336D01*
X141200561Y-118812337D01*
X141320574Y-118862048D01*
X141346638Y-118872844D01*
X141464209Y-118888322D01*
X141503399Y-118893482D01*
X141503400Y-118893482D01*
X141503401Y-118893482D01*
X141534752Y-118889354D01*
X141660162Y-118872844D01*
X141738035Y-118840587D01*
X141799028Y-118835787D01*
X141845922Y-118862048D01*
X147600504Y-124616630D01*
X147628281Y-124671147D01*
X147629500Y-124686634D01*
X147629500Y-138794625D01*
X147629312Y-138798927D01*
X147625736Y-138839807D01*
X147629957Y-138855562D01*
X147636354Y-138879436D01*
X147637289Y-138883652D01*
X147644411Y-138924045D01*
X147645164Y-138925348D01*
X147655054Y-138949224D01*
X147655443Y-138950679D01*
X147655446Y-138950684D01*
X147678971Y-138984281D01*
X147681292Y-138987924D01*
X147701806Y-139023455D01*
X147733224Y-139049818D01*
X147736410Y-139052737D01*
X148701970Y-140018296D01*
X148729747Y-140072813D01*
X148720176Y-140133245D01*
X148676911Y-140176510D01*
X148631966Y-140187300D01*
X148562635Y-140187300D01*
X148504444Y-140168393D01*
X148492631Y-140158304D01*
X147420496Y-139086169D01*
X147392719Y-139031652D01*
X147391500Y-139016165D01*
X147391500Y-126508362D01*
X147391687Y-126504061D01*
X147395263Y-126463193D01*
X147384638Y-126423544D01*
X147383713Y-126419365D01*
X147376588Y-126378955D01*
X147376588Y-126378954D01*
X147375840Y-126377659D01*
X147365942Y-126353767D01*
X147365554Y-126352316D01*
X147342022Y-126318709D01*
X147339707Y-126315074D01*
X147328778Y-126296145D01*
X147319194Y-126279545D01*
X147287771Y-126253178D01*
X147284594Y-126250266D01*
X140094692Y-119060366D01*
X140066915Y-119005849D01*
X140066543Y-118977446D01*
X140077082Y-118897400D01*
X140056444Y-118740638D01*
X140046918Y-118717641D01*
X139995937Y-118594561D01*
X139995937Y-118594560D01*
X139899686Y-118469123D01*
X139899685Y-118469122D01*
X139899682Y-118469118D01*
X139899677Y-118469114D01*
X139899676Y-118469113D01*
X139826336Y-118412838D01*
X139774241Y-118372864D01*
X139774240Y-118372863D01*
X139774238Y-118372862D01*
X139628166Y-118312357D01*
X139628158Y-118312355D01*
X139471401Y-118291718D01*
X139471399Y-118291718D01*
X139314641Y-118312355D01*
X139314633Y-118312357D01*
X139168561Y-118372862D01*
X139168560Y-118372862D01*
X139043123Y-118469113D01*
X139043113Y-118469123D01*
X138946862Y-118594560D01*
X138946862Y-118594561D01*
X138886357Y-118740633D01*
X138886355Y-118740641D01*
X138865718Y-118897399D01*
X138865718Y-118897400D01*
X138886355Y-119054158D01*
X138886357Y-119054166D01*
X138946862Y-119200238D01*
X138946862Y-119200239D01*
X139023623Y-119300276D01*
X139043118Y-119325682D01*
X139043122Y-119325685D01*
X139043123Y-119325686D01*
X139058431Y-119337432D01*
X139168559Y-119421936D01*
X139168560Y-119421936D01*
X139168561Y-119421937D01*
X139305396Y-119478616D01*
X139314638Y-119482444D01*
X139471400Y-119503082D01*
X139551441Y-119492543D01*
X139611599Y-119503692D01*
X139634366Y-119520692D01*
X146711504Y-126597830D01*
X146739281Y-126652347D01*
X146740500Y-126667834D01*
X146740500Y-139175625D01*
X146740312Y-139179927D01*
X146738821Y-139196982D01*
X146736736Y-139220806D01*
X146747354Y-139260436D01*
X146748289Y-139264652D01*
X146755411Y-139305045D01*
X146756164Y-139306348D01*
X146766054Y-139330224D01*
X146766443Y-139331679D01*
X146766446Y-139331684D01*
X146789971Y-139365281D01*
X146792292Y-139368924D01*
X146812806Y-139404455D01*
X146844224Y-139430818D01*
X146847410Y-139433737D01*
X148145068Y-140731396D01*
X148147987Y-140734582D01*
X148174345Y-140765994D01*
X148209874Y-140786507D01*
X148213509Y-140788822D01*
X148247116Y-140812354D01*
X148248567Y-140812742D01*
X148272459Y-140822640D01*
X148273754Y-140823388D01*
X148282654Y-140824957D01*
X148314165Y-140830513D01*
X148318344Y-140831438D01*
X148357993Y-140842063D01*
X148398865Y-140838487D01*
X148403165Y-140838300D01*
X150679179Y-140838300D01*
X150737370Y-140857207D01*
X150753999Y-140872470D01*
X150773471Y-140894942D01*
X150773472Y-140894943D01*
X150890599Y-140970216D01*
X150929330Y-141017582D01*
X150932824Y-141078667D01*
X150899744Y-141130140D01*
X150842728Y-141152339D01*
X150837076Y-141152500D01*
X141907834Y-141152500D01*
X141849643Y-141133593D01*
X141837830Y-141123504D01*
X134861741Y-134147414D01*
X134858822Y-134144229D01*
X134832456Y-134112806D01*
X134809818Y-134099736D01*
X134796918Y-134092288D01*
X134793288Y-134089975D01*
X134759684Y-134066446D01*
X134759679Y-134066443D01*
X134758224Y-134066054D01*
X134734348Y-134056164D01*
X134733045Y-134055411D01*
X134692652Y-134048289D01*
X134688436Y-134047354D01*
X134662153Y-134040312D01*
X134648807Y-134036736D01*
X134648806Y-134036736D01*
X134644381Y-134037123D01*
X134607926Y-134040312D01*
X134603626Y-134040500D01*
X125901421Y-134040500D01*
X125843230Y-134021593D01*
X125826601Y-134006330D01*
X125807128Y-133983857D01*
X125807127Y-133983856D01*
X125686057Y-133906049D01*
X125686054Y-133906047D01*
X125686053Y-133906047D01*
X125686050Y-133906046D01*
X125547964Y-133865500D01*
X125547961Y-133865500D01*
X125404039Y-133865500D01*
X125404035Y-133865500D01*
X125265949Y-133906046D01*
X125265942Y-133906049D01*
X125144873Y-133983855D01*
X125050622Y-134092628D01*
X124990834Y-134223543D01*
X124970353Y-134365997D01*
X124970353Y-134366002D01*
X124990834Y-134508456D01*
X125028185Y-134590241D01*
X125050623Y-134639373D01*
X125134165Y-134735786D01*
X125144873Y-134748144D01*
X125256142Y-134819652D01*
X125265947Y-134825953D01*
X125372403Y-134857211D01*
X125404035Y-134866499D01*
X125404036Y-134866499D01*
X125404039Y-134866500D01*
X125404041Y-134866500D01*
X125547959Y-134866500D01*
X125547961Y-134866500D01*
X125686053Y-134825953D01*
X125807128Y-134748143D01*
X125826601Y-134725670D01*
X125878997Y-134694073D01*
X125901421Y-134691500D01*
X134444166Y-134691500D01*
X134502357Y-134710407D01*
X134514170Y-134720496D01*
X141490257Y-141696584D01*
X141493175Y-141699769D01*
X141519546Y-141731196D01*
X141526180Y-141736762D01*
X141524823Y-141738378D01*
X141558008Y-141775233D01*
X141564404Y-141836083D01*
X141533811Y-141889071D01*
X141477916Y-141913958D01*
X141467567Y-141914500D01*
X140891834Y-141914500D01*
X140833643Y-141895593D01*
X140821830Y-141885504D01*
X135623741Y-136687414D01*
X135620822Y-136684229D01*
X135594456Y-136652806D01*
X135571818Y-136639736D01*
X135558918Y-136632288D01*
X135555288Y-136629975D01*
X135521684Y-136606446D01*
X135521679Y-136606443D01*
X135520224Y-136606054D01*
X135496348Y-136596164D01*
X135495045Y-136595411D01*
X135454652Y-136588289D01*
X135450436Y-136587354D01*
X135424153Y-136580312D01*
X135410807Y-136576736D01*
X135410806Y-136576736D01*
X135406381Y-136577123D01*
X135369926Y-136580312D01*
X135365626Y-136580500D01*
X123056621Y-136580500D01*
X122998430Y-136561593D01*
X122981801Y-136546330D01*
X122962328Y-136523857D01*
X122962327Y-136523856D01*
X122841257Y-136446049D01*
X122841254Y-136446047D01*
X122841253Y-136446047D01*
X122841250Y-136446046D01*
X122703164Y-136405500D01*
X122703161Y-136405500D01*
X122559239Y-136405500D01*
X122559235Y-136405500D01*
X122421149Y-136446046D01*
X122421142Y-136446049D01*
X122300073Y-136523855D01*
X122205822Y-136632628D01*
X122146034Y-136763543D01*
X122125553Y-136905997D01*
X122125553Y-136906002D01*
X121229500Y-136906002D01*
X121229500Y-135049834D01*
X121248407Y-134991643D01*
X121258496Y-134979830D01*
X124666326Y-131572000D01*
X136300318Y-131572000D01*
X136320955Y-131728758D01*
X136320957Y-131728766D01*
X136381462Y-131874838D01*
X136381462Y-131874839D01*
X136381464Y-131874841D01*
X136477718Y-132000282D01*
X136603159Y-132096536D01*
X136749238Y-132157044D01*
X136906000Y-132177682D01*
X136954799Y-132171257D01*
X137014958Y-132182407D01*
X137037724Y-132199406D01*
X139800199Y-134961881D01*
X139813074Y-134977737D01*
X139819563Y-134987669D01*
X139846110Y-135008332D01*
X139850708Y-135012392D01*
X139853690Y-135015373D01*
X139853693Y-135015375D01*
X139871438Y-135028044D01*
X139911874Y-135059517D01*
X139911878Y-135059518D01*
X139918354Y-135063022D01*
X139924934Y-135066240D01*
X139974045Y-135080861D01*
X140022512Y-135097500D01*
X140022516Y-135097500D01*
X140029736Y-135098705D01*
X140037039Y-135099615D01*
X140037046Y-135099617D01*
X140088231Y-135097500D01*
X142657750Y-135097500D01*
X142715941Y-135116407D01*
X142736291Y-135136232D01*
X142766255Y-135175282D01*
X142891696Y-135271536D01*
X143037775Y-135332044D01*
X143155346Y-135347522D01*
X143194536Y-135352682D01*
X143194537Y-135352682D01*
X143194538Y-135352682D01*
X143225889Y-135348554D01*
X143351299Y-135332044D01*
X143497378Y-135271536D01*
X143622819Y-135175282D01*
X143719073Y-135049841D01*
X143719074Y-135049839D01*
X143719077Y-135049834D01*
X143765198Y-134938485D01*
X143779581Y-134903762D01*
X143800219Y-134747000D01*
X143779581Y-134590238D01*
X143750839Y-134520849D01*
X143719074Y-134444161D01*
X143719074Y-134444160D01*
X143622823Y-134318723D01*
X143622822Y-134318722D01*
X143622819Y-134318718D01*
X143622814Y-134318714D01*
X143622813Y-134318713D01*
X143549768Y-134262664D01*
X143497378Y-134222464D01*
X143497377Y-134222463D01*
X143497375Y-134222462D01*
X143351303Y-134161957D01*
X143351295Y-134161955D01*
X143194538Y-134141318D01*
X143194536Y-134141318D01*
X143037778Y-134161955D01*
X143037770Y-134161957D01*
X142891698Y-134222462D01*
X142891697Y-134222462D01*
X142766260Y-134318713D01*
X142766251Y-134318722D01*
X142736292Y-134357767D01*
X142685868Y-134392423D01*
X142657750Y-134396500D01*
X140267190Y-134396500D01*
X140208999Y-134377593D01*
X140197186Y-134367504D01*
X137533406Y-131703724D01*
X137505629Y-131649207D01*
X137505257Y-131620802D01*
X137511682Y-131572000D01*
X137491044Y-131415238D01*
X137430537Y-131269161D01*
X137430537Y-131269160D01*
X137334286Y-131143723D01*
X137334285Y-131143722D01*
X137334282Y-131143718D01*
X137334277Y-131143714D01*
X137334276Y-131143713D01*
X137208838Y-131047462D01*
X137062766Y-130986957D01*
X137062758Y-130986955D01*
X136906001Y-130966318D01*
X136905999Y-130966318D01*
X136749241Y-130986955D01*
X136749233Y-130986957D01*
X136603161Y-131047462D01*
X136603160Y-131047462D01*
X136477723Y-131143713D01*
X136477713Y-131143723D01*
X136381462Y-131269160D01*
X136381462Y-131269161D01*
X136320957Y-131415233D01*
X136320955Y-131415241D01*
X136300318Y-131571999D01*
X136300318Y-131572000D01*
X124666326Y-131572000D01*
X127206326Y-129032000D01*
X139856318Y-129032000D01*
X139876955Y-129188758D01*
X139876957Y-129188766D01*
X139937462Y-129334838D01*
X139937462Y-129334839D01*
X140030626Y-129456253D01*
X140033718Y-129460282D01*
X140159159Y-129556536D01*
X140305238Y-129617044D01*
X140462000Y-129637682D01*
X140510799Y-129631257D01*
X140570958Y-129642407D01*
X140593724Y-129659406D01*
X145114057Y-134179739D01*
X145141834Y-134234256D01*
X145142206Y-134262664D01*
X145128855Y-134364085D01*
X145128855Y-134364087D01*
X145149492Y-134520845D01*
X145149494Y-134520853D01*
X145209999Y-134666925D01*
X145209999Y-134666926D01*
X145306250Y-134792363D01*
X145306255Y-134792369D01*
X145431696Y-134888623D01*
X145431697Y-134888623D01*
X145431698Y-134888624D01*
X145468254Y-134903766D01*
X145577775Y-134949131D01*
X145695346Y-134964609D01*
X145734536Y-134969769D01*
X145734537Y-134969769D01*
X145734538Y-134969769D01*
X145765889Y-134965641D01*
X145891299Y-134949131D01*
X146037378Y-134888623D01*
X146162819Y-134792369D01*
X146259073Y-134666928D01*
X146319581Y-134520849D01*
X146340219Y-134364087D01*
X146319581Y-134207325D01*
X146319579Y-134207320D01*
X146259074Y-134061248D01*
X146259074Y-134061247D01*
X146162823Y-133935810D01*
X146162822Y-133935809D01*
X146162819Y-133935805D01*
X146162814Y-133935801D01*
X146162813Y-133935800D01*
X146037375Y-133839549D01*
X145891303Y-133779044D01*
X145891295Y-133779042D01*
X145734538Y-133758405D01*
X145728049Y-133758405D01*
X145728049Y-133755996D01*
X145678175Y-133746738D01*
X145655434Y-133729752D01*
X141089406Y-129163724D01*
X141061629Y-129109207D01*
X141061257Y-129080802D01*
X141067682Y-129032000D01*
X141047044Y-128875238D01*
X140986537Y-128729161D01*
X140986537Y-128729160D01*
X140890286Y-128603723D01*
X140890285Y-128603722D01*
X140890282Y-128603718D01*
X140890277Y-128603714D01*
X140890276Y-128603713D01*
X140819104Y-128549101D01*
X140764841Y-128507464D01*
X140764840Y-128507463D01*
X140764838Y-128507462D01*
X140618766Y-128446957D01*
X140618758Y-128446955D01*
X140462001Y-128426318D01*
X140461999Y-128426318D01*
X140305241Y-128446955D01*
X140305233Y-128446957D01*
X140159161Y-128507462D01*
X140159160Y-128507462D01*
X140033723Y-128603713D01*
X140033713Y-128603723D01*
X139937462Y-128729160D01*
X139937462Y-128729161D01*
X139876957Y-128875233D01*
X139876955Y-128875241D01*
X139856318Y-129031999D01*
X139856318Y-129032000D01*
X127206326Y-129032000D01*
X134340695Y-121897631D01*
X147435620Y-108802705D01*
X147456310Y-108788571D01*
X147455873Y-108787903D01*
X147462741Y-108783416D01*
X147560669Y-108719437D01*
X147632517Y-108627126D01*
X147670500Y-108516488D01*
X147670500Y-99850787D01*
X147689407Y-99792596D01*
X147709233Y-99772245D01*
X147722943Y-99761725D01*
X147748282Y-99742282D01*
X147844536Y-99616841D01*
X147905044Y-99470762D01*
X147925682Y-99314000D01*
X147905044Y-99157238D01*
X147864766Y-99059998D01*
X147844537Y-99011161D01*
X147844537Y-99011160D01*
X147748286Y-98885723D01*
X147748285Y-98885722D01*
X147748282Y-98885718D01*
X147748277Y-98885714D01*
X147748276Y-98885713D01*
X147622838Y-98789462D01*
X147476766Y-98728957D01*
X147476758Y-98728955D01*
X147320001Y-98708318D01*
X147319999Y-98708318D01*
X147163241Y-98728955D01*
X147163233Y-98728957D01*
X147017161Y-98789462D01*
X147017160Y-98789462D01*
X146891723Y-98885713D01*
X146891713Y-98885723D01*
X146795462Y-99011160D01*
X146795462Y-99011161D01*
X146734957Y-99157233D01*
X146734955Y-99157241D01*
X146714318Y-99313999D01*
X146714318Y-99314000D01*
X146734955Y-99470758D01*
X146734957Y-99470766D01*
X146795462Y-99616838D01*
X146795462Y-99616839D01*
X146795464Y-99616841D01*
X146891718Y-99742282D01*
X146891722Y-99742285D01*
X146930767Y-99772245D01*
X146965423Y-99822669D01*
X146969500Y-99850787D01*
X146969500Y-101480308D01*
X146950593Y-101538499D01*
X146901093Y-101574463D01*
X146839907Y-101574463D01*
X146832614Y-101571772D01*
X146794110Y-101555823D01*
X146714762Y-101522956D01*
X146714760Y-101522955D01*
X146714758Y-101522955D01*
X146558001Y-101502318D01*
X146557999Y-101502318D01*
X146401241Y-101522955D01*
X146401233Y-101522957D01*
X146255161Y-101583462D01*
X146255160Y-101583462D01*
X146129723Y-101679713D01*
X146129713Y-101679723D01*
X146033462Y-101805160D01*
X146033462Y-101805161D01*
X145972957Y-101951233D01*
X145972955Y-101951241D01*
X145952318Y-102107999D01*
X145952318Y-102108000D01*
X145972955Y-102264758D01*
X145972957Y-102264766D01*
X146033462Y-102410838D01*
X146033462Y-102410839D01*
X146113841Y-102515591D01*
X146129718Y-102536282D01*
X146129722Y-102536285D01*
X146168767Y-102566245D01*
X146203423Y-102616669D01*
X146207500Y-102644787D01*
X146207500Y-106493809D01*
X146188593Y-106552000D01*
X146178504Y-106563813D01*
X114557118Y-138185198D01*
X114541265Y-138198071D01*
X114531335Y-138204559D01*
X114531332Y-138204561D01*
X114510664Y-138231114D01*
X114506605Y-138235712D01*
X114503619Y-138238698D01*
X114490955Y-138256437D01*
X114459483Y-138296874D01*
X114455981Y-138303343D01*
X114452758Y-138309936D01*
X114438138Y-138359045D01*
X114421499Y-138407512D01*
X114420293Y-138414743D01*
X114419383Y-138422047D01*
X114421500Y-138473231D01*
X114421500Y-147930530D01*
X114402593Y-147988721D01*
X114358263Y-148022845D01*
X114316051Y-148039198D01*
X114234599Y-148070753D01*
X114045438Y-148187876D01*
X113881020Y-148337763D01*
X113746943Y-148515309D01*
X113746938Y-148515318D01*
X113647772Y-148714469D01*
X113647771Y-148714472D01*
X113586885Y-148928464D01*
X113566357Y-149150000D01*
X111777140Y-149150000D01*
X111756613Y-148902263D01*
X111695587Y-148661280D01*
X111595734Y-148433636D01*
X111595729Y-148433627D01*
X111495435Y-148280117D01*
X110797929Y-148977622D01*
X110795116Y-148964085D01*
X110725558Y-148829844D01*
X110622362Y-148719348D01*
X110493181Y-148640791D01*
X110441994Y-148626449D01*
X111142056Y-147926388D01*
X111095232Y-147889945D01*
X110876611Y-147771633D01*
X110641486Y-147690915D01*
X110396294Y-147650000D01*
X110147706Y-147650000D01*
X109902513Y-147690915D01*
X109667388Y-147771633D01*
X109448765Y-147889947D01*
X109448764Y-147889947D01*
X109401942Y-147926388D01*
X110100432Y-148624878D01*
X109983542Y-148675651D01*
X109866261Y-148771066D01*
X109779072Y-148894585D01*
X109748644Y-148980198D01*
X109048564Y-148280118D01*
X108948268Y-148433632D01*
X108848412Y-148661283D01*
X108787386Y-148902263D01*
X108766859Y-149150000D01*
X102551681Y-149150000D01*
X113019089Y-138682592D01*
X145156275Y-106545404D01*
X145210790Y-106517629D01*
X145239200Y-106517257D01*
X145242026Y-106517629D01*
X145288000Y-106523682D01*
X145444762Y-106503044D01*
X145590841Y-106442536D01*
X145716282Y-106346282D01*
X145812536Y-106220841D01*
X145873044Y-106074762D01*
X145893682Y-105918000D01*
X145873044Y-105761238D01*
X145812537Y-105615161D01*
X145812537Y-105615160D01*
X145716286Y-105489723D01*
X145716285Y-105489722D01*
X145716282Y-105489718D01*
X145716277Y-105489714D01*
X145716276Y-105489713D01*
X145590838Y-105393462D01*
X145444766Y-105332957D01*
X145444758Y-105332955D01*
X145288001Y-105312318D01*
X145287999Y-105312318D01*
X145131241Y-105332955D01*
X145131233Y-105332957D01*
X144985161Y-105393462D01*
X144985160Y-105393462D01*
X144859723Y-105489713D01*
X144859713Y-105489723D01*
X144763462Y-105615160D01*
X144763462Y-105615161D01*
X144702957Y-105761233D01*
X144702955Y-105761241D01*
X144682318Y-105917999D01*
X144682318Y-105918000D01*
X144688742Y-105966798D01*
X144677592Y-106026959D01*
X144660593Y-106049724D01*
X101939814Y-148770504D01*
X101885297Y-148798281D01*
X101869810Y-148799500D01*
X95929183Y-148799500D01*
X95870992Y-148780593D01*
X95835028Y-148731093D01*
X95833963Y-148727594D01*
X95830229Y-148714473D01*
X95830227Y-148714469D01*
X95731058Y-148515311D01*
X95596981Y-148337764D01*
X95432562Y-148187876D01*
X95243401Y-148070753D01*
X95035940Y-147990382D01*
X95035939Y-147990381D01*
X95035937Y-147990381D01*
X94817243Y-147949500D01*
X94594757Y-147949500D01*
X94376062Y-147990381D01*
X94355500Y-147998347D01*
X94168599Y-148070753D01*
X93979438Y-148187876D01*
X93815020Y-148337763D01*
X93680943Y-148515309D01*
X93680938Y-148515318D01*
X93581772Y-148714469D01*
X93581771Y-148714472D01*
X93520885Y-148928464D01*
X93500357Y-149150000D01*
X91711140Y-149150000D01*
X91690613Y-148902263D01*
X91629587Y-148661280D01*
X91529734Y-148433636D01*
X91529729Y-148433627D01*
X91429435Y-148280117D01*
X90731929Y-148977622D01*
X90729116Y-148964085D01*
X90659558Y-148829844D01*
X90556362Y-148719348D01*
X90427181Y-148640791D01*
X90375994Y-148626449D01*
X91076056Y-147926388D01*
X91029232Y-147889945D01*
X90810611Y-147771633D01*
X90575486Y-147690915D01*
X90330294Y-147650000D01*
X90081706Y-147650000D01*
X89836513Y-147690915D01*
X89601388Y-147771633D01*
X89382765Y-147889947D01*
X89382764Y-147889947D01*
X89335942Y-147926388D01*
X90034432Y-148624878D01*
X89917542Y-148675651D01*
X89800261Y-148771066D01*
X89713072Y-148894585D01*
X89682644Y-148980198D01*
X88982564Y-148280118D01*
X88882268Y-148433632D01*
X88782412Y-148661283D01*
X88721386Y-148902263D01*
X88700859Y-149150000D01*
X67510500Y-149150000D01*
X67510500Y-131195746D01*
X114265500Y-131195746D01*
X114265501Y-131195758D01*
X114277132Y-131254227D01*
X114277134Y-131254233D01*
X114287108Y-131269160D01*
X114321448Y-131320552D01*
X114387769Y-131364867D01*
X114432231Y-131373711D01*
X114446241Y-131376498D01*
X114446246Y-131376498D01*
X114446252Y-131376500D01*
X114446253Y-131376500D01*
X116185747Y-131376500D01*
X116185748Y-131376500D01*
X116244231Y-131364867D01*
X116310552Y-131320552D01*
X116354867Y-131254231D01*
X116366500Y-131195748D01*
X116366500Y-129456252D01*
X116354867Y-129397769D01*
X116310552Y-129331448D01*
X116310548Y-129331445D01*
X116244233Y-129287134D01*
X116244231Y-129287133D01*
X116244228Y-129287132D01*
X116244227Y-129287132D01*
X116185758Y-129275501D01*
X116185748Y-129275500D01*
X114446252Y-129275500D01*
X114446251Y-129275500D01*
X114446241Y-129275501D01*
X114387772Y-129287132D01*
X114387766Y-129287134D01*
X114321451Y-129331445D01*
X114321445Y-129331451D01*
X114277134Y-129397766D01*
X114277132Y-129397772D01*
X114265501Y-129456241D01*
X114265500Y-129456253D01*
X114265500Y-131195746D01*
X67510500Y-131195746D01*
X67510500Y-122956000D01*
X113985364Y-122956000D01*
X114042569Y-123169489D01*
X114142399Y-123383577D01*
X114277886Y-123577073D01*
X114444926Y-123744113D01*
X114638422Y-123879600D01*
X114852509Y-123979430D01*
X115059213Y-124034816D01*
X115110527Y-124068140D01*
X115132454Y-124125261D01*
X115116619Y-124184362D01*
X115069069Y-124222867D01*
X115062329Y-124225180D01*
X114998001Y-124244694D01*
X114912046Y-124270768D01*
X114912044Y-124270768D01*
X114912044Y-124270769D01*
X114729547Y-124368316D01*
X114569595Y-124499585D01*
X114569585Y-124499595D01*
X114438316Y-124659547D01*
X114340768Y-124842045D01*
X114280699Y-125040065D01*
X114280698Y-125040070D01*
X114260417Y-125245996D01*
X114260417Y-125246003D01*
X114280698Y-125451929D01*
X114280699Y-125451934D01*
X114340768Y-125649954D01*
X114438316Y-125832452D01*
X114569585Y-125992404D01*
X114569590Y-125992410D01*
X114569595Y-125992414D01*
X114729547Y-126123683D01*
X114729548Y-126123683D01*
X114729550Y-126123685D01*
X114912046Y-126221232D01*
X115049997Y-126263078D01*
X115110065Y-126281300D01*
X115110070Y-126281301D01*
X115315997Y-126301583D01*
X115316000Y-126301583D01*
X115316003Y-126301583D01*
X115521929Y-126281301D01*
X115521934Y-126281300D01*
X115719954Y-126221232D01*
X115902450Y-126123685D01*
X116062410Y-125992410D01*
X116193685Y-125832450D01*
X116291232Y-125649954D01*
X116293413Y-125642763D01*
X116328395Y-125592567D01*
X116386203Y-125572519D01*
X116388150Y-125572500D01*
X119460381Y-125572500D01*
X119480696Y-125574607D01*
X119482844Y-125575057D01*
X119492315Y-125577043D01*
X119525712Y-125572879D01*
X119531837Y-125572500D01*
X119536041Y-125572500D01*
X119546790Y-125570706D01*
X119557540Y-125568912D01*
X119608393Y-125562573D01*
X119608396Y-125562571D01*
X119615429Y-125560477D01*
X119622377Y-125558092D01*
X119622381Y-125558092D01*
X119667444Y-125533704D01*
X119713484Y-125511198D01*
X119719470Y-125506923D01*
X119725256Y-125502420D01*
X119759957Y-125464724D01*
X120608051Y-124616630D01*
X123327050Y-121897629D01*
X123381565Y-121869854D01*
X123409974Y-121869482D01*
X123414235Y-121870043D01*
X123414238Y-121870044D01*
X123571000Y-121890682D01*
X123571001Y-121890682D01*
X123602352Y-121886554D01*
X123727762Y-121870044D01*
X123845614Y-121821227D01*
X123906611Y-121816427D01*
X123958780Y-121848397D01*
X123982195Y-121904925D01*
X123982500Y-121912692D01*
X123982500Y-122495810D01*
X123963593Y-122554001D01*
X123953504Y-122565814D01*
X119112814Y-127406504D01*
X119058297Y-127434281D01*
X119042810Y-127435500D01*
X116379142Y-127435500D01*
X116320951Y-127416593D01*
X116291832Y-127383169D01*
X116207267Y-127224960D01*
X116193685Y-127199550D01*
X116190371Y-127195512D01*
X116062414Y-127039595D01*
X116062410Y-127039590D01*
X116062404Y-127039585D01*
X115902452Y-126908316D01*
X115719954Y-126810768D01*
X115521934Y-126750699D01*
X115521929Y-126750698D01*
X115316003Y-126730417D01*
X115315997Y-126730417D01*
X115110070Y-126750698D01*
X115110065Y-126750699D01*
X114912045Y-126810768D01*
X114729547Y-126908316D01*
X114569595Y-127039585D01*
X114569585Y-127039595D01*
X114438316Y-127199547D01*
X114340768Y-127382045D01*
X114280699Y-127580065D01*
X114280698Y-127580070D01*
X114260417Y-127785996D01*
X114260417Y-127786003D01*
X114280698Y-127991929D01*
X114280699Y-127991934D01*
X114340768Y-128189954D01*
X114438316Y-128372452D01*
X114482523Y-128426318D01*
X114569590Y-128532410D01*
X114569595Y-128532414D01*
X114729547Y-128663683D01*
X114729548Y-128663683D01*
X114729550Y-128663685D01*
X114912046Y-128761232D01*
X115049997Y-128803078D01*
X115110065Y-128821300D01*
X115110070Y-128821301D01*
X115315997Y-128841583D01*
X115316000Y-128841583D01*
X115316003Y-128841583D01*
X115521929Y-128821301D01*
X115521934Y-128821300D01*
X115719954Y-128761232D01*
X115902450Y-128663685D01*
X116062410Y-128532410D01*
X116193685Y-128372450D01*
X116291232Y-128189954D01*
X116291232Y-128189952D01*
X116291832Y-128188831D01*
X116335938Y-128146425D01*
X116379142Y-128136500D01*
X119182381Y-128136500D01*
X119202696Y-128138607D01*
X119204844Y-128139057D01*
X119214315Y-128141043D01*
X119247712Y-128136879D01*
X119253837Y-128136500D01*
X119258041Y-128136500D01*
X119268790Y-128134706D01*
X119279540Y-128132912D01*
X119330393Y-128126573D01*
X119330396Y-128126571D01*
X119337429Y-128124477D01*
X119344377Y-128122092D01*
X119344381Y-128122092D01*
X119389444Y-128097704D01*
X119435484Y-128075198D01*
X119441470Y-128070923D01*
X119447256Y-128066420D01*
X119481957Y-128028724D01*
X122008263Y-125502418D01*
X124547884Y-122962796D01*
X124563734Y-122949926D01*
X124573669Y-122943437D01*
X124594338Y-122916879D01*
X124598388Y-122912292D01*
X124601375Y-122909307D01*
X124614044Y-122891561D01*
X124645517Y-122851126D01*
X124645518Y-122851120D01*
X124649023Y-122844645D01*
X124652239Y-122838067D01*
X124652238Y-122838067D01*
X124652240Y-122838066D01*
X124666861Y-122788954D01*
X124683500Y-122740488D01*
X124683500Y-122740483D01*
X124684707Y-122733254D01*
X124685617Y-122725954D01*
X124683500Y-122674769D01*
X124683500Y-117884787D01*
X124702407Y-117826596D01*
X124722233Y-117806245D01*
X124761282Y-117776282D01*
X124857536Y-117650841D01*
X124918044Y-117504762D01*
X124938682Y-117348000D01*
X124918044Y-117191238D01*
X124857537Y-117045161D01*
X124857537Y-117045160D01*
X124761286Y-116919723D01*
X124761285Y-116919722D01*
X124761282Y-116919718D01*
X124761277Y-116919714D01*
X124761276Y-116919713D01*
X124635838Y-116823462D01*
X124489766Y-116762957D01*
X124489758Y-116762955D01*
X124333001Y-116742318D01*
X124332999Y-116742318D01*
X124176241Y-116762955D01*
X124176233Y-116762957D01*
X124030161Y-116823462D01*
X124030160Y-116823462D01*
X123904723Y-116919713D01*
X123904713Y-116919723D01*
X123808462Y-117045160D01*
X123808462Y-117045161D01*
X123747957Y-117191233D01*
X123747955Y-117191241D01*
X123727318Y-117347999D01*
X123727318Y-117348000D01*
X123747955Y-117504758D01*
X123747957Y-117504766D01*
X123808462Y-117650838D01*
X123808462Y-117650839D01*
X123894727Y-117763262D01*
X123904718Y-117776282D01*
X123904722Y-117776285D01*
X123943767Y-117806245D01*
X123978423Y-117856669D01*
X123982500Y-117884787D01*
X123982500Y-120657308D01*
X123963593Y-120715499D01*
X123914093Y-120751463D01*
X123852907Y-120751463D01*
X123845614Y-120748772D01*
X123727764Y-120699957D01*
X123727766Y-120699957D01*
X123727762Y-120699956D01*
X123727760Y-120699955D01*
X123727758Y-120699955D01*
X123571001Y-120679318D01*
X123570999Y-120679318D01*
X123414241Y-120699955D01*
X123414233Y-120699957D01*
X123268161Y-120760462D01*
X123268160Y-120760462D01*
X123142723Y-120856713D01*
X123142713Y-120856723D01*
X123046462Y-120982160D01*
X123046462Y-120982161D01*
X122985956Y-121128237D01*
X122972281Y-121232103D01*
X122945939Y-121287328D01*
X122944132Y-121289184D01*
X119390814Y-124842504D01*
X119336297Y-124870281D01*
X119320810Y-124871500D01*
X116366314Y-124871500D01*
X116308123Y-124852593D01*
X116279004Y-124819169D01*
X116208162Y-124686634D01*
X116193685Y-124659550D01*
X116062410Y-124499590D01*
X115990133Y-124440274D01*
X115902452Y-124368316D01*
X115719954Y-124270768D01*
X115569671Y-124225180D01*
X115519474Y-124190195D01*
X115499428Y-124132387D01*
X115517189Y-124073836D01*
X115565974Y-124036907D01*
X115572786Y-124034816D01*
X115779490Y-123979430D01*
X115993577Y-123879600D01*
X116187073Y-123744113D01*
X116354113Y-123577073D01*
X116489600Y-123383577D01*
X116589430Y-123169489D01*
X116646636Y-122956000D01*
X115749686Y-122956000D01*
X115775493Y-122915844D01*
X115816000Y-122777889D01*
X115816000Y-122634111D01*
X115775493Y-122496156D01*
X115749686Y-122456000D01*
X116646636Y-122456000D01*
X116589429Y-122242505D01*
X116489605Y-122028432D01*
X116489601Y-122028424D01*
X116354113Y-121834926D01*
X116187073Y-121667886D01*
X115993577Y-121532399D01*
X115779489Y-121432569D01*
X115566000Y-121375364D01*
X115566000Y-122270498D01*
X115458315Y-122221320D01*
X115351763Y-122206000D01*
X115280237Y-122206000D01*
X115173685Y-122221320D01*
X115066000Y-122270498D01*
X115066000Y-121375364D01*
X114852505Y-121432570D01*
X114638432Y-121532394D01*
X114638424Y-121532398D01*
X114444926Y-121667886D01*
X114277886Y-121834926D01*
X114142398Y-122028424D01*
X114142394Y-122028432D01*
X114042570Y-122242505D01*
X113985364Y-122456000D01*
X114882314Y-122456000D01*
X114856507Y-122496156D01*
X114816000Y-122634111D01*
X114816000Y-122777889D01*
X114856507Y-122915844D01*
X114882314Y-122956000D01*
X113985364Y-122956000D01*
X67510500Y-122956000D01*
X67510500Y-120015003D01*
X99909417Y-120015003D01*
X99929698Y-120220929D01*
X99929699Y-120220934D01*
X99989768Y-120418954D01*
X100087316Y-120601452D01*
X100208211Y-120748763D01*
X100218590Y-120761410D01*
X100218595Y-120761414D01*
X100378547Y-120892683D01*
X100378548Y-120892683D01*
X100378550Y-120892685D01*
X100561046Y-120990232D01*
X100698997Y-121032078D01*
X100759065Y-121050300D01*
X100759070Y-121050301D01*
X100964997Y-121070583D01*
X100965000Y-121070583D01*
X100965003Y-121070583D01*
X101170929Y-121050301D01*
X101170934Y-121050300D01*
X101368954Y-120990232D01*
X101551450Y-120892685D01*
X101711410Y-120761410D01*
X101842685Y-120601450D01*
X101940232Y-120418954D01*
X101985819Y-120268670D01*
X102020804Y-120218474D01*
X102078612Y-120198428D01*
X102137163Y-120216189D01*
X102174092Y-120264973D01*
X102176183Y-120271786D01*
X102231569Y-120478489D01*
X102331399Y-120692577D01*
X102466886Y-120886073D01*
X102633926Y-121053113D01*
X102827422Y-121188600D01*
X103041509Y-121288430D01*
X103255000Y-121345634D01*
X103255000Y-120450501D01*
X103362685Y-120499680D01*
X103469237Y-120515000D01*
X103540763Y-120515000D01*
X103647315Y-120499680D01*
X103755000Y-120450501D01*
X103755000Y-121345633D01*
X103968490Y-121288430D01*
X104182577Y-121188600D01*
X104376073Y-121053113D01*
X104543113Y-120886073D01*
X104678600Y-120692577D01*
X104778430Y-120478490D01*
X104799873Y-120398466D01*
X104833197Y-120347152D01*
X104890318Y-120325225D01*
X104949419Y-120341060D01*
X104987924Y-120388610D01*
X104994500Y-120424089D01*
X104994500Y-120884746D01*
X104994501Y-120884758D01*
X105006132Y-120943227D01*
X105006134Y-120943233D01*
X105050445Y-121009548D01*
X105050448Y-121009552D01*
X105116769Y-121053867D01*
X105161231Y-121062711D01*
X105175241Y-121065498D01*
X105175246Y-121065498D01*
X105175252Y-121065500D01*
X105175253Y-121065500D01*
X106914747Y-121065500D01*
X106914748Y-121065500D01*
X106973231Y-121053867D01*
X107039552Y-121009552D01*
X107083867Y-120943231D01*
X107095500Y-120884748D01*
X107095500Y-119145252D01*
X107093921Y-119137316D01*
X107092711Y-119131231D01*
X107083867Y-119086769D01*
X107039552Y-119020448D01*
X107039548Y-119020445D01*
X106973233Y-118976134D01*
X106973231Y-118976133D01*
X106973228Y-118976132D01*
X106973227Y-118976132D01*
X106914758Y-118964501D01*
X106914748Y-118964500D01*
X105175252Y-118964500D01*
X105175251Y-118964500D01*
X105175241Y-118964501D01*
X105116772Y-118976132D01*
X105116766Y-118976134D01*
X105050451Y-119020445D01*
X105050445Y-119020451D01*
X105006134Y-119086766D01*
X105006132Y-119086772D01*
X104994501Y-119145241D01*
X104994500Y-119145253D01*
X104994500Y-119605910D01*
X104975593Y-119664101D01*
X104926093Y-119700065D01*
X104864907Y-119700065D01*
X104815407Y-119664101D01*
X104799873Y-119631533D01*
X104778429Y-119551505D01*
X104678605Y-119337432D01*
X104678601Y-119337424D01*
X104543113Y-119143926D01*
X104376073Y-118976886D01*
X104182577Y-118841399D01*
X103968489Y-118741569D01*
X103755000Y-118684364D01*
X103755000Y-119579498D01*
X103647315Y-119530320D01*
X103540763Y-119515000D01*
X103469237Y-119515000D01*
X103362685Y-119530320D01*
X103255000Y-119579498D01*
X103255000Y-118684364D01*
X103041505Y-118741570D01*
X102827432Y-118841394D01*
X102827424Y-118841398D01*
X102633926Y-118976886D01*
X102466886Y-119143926D01*
X102331398Y-119337424D01*
X102331394Y-119337432D01*
X102231570Y-119551505D01*
X102176183Y-119758213D01*
X102142859Y-119809527D01*
X102085737Y-119831454D01*
X102026637Y-119815618D01*
X101988132Y-119768068D01*
X101985819Y-119761328D01*
X101962423Y-119684202D01*
X101940232Y-119611046D01*
X101842685Y-119428550D01*
X101837257Y-119421936D01*
X101711414Y-119268595D01*
X101711410Y-119268590D01*
X101711404Y-119268585D01*
X101551452Y-119137316D01*
X101368954Y-119039768D01*
X101170934Y-118979699D01*
X101170929Y-118979698D01*
X100965003Y-118959417D01*
X100964997Y-118959417D01*
X100759070Y-118979698D01*
X100759065Y-118979699D01*
X100561045Y-119039768D01*
X100378547Y-119137316D01*
X100218595Y-119268585D01*
X100218585Y-119268595D01*
X100087316Y-119428547D01*
X99989768Y-119611045D01*
X99929699Y-119809065D01*
X99929698Y-119809070D01*
X99909417Y-120014996D01*
X99909417Y-120015003D01*
X67510500Y-120015003D01*
X67510500Y-115445400D01*
X73433746Y-115445400D01*
X73443746Y-115655330D01*
X73443747Y-115655337D01*
X73493295Y-115859573D01*
X73493300Y-115859586D01*
X73580602Y-116050751D01*
X73580604Y-116050754D01*
X73702511Y-116221949D01*
X73702513Y-116221951D01*
X73702514Y-116221952D01*
X73854622Y-116366986D01*
X74031428Y-116480613D01*
X74226543Y-116558725D01*
X74432915Y-116598500D01*
X74432918Y-116598500D01*
X76390425Y-116598500D01*
X76547218Y-116583528D01*
X76748875Y-116524316D01*
X76935682Y-116428011D01*
X77100886Y-116298092D01*
X77238519Y-116139256D01*
X77343604Y-115957244D01*
X77412344Y-115758633D01*
X77442254Y-115550602D01*
X77432254Y-115340670D01*
X77382704Y-115136424D01*
X77338102Y-115038760D01*
X77295397Y-114945248D01*
X77295395Y-114945245D01*
X77173488Y-114774050D01*
X77093631Y-114697907D01*
X77021378Y-114629014D01*
X76844572Y-114515387D01*
X76844569Y-114515386D01*
X76844568Y-114515385D01*
X76735409Y-114471685D01*
X76649457Y-114437275D01*
X76443085Y-114397500D01*
X74485575Y-114397500D01*
X74328781Y-114412472D01*
X74127120Y-114471685D01*
X73940320Y-114567987D01*
X73940317Y-114567989D01*
X73775113Y-114697907D01*
X73637480Y-114856744D01*
X73532397Y-115038753D01*
X73532394Y-115038760D01*
X73463657Y-115237362D01*
X73463655Y-115237368D01*
X73433746Y-115445393D01*
X73433746Y-115445400D01*
X67510500Y-115445400D01*
X67510500Y-111437999D01*
X73138000Y-111437999D01*
X73138001Y-111438000D01*
X74892118Y-111438000D01*
X74853444Y-111531369D01*
X74832823Y-111688000D01*
X74853444Y-111844631D01*
X74892118Y-111938000D01*
X73138002Y-111938000D01*
X73138001Y-111938001D01*
X73138001Y-112387986D01*
X73148492Y-112490687D01*
X73148495Y-112490699D01*
X73203643Y-112657124D01*
X73295680Y-112806340D01*
X73419659Y-112930319D01*
X73568875Y-113022356D01*
X73735306Y-113077506D01*
X73838012Y-113087999D01*
X75187998Y-113087999D01*
X75188000Y-113087998D01*
X75188000Y-112233881D01*
X75281369Y-112272556D01*
X75398677Y-112288000D01*
X75477323Y-112288000D01*
X75594631Y-112272556D01*
X75688000Y-112233881D01*
X75688000Y-113087998D01*
X75688001Y-113087999D01*
X77037986Y-113087999D01*
X77140687Y-113077507D01*
X77140699Y-113077504D01*
X77307124Y-113022356D01*
X77456340Y-112930319D01*
X77580319Y-112806340D01*
X77672356Y-112657124D01*
X77727506Y-112490693D01*
X77738000Y-112387987D01*
X77738000Y-111938001D01*
X77737999Y-111938000D01*
X75983882Y-111938000D01*
X76022556Y-111844631D01*
X76043177Y-111688000D01*
X76022556Y-111531369D01*
X75983882Y-111438000D01*
X77737998Y-111438000D01*
X77737999Y-111437999D01*
X77737999Y-110988013D01*
X77727507Y-110885312D01*
X77727504Y-110885300D01*
X77672356Y-110718875D01*
X77580319Y-110569659D01*
X77456340Y-110445680D01*
X77307124Y-110353643D01*
X77140693Y-110298493D01*
X77037987Y-110288000D01*
X75688001Y-110288000D01*
X75688000Y-110288001D01*
X75688000Y-111142118D01*
X75594631Y-111103444D01*
X75477323Y-111088000D01*
X75398677Y-111088000D01*
X75281369Y-111103444D01*
X75188000Y-111142118D01*
X75188000Y-110288001D01*
X75187999Y-110288000D01*
X73838013Y-110288000D01*
X73735312Y-110298492D01*
X73735300Y-110298495D01*
X73568875Y-110353643D01*
X73419659Y-110445680D01*
X73295680Y-110569659D01*
X73203643Y-110718875D01*
X73148493Y-110885306D01*
X73138000Y-110988012D01*
X73138000Y-111437999D01*
X67510500Y-111437999D01*
X67510500Y-94132397D01*
X80548955Y-94132397D01*
X80550450Y-94144714D01*
X80550991Y-94162617D01*
X80550242Y-94175006D01*
X80561491Y-94236397D01*
X80561941Y-94239352D01*
X80567889Y-94288337D01*
X80568250Y-94294302D01*
X80568250Y-96853090D01*
X80568160Y-96856057D01*
X80566736Y-96879601D01*
X80564391Y-96918354D01*
X80575641Y-96979749D01*
X80576091Y-96982704D01*
X80583610Y-97044623D01*
X80583611Y-97044625D01*
X80588005Y-97056211D01*
X80592817Y-97073473D01*
X80595053Y-97085676D01*
X80595055Y-97085683D01*
X80620666Y-97142587D01*
X80621810Y-97145350D01*
X80643933Y-97203682D01*
X80643933Y-97203684D01*
X80650979Y-97213891D01*
X80659779Y-97229493D01*
X80664870Y-97240804D01*
X80703348Y-97289918D01*
X80705119Y-97292326D01*
X80740564Y-97343675D01*
X80740567Y-97343679D01*
X80767933Y-97367923D01*
X80787258Y-97385044D01*
X80789436Y-97387094D01*
X84061717Y-100659373D01*
X85054306Y-101651962D01*
X85054310Y-101651967D01*
X85427305Y-102024962D01*
X85455081Y-102079477D01*
X85456300Y-102094964D01*
X85456300Y-102138832D01*
X85455939Y-102144796D01*
X85451155Y-102184200D01*
X85456300Y-102226572D01*
X85471660Y-102353072D01*
X85531982Y-102512130D01*
X85626626Y-102649244D01*
X85628616Y-102652127D01*
X85628618Y-102652130D01*
X85648539Y-102669778D01*
X85755948Y-102764934D01*
X85906575Y-102843990D01*
X86071744Y-102884700D01*
X86071747Y-102884700D01*
X86241853Y-102884700D01*
X86241856Y-102884700D01*
X86390671Y-102848020D01*
X86426288Y-102845866D01*
X86441100Y-102847664D01*
X86443986Y-102848103D01*
X86505394Y-102859357D01*
X86567682Y-102855589D01*
X86570647Y-102855500D01*
X87395053Y-102855500D01*
X87395056Y-102855500D01*
X87433602Y-102845998D01*
X87439464Y-102844924D01*
X87478872Y-102840140D01*
X87515988Y-102826063D01*
X87521681Y-102824290D01*
X87529197Y-102822437D01*
X87560225Y-102814790D01*
X87595367Y-102796345D01*
X87600809Y-102793895D01*
X87637930Y-102779818D01*
X87670610Y-102757259D01*
X87675694Y-102754185D01*
X87710852Y-102735734D01*
X87740569Y-102709406D01*
X87745254Y-102705736D01*
X87777929Y-102683183D01*
X87804253Y-102653467D01*
X87808467Y-102649253D01*
X87838183Y-102622929D01*
X87860736Y-102590254D01*
X87864406Y-102585569D01*
X87890734Y-102555852D01*
X87909185Y-102520694D01*
X87912259Y-102515610D01*
X87934818Y-102482930D01*
X87948895Y-102445809D01*
X87951345Y-102440367D01*
X87969790Y-102405225D01*
X87979290Y-102366681D01*
X87981063Y-102360988D01*
X87995140Y-102323872D01*
X87999924Y-102284464D01*
X88000998Y-102278602D01*
X88010500Y-102240056D01*
X88010500Y-102200367D01*
X88010861Y-102194395D01*
X88012100Y-102184199D01*
X88015645Y-102155000D01*
X88010860Y-102115596D01*
X88010500Y-102109632D01*
X88010500Y-102069946D01*
X88010500Y-102069944D01*
X88001000Y-102031406D01*
X87999922Y-102025520D01*
X87995140Y-101986129D01*
X87981065Y-101949016D01*
X87979289Y-101943319D01*
X87969790Y-101904775D01*
X87951346Y-101869633D01*
X87948891Y-101864178D01*
X87948442Y-101862996D01*
X87934818Y-101827070D01*
X87912261Y-101794391D01*
X87909175Y-101789286D01*
X87890734Y-101754148D01*
X87864421Y-101724446D01*
X87860732Y-101719737D01*
X87838185Y-101687074D01*
X87838183Y-101687071D01*
X87808476Y-101660753D01*
X87804245Y-101656522D01*
X87777926Y-101626814D01*
X87745256Y-101604263D01*
X87740548Y-101600574D01*
X87710852Y-101574266D01*
X87697126Y-101567062D01*
X87675714Y-101555823D01*
X87670596Y-101552729D01*
X87637928Y-101530180D01*
X87600818Y-101516107D01*
X87595362Y-101513651D01*
X87560226Y-101495210D01*
X87521686Y-101485710D01*
X87515980Y-101483932D01*
X87478872Y-101469860D01*
X87478873Y-101469860D01*
X87439472Y-101465075D01*
X87433589Y-101463997D01*
X87423120Y-101461417D01*
X87395056Y-101454500D01*
X87395053Y-101454500D01*
X86879165Y-101454500D01*
X86820974Y-101435593D01*
X86809161Y-101425504D01*
X86703497Y-101319840D01*
X86692026Y-101306074D01*
X86684983Y-101295871D01*
X86638284Y-101254500D01*
X86636112Y-101252454D01*
X86267030Y-100883373D01*
X86044967Y-100661310D01*
X86044962Y-100661306D01*
X84061349Y-98677693D01*
X81998246Y-96614589D01*
X81970469Y-96560072D01*
X81969250Y-96544585D01*
X81969250Y-94169197D01*
X81969339Y-94166232D01*
X81973107Y-94103944D01*
X81970871Y-94091741D01*
X81969250Y-94073898D01*
X81969250Y-93097367D01*
X81969611Y-93091395D01*
X81974395Y-93052000D01*
X81974395Y-93051998D01*
X81970744Y-93021938D01*
X81953890Y-92883128D01*
X81893568Y-92724070D01*
X81796933Y-92584071D01*
X81669602Y-92471266D01*
X81518975Y-92392210D01*
X81518974Y-92392209D01*
X81518973Y-92392209D01*
X81353808Y-92351500D01*
X81353806Y-92351500D01*
X81183694Y-92351500D01*
X81183691Y-92351500D01*
X81018526Y-92392209D01*
X80867896Y-92471267D01*
X80740568Y-92584069D01*
X80740566Y-92584072D01*
X80643932Y-92724070D01*
X80583610Y-92883129D01*
X80563105Y-93051998D01*
X80563105Y-93052000D01*
X80567889Y-93091395D01*
X80568250Y-93097367D01*
X80568250Y-93965310D01*
X80563768Y-93994759D01*
X80560515Y-94005198D01*
X80560513Y-94005210D01*
X80556746Y-94067480D01*
X80556475Y-94070457D01*
X80548955Y-94132397D01*
X67510500Y-94132397D01*
X67510500Y-89916000D01*
X80623518Y-89916000D01*
X80644155Y-90072758D01*
X80644157Y-90072766D01*
X80704662Y-90218838D01*
X80704662Y-90218839D01*
X80704664Y-90218841D01*
X80800918Y-90344282D01*
X80926359Y-90440536D01*
X81072438Y-90501044D01*
X81229200Y-90521682D01*
X81277999Y-90515257D01*
X81338158Y-90526407D01*
X81360924Y-90543406D01*
X81456399Y-90638881D01*
X81469274Y-90654737D01*
X81475763Y-90664669D01*
X81502310Y-90685332D01*
X81506908Y-90689392D01*
X81509889Y-90692372D01*
X81509894Y-90692376D01*
X81527637Y-90705044D01*
X81568073Y-90736517D01*
X81574523Y-90740007D01*
X81581130Y-90743237D01*
X81581133Y-90743239D01*
X81630237Y-90757858D01*
X81678712Y-90774500D01*
X81678716Y-90774500D01*
X81685936Y-90775705D01*
X81693239Y-90776615D01*
X81693246Y-90776617D01*
X81744431Y-90774500D01*
X86427810Y-90774500D01*
X86486001Y-90793407D01*
X86497814Y-90803496D01*
X115035199Y-119340881D01*
X115048074Y-119356737D01*
X115054563Y-119366669D01*
X115081110Y-119387332D01*
X115085708Y-119391392D01*
X115088689Y-119394372D01*
X115088692Y-119394374D01*
X115088694Y-119394376D01*
X115106441Y-119407047D01*
X115146874Y-119438517D01*
X115146877Y-119438518D01*
X115153337Y-119442014D01*
X115159934Y-119445240D01*
X115209045Y-119459861D01*
X115257512Y-119476500D01*
X115257516Y-119476500D01*
X115264733Y-119477705D01*
X115272039Y-119478615D01*
X115272046Y-119478617D01*
X115323242Y-119476500D01*
X118825381Y-119476500D01*
X118845696Y-119478607D01*
X118847844Y-119479057D01*
X118857315Y-119481043D01*
X118890712Y-119476879D01*
X118896837Y-119476500D01*
X118901041Y-119476500D01*
X118911790Y-119474706D01*
X118922540Y-119472912D01*
X118973393Y-119466573D01*
X118973397Y-119466570D01*
X118974063Y-119466373D01*
X118976641Y-119466168D01*
X118981536Y-119465558D01*
X118981563Y-119465776D01*
X119015245Y-119463100D01*
X119126000Y-119477682D01*
X119282762Y-119457044D01*
X119428841Y-119396536D01*
X119554282Y-119300282D01*
X119650536Y-119174841D01*
X119711044Y-119028762D01*
X119731682Y-118872001D01*
X121214355Y-118872001D01*
X121225587Y-118964501D01*
X121226999Y-118976133D01*
X121234860Y-119040872D01*
X121295182Y-119199930D01*
X121391816Y-119339927D01*
X121391818Y-119339930D01*
X121401083Y-119348138D01*
X121519148Y-119452734D01*
X121669775Y-119531790D01*
X121834944Y-119572500D01*
X121834947Y-119572500D01*
X122005053Y-119572500D01*
X122005056Y-119572500D01*
X122170225Y-119531790D01*
X122320852Y-119452734D01*
X122448183Y-119339929D01*
X122544818Y-119199930D01*
X122605140Y-119040872D01*
X122613001Y-118976133D01*
X122625645Y-118872000D01*
X122620860Y-118832597D01*
X122620500Y-118826631D01*
X122620500Y-107721866D01*
X123939500Y-107721866D01*
X123939501Y-107721870D01*
X123945908Y-107781480D01*
X123945909Y-107781485D01*
X123996202Y-107916329D01*
X124002319Y-107924500D01*
X124082454Y-108031546D01*
X124082457Y-108031548D01*
X124082458Y-108031549D01*
X124197670Y-108117797D01*
X124332511Y-108168089D01*
X124332512Y-108168089D01*
X124332517Y-108168091D01*
X124392127Y-108174500D01*
X125387872Y-108174499D01*
X125447483Y-108168091D01*
X125514907Y-108142943D01*
X125582329Y-108117797D01*
X125582329Y-108117796D01*
X125582331Y-108117796D01*
X125697546Y-108031546D01*
X125783796Y-107916331D01*
X125786218Y-107909839D01*
X125834089Y-107781488D01*
X125834090Y-107781485D01*
X125834091Y-107781483D01*
X125840500Y-107721873D01*
X125840499Y-106726128D01*
X125834091Y-106666517D01*
X125832566Y-106662427D01*
X125783797Y-106531670D01*
X125697549Y-106416458D01*
X125697548Y-106416457D01*
X125697546Y-106416454D01*
X125697379Y-106416329D01*
X125582329Y-106330202D01*
X125447488Y-106279910D01*
X125447483Y-106279909D01*
X125447481Y-106279908D01*
X125447477Y-106279908D01*
X125416249Y-106276550D01*
X125387873Y-106273500D01*
X125387870Y-106273500D01*
X124392133Y-106273500D01*
X124392129Y-106273500D01*
X124392128Y-106273501D01*
X124384949Y-106274272D01*
X124332519Y-106279908D01*
X124332514Y-106279909D01*
X124197670Y-106330202D01*
X124082458Y-106416450D01*
X124082450Y-106416458D01*
X123996202Y-106531670D01*
X123945910Y-106666511D01*
X123945908Y-106666522D01*
X123939500Y-106726129D01*
X123939500Y-107721866D01*
X122620500Y-107721866D01*
X122620500Y-99105367D01*
X122620861Y-99099395D01*
X122625645Y-99060000D01*
X122625645Y-99059998D01*
X122619715Y-99011160D01*
X122605140Y-98891128D01*
X122544818Y-98732070D01*
X122448183Y-98592071D01*
X122433372Y-98578950D01*
X122320853Y-98479267D01*
X122320852Y-98479266D01*
X122170225Y-98400210D01*
X122170224Y-98400209D01*
X122170223Y-98400209D01*
X122005058Y-98359500D01*
X122005056Y-98359500D01*
X121834944Y-98359500D01*
X121834941Y-98359500D01*
X121669776Y-98400209D01*
X121519146Y-98479267D01*
X121391818Y-98592069D01*
X121391816Y-98592072D01*
X121365776Y-98629798D01*
X121295182Y-98732070D01*
X121244336Y-98866143D01*
X121234860Y-98891129D01*
X121214355Y-99059998D01*
X121214355Y-99060000D01*
X121219139Y-99099395D01*
X121219500Y-99105367D01*
X121219500Y-118826632D01*
X121219139Y-118832596D01*
X121217866Y-118843086D01*
X121214355Y-118871997D01*
X121214355Y-118872001D01*
X119731682Y-118872001D01*
X119731682Y-118872000D01*
X119727875Y-118843086D01*
X119715160Y-118746504D01*
X119711044Y-118715238D01*
X119681886Y-118644845D01*
X119650537Y-118569161D01*
X119650537Y-118569160D01*
X119554286Y-118443723D01*
X119554285Y-118443722D01*
X119554282Y-118443718D01*
X119554277Y-118443714D01*
X119554276Y-118443713D01*
X119469125Y-118378375D01*
X119428841Y-118347464D01*
X119428840Y-118347463D01*
X119428838Y-118347462D01*
X119282766Y-118286957D01*
X119282758Y-118286955D01*
X119126001Y-118266318D01*
X119125999Y-118266318D01*
X118969241Y-118286955D01*
X118969233Y-118286957D01*
X118823161Y-118347462D01*
X118823160Y-118347462D01*
X118697723Y-118443713D01*
X118697713Y-118443723D01*
X118601463Y-118569160D01*
X118558386Y-118673158D01*
X118546000Y-118703062D01*
X118541309Y-118714386D01*
X118501572Y-118760911D01*
X118449845Y-118775500D01*
X118266777Y-118775500D01*
X118208586Y-118756593D01*
X118172622Y-118707093D01*
X118172622Y-118645907D01*
X118206509Y-118597958D01*
X118284282Y-118538282D01*
X118380536Y-118412841D01*
X118441044Y-118266762D01*
X118461682Y-118110000D01*
X118441044Y-117953238D01*
X118414959Y-117890264D01*
X118380537Y-117807161D01*
X118380537Y-117807160D01*
X118284286Y-117681723D01*
X118284285Y-117681722D01*
X118284282Y-117681718D01*
X118284277Y-117681714D01*
X118284276Y-117681713D01*
X118158838Y-117585462D01*
X118012766Y-117524957D01*
X118012758Y-117524955D01*
X117856001Y-117504318D01*
X117855999Y-117504318D01*
X117699241Y-117524955D01*
X117699233Y-117524957D01*
X117553161Y-117585462D01*
X117553160Y-117585462D01*
X117427723Y-117681713D01*
X117427714Y-117681722D01*
X117397755Y-117720767D01*
X117347331Y-117755423D01*
X117319213Y-117759500D01*
X116137190Y-117759500D01*
X116078999Y-117740593D01*
X116067186Y-117730504D01*
X104558548Y-106221866D01*
X110639500Y-106221866D01*
X110639501Y-106221870D01*
X110645908Y-106281480D01*
X110645909Y-106281485D01*
X110696202Y-106416329D01*
X110775339Y-106522042D01*
X110782454Y-106531546D01*
X110782457Y-106531548D01*
X110782458Y-106531549D01*
X110897670Y-106617797D01*
X111002031Y-106656721D01*
X111049946Y-106694771D01*
X111066344Y-106753718D01*
X111044962Y-106811046D01*
X111037439Y-106819482D01*
X110910185Y-106946736D01*
X110910181Y-106946741D01*
X110814211Y-107099476D01*
X110814211Y-107099477D01*
X110754633Y-107269738D01*
X110754632Y-107269742D01*
X110734435Y-107449000D01*
X110754632Y-107628257D01*
X110754633Y-107628261D01*
X110814211Y-107798522D01*
X110814211Y-107798523D01*
X110847890Y-107852122D01*
X110910184Y-107951262D01*
X111037738Y-108078816D01*
X111037740Y-108078817D01*
X111037741Y-108078818D01*
X111190014Y-108174498D01*
X111190478Y-108174789D01*
X111258657Y-108198646D01*
X111360738Y-108234366D01*
X111360742Y-108234367D01*
X111360745Y-108234368D01*
X111360746Y-108234368D01*
X111360750Y-108234369D01*
X111495029Y-108249499D01*
X111495045Y-108249499D01*
X111495046Y-108249500D01*
X111495047Y-108249500D01*
X112284953Y-108249500D01*
X112284954Y-108249500D01*
X112284955Y-108249499D01*
X112284970Y-108249499D01*
X112419249Y-108234369D01*
X112419251Y-108234368D01*
X112419255Y-108234368D01*
X112589522Y-108174789D01*
X112742262Y-108078816D01*
X112869816Y-107951262D01*
X112965789Y-107798522D01*
X113025368Y-107628255D01*
X113045565Y-107449000D01*
X113025368Y-107269745D01*
X112983117Y-107149000D01*
X113939593Y-107149000D01*
X113959159Y-107322659D01*
X113959160Y-107322663D01*
X114016875Y-107487601D01*
X114016878Y-107487606D01*
X114105256Y-107628261D01*
X114109853Y-107635576D01*
X114233424Y-107759147D01*
X114233427Y-107759149D01*
X114233426Y-107759149D01*
X114296089Y-107798522D01*
X114381394Y-107852122D01*
X114381395Y-107852122D01*
X114381398Y-107852124D01*
X114546336Y-107909839D01*
X114546340Y-107909840D01*
X114546343Y-107909841D01*
X114546344Y-107909841D01*
X114546348Y-107909842D01*
X114655317Y-107922119D01*
X114676448Y-107924500D01*
X114676449Y-107924500D01*
X115163551Y-107924500D01*
X115163552Y-107924500D01*
X115212799Y-107918951D01*
X115293651Y-107909842D01*
X115293653Y-107909841D01*
X115293657Y-107909841D01*
X115293663Y-107909839D01*
X115458601Y-107852124D01*
X115458602Y-107852123D01*
X115458606Y-107852122D01*
X115606576Y-107759147D01*
X115730147Y-107635576D01*
X115823122Y-107487606D01*
X115880841Y-107322657D01*
X115900407Y-107149000D01*
X115880841Y-106975343D01*
X115878485Y-106968610D01*
X115823124Y-106810398D01*
X115823121Y-106810393D01*
X115770174Y-106726128D01*
X115730147Y-106662424D01*
X115606576Y-106538853D01*
X115606573Y-106538851D01*
X115606572Y-106538850D01*
X115606573Y-106538850D01*
X115458606Y-106445878D01*
X115458601Y-106445875D01*
X115293663Y-106388160D01*
X115293651Y-106388157D01*
X115163568Y-106373501D01*
X115163553Y-106373500D01*
X115163552Y-106373500D01*
X114676448Y-106373500D01*
X114676447Y-106373500D01*
X114676431Y-106373501D01*
X114546348Y-106388157D01*
X114546336Y-106388160D01*
X114381398Y-106445875D01*
X114381393Y-106445878D01*
X114233427Y-106538850D01*
X114109850Y-106662427D01*
X114016878Y-106810393D01*
X114016875Y-106810398D01*
X113959160Y-106975336D01*
X113959159Y-106975340D01*
X113939593Y-107149000D01*
X112983117Y-107149000D01*
X112965789Y-107099478D01*
X112909486Y-107009873D01*
X112869818Y-106946741D01*
X112869817Y-106946740D01*
X112869816Y-106946738D01*
X112742262Y-106819184D01*
X112742259Y-106819182D01*
X112742258Y-106819181D01*
X112589523Y-106723211D01*
X112451215Y-106674815D01*
X112402535Y-106637750D01*
X112384938Y-106579149D01*
X112404659Y-106522043D01*
X112483796Y-106416331D01*
X112494304Y-106388159D01*
X112534089Y-106281488D01*
X112534090Y-106281485D01*
X112534091Y-106281483D01*
X112540500Y-106221873D01*
X112540499Y-105226128D01*
X112539724Y-105218918D01*
X113640000Y-105218918D01*
X113655123Y-105353145D01*
X113655124Y-105353149D01*
X113714663Y-105523302D01*
X113810574Y-105675944D01*
X113938055Y-105803425D01*
X113938054Y-105803425D01*
X114090697Y-105899336D01*
X114260850Y-105958875D01*
X114260854Y-105958876D01*
X114395081Y-105973999D01*
X114395084Y-105974000D01*
X114639999Y-105974000D01*
X114640000Y-105973999D01*
X114640000Y-105159501D01*
X114747685Y-105208680D01*
X114854237Y-105224000D01*
X114925763Y-105224000D01*
X115032315Y-105208680D01*
X115140000Y-105159501D01*
X115140000Y-105973999D01*
X115140001Y-105974000D01*
X115384916Y-105974000D01*
X115384918Y-105973999D01*
X115519145Y-105958876D01*
X115519149Y-105958875D01*
X115689302Y-105899336D01*
X115841944Y-105803425D01*
X115969425Y-105675944D01*
X116065336Y-105523302D01*
X116124875Y-105353149D01*
X116124876Y-105353145D01*
X116139999Y-105218918D01*
X116140000Y-105218916D01*
X116140000Y-104974001D01*
X116139999Y-104974000D01*
X115323686Y-104974000D01*
X115349493Y-104933844D01*
X115390000Y-104795889D01*
X115390000Y-104652111D01*
X115349493Y-104514156D01*
X115323686Y-104474000D01*
X116139999Y-104474000D01*
X116140000Y-104473999D01*
X116140000Y-104229084D01*
X116139999Y-104229081D01*
X116124876Y-104094854D01*
X116124875Y-104094850D01*
X116065336Y-103924697D01*
X115969425Y-103772055D01*
X115841944Y-103644574D01*
X115841945Y-103644574D01*
X115689302Y-103548663D01*
X115519149Y-103489124D01*
X115519145Y-103489123D01*
X115384918Y-103474000D01*
X115140001Y-103474000D01*
X115140000Y-103474001D01*
X115140000Y-104288498D01*
X115032315Y-104239320D01*
X114925763Y-104224000D01*
X114854237Y-104224000D01*
X114747685Y-104239320D01*
X114640000Y-104288498D01*
X114640000Y-103474001D01*
X114639999Y-103474000D01*
X114395081Y-103474000D01*
X114260854Y-103489123D01*
X114260850Y-103489124D01*
X114090697Y-103548663D01*
X113938055Y-103644574D01*
X113810574Y-103772055D01*
X113714663Y-103924697D01*
X113655124Y-104094850D01*
X113655123Y-104094854D01*
X113640000Y-104229081D01*
X113640000Y-104473999D01*
X113640001Y-104474000D01*
X114456314Y-104474000D01*
X114430507Y-104514156D01*
X114390000Y-104652111D01*
X114390000Y-104795889D01*
X114430507Y-104933844D01*
X114456314Y-104974000D01*
X113640001Y-104974000D01*
X113640000Y-104974001D01*
X113640000Y-105218918D01*
X112539724Y-105218918D01*
X112534091Y-105166517D01*
X112519613Y-105127700D01*
X112483797Y-105031670D01*
X112397549Y-104916458D01*
X112397548Y-104916457D01*
X112397546Y-104916454D01*
X112397541Y-104916450D01*
X112282332Y-104830204D01*
X112270533Y-104825803D01*
X112246279Y-104816757D01*
X112198366Y-104778708D01*
X112181968Y-104719762D01*
X112203349Y-104662434D01*
X112246278Y-104631242D01*
X112282331Y-104617796D01*
X112397546Y-104531546D01*
X112483796Y-104416331D01*
X112484447Y-104414587D01*
X112534089Y-104281488D01*
X112534090Y-104281485D01*
X112534091Y-104281483D01*
X112540500Y-104221873D01*
X112540499Y-103226128D01*
X112534091Y-103166517D01*
X112534089Y-103166511D01*
X112483797Y-103031670D01*
X112404660Y-102925957D01*
X112384923Y-102868042D01*
X112402997Y-102809587D01*
X112451212Y-102773185D01*
X112589522Y-102724789D01*
X112742262Y-102628816D01*
X112869816Y-102501262D01*
X112965789Y-102348522D01*
X112983117Y-102299000D01*
X113939593Y-102299000D01*
X113959159Y-102472659D01*
X113959160Y-102472663D01*
X114016875Y-102637601D01*
X114016878Y-102637606D01*
X114109093Y-102784368D01*
X114109853Y-102785576D01*
X114233424Y-102909147D01*
X114233427Y-102909149D01*
X114233426Y-102909149D01*
X114332070Y-102971130D01*
X114381394Y-103002122D01*
X114381395Y-103002122D01*
X114381398Y-103002124D01*
X114546336Y-103059839D01*
X114546340Y-103059840D01*
X114546343Y-103059841D01*
X114546344Y-103059841D01*
X114546348Y-103059842D01*
X114655317Y-103072119D01*
X114676448Y-103074500D01*
X114676449Y-103074500D01*
X115163551Y-103074500D01*
X115163552Y-103074500D01*
X115212799Y-103068951D01*
X115293651Y-103059842D01*
X115293653Y-103059841D01*
X115293657Y-103059841D01*
X115374167Y-103031669D01*
X115458601Y-103002124D01*
X115458602Y-103002123D01*
X115458606Y-103002122D01*
X115606576Y-102909147D01*
X115730147Y-102785576D01*
X115823122Y-102637606D01*
X115830449Y-102616669D01*
X115880839Y-102472663D01*
X115880840Y-102472659D01*
X115880841Y-102472657D01*
X115900407Y-102299000D01*
X115880841Y-102125343D01*
X115880839Y-102125336D01*
X115823124Y-101960398D01*
X115823121Y-101960393D01*
X115817370Y-101951241D01*
X115730147Y-101812424D01*
X115606576Y-101688853D01*
X115606573Y-101688851D01*
X115606572Y-101688850D01*
X115606573Y-101688850D01*
X115458606Y-101595878D01*
X115458601Y-101595875D01*
X115293663Y-101538160D01*
X115293651Y-101538157D01*
X115163568Y-101523501D01*
X115163553Y-101523500D01*
X115163552Y-101523500D01*
X114676448Y-101523500D01*
X114676447Y-101523500D01*
X114676431Y-101523501D01*
X114546348Y-101538157D01*
X114546336Y-101538160D01*
X114381398Y-101595875D01*
X114381393Y-101595878D01*
X114233427Y-101688850D01*
X114109850Y-101812427D01*
X114016878Y-101960393D01*
X114016875Y-101960398D01*
X113959160Y-102125336D01*
X113959159Y-102125340D01*
X113939593Y-102299000D01*
X112983117Y-102299000D01*
X113025368Y-102178255D01*
X113045565Y-101999000D01*
X113025368Y-101819745D01*
X113022807Y-101812427D01*
X112991236Y-101722201D01*
X112965789Y-101649478D01*
X112924308Y-101583462D01*
X112869818Y-101496741D01*
X112869817Y-101496740D01*
X112869816Y-101496738D01*
X112742262Y-101369184D01*
X112742259Y-101369182D01*
X112742258Y-101369181D01*
X112589523Y-101273211D01*
X112419261Y-101213633D01*
X112419249Y-101213630D01*
X112284970Y-101198500D01*
X112284954Y-101198500D01*
X111495046Y-101198500D01*
X111495029Y-101198500D01*
X111360750Y-101213630D01*
X111360738Y-101213633D01*
X111190477Y-101273211D01*
X111190476Y-101273211D01*
X111037741Y-101369181D01*
X110910181Y-101496741D01*
X110814211Y-101649476D01*
X110814211Y-101649477D01*
X110754633Y-101819738D01*
X110754632Y-101819742D01*
X110734435Y-101999000D01*
X110754632Y-102178255D01*
X110754633Y-102178261D01*
X110814211Y-102348522D01*
X110814211Y-102348523D01*
X110910181Y-102501258D01*
X110910184Y-102501262D01*
X111037440Y-102628518D01*
X111065216Y-102683033D01*
X111055645Y-102743465D01*
X111012380Y-102786730D01*
X111002032Y-102791278D01*
X110897669Y-102830203D01*
X110782458Y-102916450D01*
X110782450Y-102916458D01*
X110696202Y-103031670D01*
X110645910Y-103166511D01*
X110645908Y-103166522D01*
X110639500Y-103226129D01*
X110639500Y-104221866D01*
X110639501Y-104221870D01*
X110645908Y-104281480D01*
X110645909Y-104281485D01*
X110696202Y-104416329D01*
X110769436Y-104514156D01*
X110782454Y-104531546D01*
X110782457Y-104531548D01*
X110782458Y-104531549D01*
X110897670Y-104617797D01*
X110933718Y-104631242D01*
X110981633Y-104669292D01*
X110998031Y-104728239D01*
X110976649Y-104785567D01*
X110933718Y-104816758D01*
X110897670Y-104830202D01*
X110782458Y-104916450D01*
X110782450Y-104916458D01*
X110696202Y-105031670D01*
X110645910Y-105166511D01*
X110645908Y-105166522D01*
X110639500Y-105226129D01*
X110639500Y-106221866D01*
X104558548Y-106221866D01*
X87495406Y-89158724D01*
X87467629Y-89104207D01*
X87467257Y-89075802D01*
X87473682Y-89027000D01*
X87453044Y-88870238D01*
X87445271Y-88851472D01*
X87392537Y-88724161D01*
X87392537Y-88724160D01*
X87296286Y-88598723D01*
X87296285Y-88598722D01*
X87296282Y-88598718D01*
X87296277Y-88598714D01*
X87296276Y-88598713D01*
X87170838Y-88502462D01*
X87024766Y-88441957D01*
X87024758Y-88441955D01*
X86868001Y-88421318D01*
X86867999Y-88421318D01*
X86711241Y-88441955D01*
X86711233Y-88441957D01*
X86565161Y-88502462D01*
X86565160Y-88502462D01*
X86439723Y-88598713D01*
X86439713Y-88598723D01*
X86343462Y-88724160D01*
X86343462Y-88724161D01*
X86282957Y-88870233D01*
X86282955Y-88870241D01*
X86262318Y-89026999D01*
X86262318Y-89027000D01*
X86282955Y-89183758D01*
X86282957Y-89183766D01*
X86343462Y-89329838D01*
X86343462Y-89329839D01*
X86439713Y-89455276D01*
X86439718Y-89455282D01*
X86565159Y-89551536D01*
X86711238Y-89612044D01*
X86868000Y-89632682D01*
X86916799Y-89626257D01*
X86976958Y-89637407D01*
X86999724Y-89654406D01*
X115670199Y-118324881D01*
X115683074Y-118340737D01*
X115689563Y-118350669D01*
X115716110Y-118371332D01*
X115720708Y-118375392D01*
X115723690Y-118378373D01*
X115723693Y-118378375D01*
X115741438Y-118391044D01*
X115781874Y-118422517D01*
X115781878Y-118422518D01*
X115788354Y-118426022D01*
X115794934Y-118429240D01*
X115844045Y-118443861D01*
X115892512Y-118460500D01*
X115892516Y-118460500D01*
X115899736Y-118461705D01*
X115907039Y-118462615D01*
X115907046Y-118462617D01*
X115958231Y-118460500D01*
X117319213Y-118460500D01*
X117377404Y-118479407D01*
X117397754Y-118499232D01*
X117427718Y-118538282D01*
X117505490Y-118597958D01*
X117540146Y-118648382D01*
X117538545Y-118709546D01*
X117501298Y-118758088D01*
X117445223Y-118775500D01*
X115502189Y-118775500D01*
X115443998Y-118756593D01*
X115432185Y-118746504D01*
X101165351Y-104479670D01*
X86894801Y-90209119D01*
X86881925Y-90193262D01*
X86875437Y-90183331D01*
X86848885Y-90162665D01*
X86844283Y-90158601D01*
X86841307Y-90155625D01*
X86823560Y-90142954D01*
X86783128Y-90111484D01*
X86776677Y-90107993D01*
X86770068Y-90104761D01*
X86770066Y-90104760D01*
X86720954Y-90090138D01*
X86672488Y-90073500D01*
X86672485Y-90073499D01*
X86665260Y-90072293D01*
X86657955Y-90071383D01*
X86657954Y-90071383D01*
X86657952Y-90071383D01*
X86606769Y-90073500D01*
X81927035Y-90073500D01*
X81868844Y-90054593D01*
X81832880Y-90005093D01*
X81828882Y-89961579D01*
X81834882Y-89916001D01*
X81834882Y-89915999D01*
X81814244Y-89759241D01*
X81814244Y-89759238D01*
X81814242Y-89759233D01*
X81753737Y-89613161D01*
X81753737Y-89613160D01*
X81657486Y-89487723D01*
X81657485Y-89487722D01*
X81657482Y-89487718D01*
X81657477Y-89487714D01*
X81657476Y-89487713D01*
X81533279Y-89392414D01*
X81532041Y-89391464D01*
X81532040Y-89391463D01*
X81532038Y-89391462D01*
X81385966Y-89330957D01*
X81385958Y-89330955D01*
X81229201Y-89310318D01*
X81229199Y-89310318D01*
X81072441Y-89330955D01*
X81072433Y-89330957D01*
X80926361Y-89391462D01*
X80926360Y-89391462D01*
X80800923Y-89487713D01*
X80800913Y-89487723D01*
X80704662Y-89613160D01*
X80704662Y-89613161D01*
X80644157Y-89759233D01*
X80644155Y-89759241D01*
X80623518Y-89915999D01*
X80623518Y-89916000D01*
X67510500Y-89916000D01*
X67510500Y-85115003D01*
X90364417Y-85115003D01*
X90384698Y-85320929D01*
X90384699Y-85320934D01*
X90444768Y-85518954D01*
X90542316Y-85701452D01*
X90673585Y-85861404D01*
X90673590Y-85861410D01*
X90673595Y-85861414D01*
X90673596Y-85861415D01*
X90683302Y-85869380D01*
X90716291Y-85920910D01*
X90719500Y-85945910D01*
X90719500Y-86317340D01*
X90719410Y-86320307D01*
X90717986Y-86343851D01*
X90715641Y-86382604D01*
X90726891Y-86443999D01*
X90727341Y-86446954D01*
X90734860Y-86508873D01*
X90734861Y-86508875D01*
X90739255Y-86520461D01*
X90744067Y-86537723D01*
X90746303Y-86549926D01*
X90746305Y-86549933D01*
X90771916Y-86606837D01*
X90773060Y-86609600D01*
X90795183Y-86667932D01*
X90795183Y-86667934D01*
X90802229Y-86678141D01*
X90811029Y-86693743D01*
X90816120Y-86705054D01*
X90854598Y-86754168D01*
X90856369Y-86756576D01*
X90891814Y-86807925D01*
X90891817Y-86807929D01*
X90919183Y-86832173D01*
X90938508Y-86849294D01*
X90940686Y-86851344D01*
X96055654Y-91966312D01*
X96057704Y-91968489D01*
X96099065Y-92015177D01*
X96099069Y-92015181D01*
X96099071Y-92015183D01*
X96124426Y-92032684D01*
X96150422Y-92050629D01*
X96152820Y-92052392D01*
X96201943Y-92090878D01*
X96201945Y-92090879D01*
X96201948Y-92090881D01*
X96213251Y-92095968D01*
X96228857Y-92104769D01*
X96236439Y-92110002D01*
X96239070Y-92111818D01*
X96273489Y-92124871D01*
X96297409Y-92133943D01*
X96300163Y-92135083D01*
X96357068Y-92160694D01*
X96369275Y-92162930D01*
X96386528Y-92167740D01*
X96398128Y-92172140D01*
X96460100Y-92179664D01*
X96462986Y-92180103D01*
X96524394Y-92191357D01*
X96586683Y-92187589D01*
X96589648Y-92187500D01*
X102508053Y-92187500D01*
X102508056Y-92187500D01*
X102546602Y-92177998D01*
X102552464Y-92176924D01*
X102591872Y-92172140D01*
X102628988Y-92158063D01*
X102634681Y-92156290D01*
X102642197Y-92154437D01*
X102673225Y-92146790D01*
X102708367Y-92128345D01*
X102713809Y-92125895D01*
X102750930Y-92111818D01*
X102783610Y-92089259D01*
X102788694Y-92086185D01*
X102823852Y-92067734D01*
X102853569Y-92041406D01*
X102858254Y-92037736D01*
X102890929Y-92015183D01*
X102917253Y-91985467D01*
X102921467Y-91981253D01*
X102951183Y-91954929D01*
X102973736Y-91922254D01*
X102977406Y-91917569D01*
X103003734Y-91887852D01*
X103022185Y-91852694D01*
X103025259Y-91847610D01*
X103047818Y-91814930D01*
X103061895Y-91777809D01*
X103064345Y-91772367D01*
X103082790Y-91737225D01*
X103087183Y-91719402D01*
X138076753Y-91719402D01*
X138097234Y-91861856D01*
X138145419Y-91967365D01*
X138157023Y-91992773D01*
X138195977Y-92037729D01*
X138232719Y-92080131D01*
X138256537Y-92136490D01*
X138256900Y-92144962D01*
X138256900Y-102218625D01*
X138256712Y-102222927D01*
X138253570Y-102258844D01*
X138253136Y-102263806D01*
X138263754Y-102303436D01*
X138264689Y-102307652D01*
X138271811Y-102348045D01*
X138272564Y-102349348D01*
X138282454Y-102373224D01*
X138282843Y-102374679D01*
X138282846Y-102374684D01*
X138306371Y-102408281D01*
X138308692Y-102411924D01*
X138329206Y-102447455D01*
X138360624Y-102473818D01*
X138363810Y-102476737D01*
X140245457Y-104358384D01*
X140248375Y-104361569D01*
X140274744Y-104392993D01*
X140274745Y-104392994D01*
X140310273Y-104413506D01*
X140313912Y-104415825D01*
X140347511Y-104439351D01*
X140347513Y-104439352D01*
X140347516Y-104439354D01*
X140348967Y-104439742D01*
X140372859Y-104449640D01*
X140373386Y-104449943D01*
X140374155Y-104450388D01*
X140414551Y-104457510D01*
X140418748Y-104458440D01*
X140458393Y-104469064D01*
X140494471Y-104465907D01*
X140554088Y-104479670D01*
X140594229Y-104525846D01*
X140602100Y-104564530D01*
X140602100Y-104946946D01*
X140602101Y-104946958D01*
X140613732Y-105005427D01*
X140613734Y-105005433D01*
X140658045Y-105071748D01*
X140658048Y-105071752D01*
X140724369Y-105116067D01*
X140768831Y-105124911D01*
X140782841Y-105127698D01*
X140782846Y-105127698D01*
X140782852Y-105127700D01*
X140782853Y-105127700D01*
X142397147Y-105127700D01*
X142397148Y-105127700D01*
X142455631Y-105116067D01*
X142521952Y-105071752D01*
X142566267Y-105005431D01*
X142577900Y-104946948D01*
X142577900Y-103332652D01*
X142566267Y-103274169D01*
X142521952Y-103207848D01*
X142521948Y-103207845D01*
X142455633Y-103163534D01*
X142455631Y-103163533D01*
X142455628Y-103163532D01*
X142455627Y-103163532D01*
X142397158Y-103151901D01*
X142397148Y-103151900D01*
X140782852Y-103151900D01*
X140782851Y-103151900D01*
X140782841Y-103151901D01*
X140724372Y-103163532D01*
X140724366Y-103163534D01*
X140658051Y-103207845D01*
X140658045Y-103207851D01*
X140613734Y-103274166D01*
X140613732Y-103274172D01*
X140602101Y-103332641D01*
X140602100Y-103332653D01*
X140602100Y-103555366D01*
X140583193Y-103613557D01*
X140533693Y-103649521D01*
X140472507Y-103649521D01*
X140433096Y-103625370D01*
X138936896Y-102129170D01*
X138909119Y-102074653D01*
X138907900Y-102059166D01*
X138907900Y-101599803D01*
X140297682Y-101599803D01*
X140317313Y-101824201D01*
X140375619Y-102041802D01*
X140470815Y-102245950D01*
X140470820Y-102245960D01*
X140520020Y-102316224D01*
X141106922Y-101729321D01*
X141130507Y-101809644D01*
X141208239Y-101930598D01*
X141316900Y-102024752D01*
X141447685Y-102084480D01*
X141457465Y-102085886D01*
X140873573Y-102669777D01*
X140943839Y-102718979D01*
X140943849Y-102718984D01*
X141147997Y-102814180D01*
X141147996Y-102814180D01*
X141365598Y-102872486D01*
X141589997Y-102892118D01*
X141590003Y-102892118D01*
X141814401Y-102872486D01*
X142032002Y-102814180D01*
X142236150Y-102718984D01*
X142236162Y-102718978D01*
X142306425Y-102669778D01*
X141722532Y-102085886D01*
X141732315Y-102084480D01*
X141863100Y-102024752D01*
X141971761Y-101930598D01*
X142049493Y-101809644D01*
X142073077Y-101729323D01*
X142659978Y-102316225D01*
X142709178Y-102245962D01*
X142709184Y-102245950D01*
X142804380Y-102041802D01*
X142862686Y-101824201D01*
X142882318Y-101599803D01*
X142882318Y-101599796D01*
X142862686Y-101375398D01*
X142804380Y-101157797D01*
X142709184Y-100953649D01*
X142709179Y-100953639D01*
X142659977Y-100883373D01*
X142073076Y-101470274D01*
X142049493Y-101389956D01*
X141971761Y-101269002D01*
X141863100Y-101174848D01*
X141732315Y-101115120D01*
X141722530Y-101113713D01*
X142306424Y-100529820D01*
X142236160Y-100480620D01*
X142236150Y-100480615D01*
X142032002Y-100385419D01*
X142032003Y-100385419D01*
X141814401Y-100327113D01*
X141590003Y-100307482D01*
X141589997Y-100307482D01*
X141365598Y-100327113D01*
X141147997Y-100385419D01*
X140943851Y-100480614D01*
X140943845Y-100480617D01*
X140873574Y-100529820D01*
X141457467Y-101113713D01*
X141447685Y-101115120D01*
X141316900Y-101174848D01*
X141208239Y-101269002D01*
X141130507Y-101389956D01*
X141106922Y-101470276D01*
X140520020Y-100883374D01*
X140470817Y-100953645D01*
X140470814Y-100953651D01*
X140375619Y-101157797D01*
X140317313Y-101375398D01*
X140297682Y-101599796D01*
X140297682Y-101599803D01*
X138907900Y-101599803D01*
X138907900Y-99059804D01*
X140597320Y-99059804D01*
X140616392Y-99253456D01*
X140616393Y-99253462D01*
X140672883Y-99439682D01*
X140764618Y-99611305D01*
X140872103Y-99742276D01*
X140888069Y-99761731D01*
X141038494Y-99885180D01*
X141038494Y-99885181D01*
X141038495Y-99885181D01*
X141038497Y-99885183D01*
X141210118Y-99976917D01*
X141339848Y-100016270D01*
X141396337Y-100033406D01*
X141396343Y-100033407D01*
X141589996Y-100052480D01*
X141590000Y-100052480D01*
X141590004Y-100052480D01*
X141783656Y-100033407D01*
X141783662Y-100033406D01*
X141969882Y-99976917D01*
X142141503Y-99885183D01*
X142291931Y-99761731D01*
X142415383Y-99611303D01*
X142507117Y-99439682D01*
X142563606Y-99253462D01*
X142573084Y-99157238D01*
X142582680Y-99059804D01*
X142582680Y-99059795D01*
X142563607Y-98866143D01*
X142563606Y-98866140D01*
X142563606Y-98866138D01*
X142507117Y-98679918D01*
X142507114Y-98679913D01*
X142506441Y-98677693D01*
X142507642Y-98616519D01*
X142531172Y-98578952D01*
X148729130Y-92380996D01*
X148783647Y-92353219D01*
X148799134Y-92352000D01*
X148870259Y-92352000D01*
X148870261Y-92352000D01*
X149008353Y-92311453D01*
X149129428Y-92233643D01*
X149223677Y-92124873D01*
X149283465Y-91993957D01*
X149298250Y-91891123D01*
X149303947Y-91851502D01*
X149303947Y-91851497D01*
X149283465Y-91709043D01*
X149223677Y-91578128D01*
X149223677Y-91578127D01*
X149129428Y-91469357D01*
X149129427Y-91469356D01*
X149129426Y-91469355D01*
X149008357Y-91391549D01*
X149008354Y-91391547D01*
X149008353Y-91391547D01*
X149008350Y-91391546D01*
X148870264Y-91351000D01*
X148870261Y-91351000D01*
X148726339Y-91351000D01*
X148726335Y-91351000D01*
X148588249Y-91391546D01*
X148588242Y-91391549D01*
X148467173Y-91469355D01*
X148372922Y-91578128D01*
X148313134Y-91709043D01*
X148292653Y-91851497D01*
X148292653Y-91855812D01*
X148273746Y-91914003D01*
X148263657Y-91925816D01*
X142070848Y-98118624D01*
X142016331Y-98146401D01*
X141972106Y-98143357D01*
X141783662Y-98086193D01*
X141783656Y-98086192D01*
X141590004Y-98067120D01*
X141589996Y-98067120D01*
X141396343Y-98086192D01*
X141396337Y-98086193D01*
X141210117Y-98142683D01*
X141038494Y-98234418D01*
X141038494Y-98234419D01*
X140888074Y-98357864D01*
X140888064Y-98357874D01*
X140764619Y-98508294D01*
X140764618Y-98508294D01*
X140672883Y-98679917D01*
X140616393Y-98866137D01*
X140616392Y-98866143D01*
X140597320Y-99059795D01*
X140597320Y-99059804D01*
X138907900Y-99059804D01*
X138907900Y-92144962D01*
X138926807Y-92086771D01*
X138932081Y-92080131D01*
X138956110Y-92052400D01*
X139007777Y-91992773D01*
X139067565Y-91861857D01*
X139079648Y-91777817D01*
X139088047Y-91719402D01*
X139088047Y-91719397D01*
X139067565Y-91576943D01*
X139065332Y-91572053D01*
X139007777Y-91446027D01*
X138913528Y-91337257D01*
X138913527Y-91337256D01*
X138913526Y-91337255D01*
X138792457Y-91259449D01*
X138792454Y-91259447D01*
X138792453Y-91259447D01*
X138792450Y-91259446D01*
X138654364Y-91218900D01*
X138654361Y-91218900D01*
X138510439Y-91218900D01*
X138510435Y-91218900D01*
X138372349Y-91259446D01*
X138372342Y-91259449D01*
X138251273Y-91337255D01*
X138157022Y-91446028D01*
X138097234Y-91576943D01*
X138076753Y-91719397D01*
X138076753Y-91719402D01*
X103087183Y-91719402D01*
X103092290Y-91698681D01*
X103094063Y-91692988D01*
X103108140Y-91655872D01*
X103112924Y-91616464D01*
X103113998Y-91610602D01*
X103123500Y-91572056D01*
X103123500Y-91532367D01*
X103123861Y-91526395D01*
X103128645Y-91487000D01*
X103128645Y-91486999D01*
X103126503Y-91469357D01*
X103123860Y-91447596D01*
X103123500Y-91441632D01*
X103123500Y-91401946D01*
X103123500Y-91401944D01*
X103114000Y-91363406D01*
X103112922Y-91357520D01*
X103112130Y-91351000D01*
X103108140Y-91318128D01*
X103094063Y-91281010D01*
X103092289Y-91275319D01*
X103082790Y-91236775D01*
X103064346Y-91201633D01*
X103061891Y-91196178D01*
X103061442Y-91194996D01*
X103047818Y-91159070D01*
X103025261Y-91126391D01*
X103022175Y-91121286D01*
X103003734Y-91086148D01*
X102977421Y-91056446D01*
X102973732Y-91051737D01*
X102951185Y-91019074D01*
X102951183Y-91019071D01*
X102921476Y-90992753D01*
X102917245Y-90988522D01*
X102890926Y-90958814D01*
X102858256Y-90936263D01*
X102853548Y-90932574D01*
X102823852Y-90906266D01*
X102810126Y-90899062D01*
X102788714Y-90887823D01*
X102783596Y-90884729D01*
X102750928Y-90862180D01*
X102713818Y-90848107D01*
X102708362Y-90845651D01*
X102673226Y-90827210D01*
X102634686Y-90817710D01*
X102628980Y-90815932D01*
X102591872Y-90801860D01*
X102591873Y-90801860D01*
X102552472Y-90797075D01*
X102546589Y-90795997D01*
X102536080Y-90793407D01*
X102508056Y-90786500D01*
X102508053Y-90786500D01*
X96898165Y-90786500D01*
X96839974Y-90767593D01*
X96828161Y-90757504D01*
X95586403Y-89515746D01*
X142474500Y-89515746D01*
X142474501Y-89515758D01*
X142486132Y-89574227D01*
X142486134Y-89574233D01*
X142530445Y-89640548D01*
X142530448Y-89640552D01*
X142596769Y-89684867D01*
X142641231Y-89693711D01*
X142655241Y-89696498D01*
X142655246Y-89696498D01*
X142655252Y-89696500D01*
X142655253Y-89696500D01*
X144394747Y-89696500D01*
X144394748Y-89696500D01*
X144453231Y-89684867D01*
X144519552Y-89640552D01*
X144563867Y-89574231D01*
X144575500Y-89515748D01*
X144575500Y-89055089D01*
X144594407Y-88996898D01*
X144643907Y-88960934D01*
X144705093Y-88960934D01*
X144754593Y-88996898D01*
X144770127Y-89029466D01*
X144791569Y-89109490D01*
X144891399Y-89323577D01*
X145026886Y-89517073D01*
X145193926Y-89684113D01*
X145387422Y-89819600D01*
X145601509Y-89919430D01*
X145815000Y-89976634D01*
X145815000Y-89081501D01*
X145922685Y-89130680D01*
X146029237Y-89146000D01*
X146100763Y-89146000D01*
X146207315Y-89130680D01*
X146315000Y-89081501D01*
X146315000Y-89976633D01*
X146528490Y-89919430D01*
X146742577Y-89819600D01*
X146936073Y-89684113D01*
X147103113Y-89517073D01*
X147238600Y-89323577D01*
X147338430Y-89109490D01*
X147393816Y-88902786D01*
X147427140Y-88851472D01*
X147484261Y-88829545D01*
X147543362Y-88845380D01*
X147581867Y-88892930D01*
X147584180Y-88899671D01*
X147629768Y-89049954D01*
X147727316Y-89232452D01*
X147807241Y-89329841D01*
X147858590Y-89392410D01*
X147858595Y-89392414D01*
X148018547Y-89523683D01*
X148018548Y-89523683D01*
X148018550Y-89523685D01*
X148201046Y-89621232D01*
X148338997Y-89663078D01*
X148399065Y-89681300D01*
X148399070Y-89681301D01*
X148604997Y-89701583D01*
X148605000Y-89701583D01*
X148605003Y-89701583D01*
X148810929Y-89681301D01*
X148810934Y-89681300D01*
X149008954Y-89621232D01*
X149191450Y-89523685D01*
X149351410Y-89392410D01*
X149482685Y-89232450D01*
X149580232Y-89049954D01*
X149640300Y-88851934D01*
X149640301Y-88851929D01*
X149660583Y-88646003D01*
X149660583Y-88645996D01*
X149640301Y-88440070D01*
X149640300Y-88440065D01*
X149602012Y-88313847D01*
X149580232Y-88242046D01*
X149482685Y-88059550D01*
X149351410Y-87899590D01*
X149201123Y-87776253D01*
X149191452Y-87768316D01*
X149008954Y-87670768D01*
X148810934Y-87610699D01*
X148810929Y-87610698D01*
X148605003Y-87590417D01*
X148604997Y-87590417D01*
X148399070Y-87610698D01*
X148399065Y-87610699D01*
X148201045Y-87670768D01*
X148018547Y-87768316D01*
X147858595Y-87899585D01*
X147858585Y-87899595D01*
X147727316Y-88059547D01*
X147640992Y-88221048D01*
X147629768Y-88242046D01*
X147620564Y-88272388D01*
X147584180Y-88392329D01*
X147549195Y-88442525D01*
X147491386Y-88462571D01*
X147432836Y-88444810D01*
X147395907Y-88396025D01*
X147393816Y-88389213D01*
X147338429Y-88182504D01*
X147238605Y-87968432D01*
X147238601Y-87968424D01*
X147103113Y-87774926D01*
X146936073Y-87607886D01*
X146742577Y-87472399D01*
X146528489Y-87372569D01*
X146315000Y-87315364D01*
X146315000Y-88210498D01*
X146207315Y-88161320D01*
X146100763Y-88146000D01*
X146029237Y-88146000D01*
X145922685Y-88161320D01*
X145815000Y-88210498D01*
X145815000Y-87315364D01*
X145601505Y-87372570D01*
X145387432Y-87472394D01*
X145387424Y-87472398D01*
X145193926Y-87607886D01*
X145026886Y-87774926D01*
X144891398Y-87968424D01*
X144891394Y-87968432D01*
X144791570Y-88182505D01*
X144770127Y-88262533D01*
X144736803Y-88313847D01*
X144679681Y-88335774D01*
X144620581Y-88319938D01*
X144582076Y-88272388D01*
X144575500Y-88236910D01*
X144575500Y-87776253D01*
X144575498Y-87776241D01*
X144572711Y-87762231D01*
X144563867Y-87717769D01*
X144519552Y-87651448D01*
X144519548Y-87651445D01*
X144453233Y-87607134D01*
X144453231Y-87607133D01*
X144453228Y-87607132D01*
X144453227Y-87607132D01*
X144394758Y-87595501D01*
X144394748Y-87595500D01*
X142655252Y-87595500D01*
X142655251Y-87595500D01*
X142655241Y-87595501D01*
X142596772Y-87607132D01*
X142596766Y-87607134D01*
X142530451Y-87651445D01*
X142530445Y-87651451D01*
X142486134Y-87717766D01*
X142486132Y-87717772D01*
X142474501Y-87776241D01*
X142474500Y-87776253D01*
X142474500Y-89515746D01*
X95586403Y-89515746D01*
X92149496Y-86078839D01*
X92121719Y-86024322D01*
X92120500Y-86008835D01*
X92120500Y-85984746D01*
X92909500Y-85984746D01*
X92909501Y-85984758D01*
X92921132Y-86043227D01*
X92921133Y-86043231D01*
X92965448Y-86109552D01*
X93031769Y-86153867D01*
X93076231Y-86162711D01*
X93090241Y-86165498D01*
X93090246Y-86165498D01*
X93090252Y-86165500D01*
X93090253Y-86165500D01*
X94829747Y-86165500D01*
X94829748Y-86165500D01*
X94888231Y-86153867D01*
X94954552Y-86109552D01*
X94998867Y-86043231D01*
X95010500Y-85984748D01*
X95010500Y-84245252D01*
X95008921Y-84237316D01*
X95007711Y-84231231D01*
X94998867Y-84186769D01*
X94954552Y-84120448D01*
X94954548Y-84120445D01*
X94888233Y-84076134D01*
X94888231Y-84076133D01*
X94888228Y-84076132D01*
X94888227Y-84076132D01*
X94829758Y-84064501D01*
X94829748Y-84064500D01*
X93090252Y-84064500D01*
X93090251Y-84064500D01*
X93090241Y-84064501D01*
X93031772Y-84076132D01*
X93031766Y-84076134D01*
X92965451Y-84120445D01*
X92965445Y-84120451D01*
X92921134Y-84186766D01*
X92921132Y-84186772D01*
X92909501Y-84245241D01*
X92909500Y-84245253D01*
X92909500Y-85984746D01*
X92120500Y-85984746D01*
X92120500Y-85945910D01*
X92139407Y-85887719D01*
X92156698Y-85869380D01*
X92166410Y-85861410D01*
X92297685Y-85701450D01*
X92395232Y-85518954D01*
X92455300Y-85320934D01*
X92455301Y-85320929D01*
X92475583Y-85115003D01*
X92475583Y-85114996D01*
X92455301Y-84909070D01*
X92455300Y-84909065D01*
X92437078Y-84848997D01*
X92395232Y-84711046D01*
X92297685Y-84528550D01*
X92166410Y-84368590D01*
X92016123Y-84245253D01*
X92006452Y-84237316D01*
X91823954Y-84139768D01*
X91625934Y-84079699D01*
X91625929Y-84079698D01*
X91420003Y-84059417D01*
X91419997Y-84059417D01*
X91214070Y-84079698D01*
X91214065Y-84079699D01*
X91016045Y-84139768D01*
X90833547Y-84237316D01*
X90673595Y-84368585D01*
X90673585Y-84368595D01*
X90542316Y-84528547D01*
X90444768Y-84711045D01*
X90384699Y-84909065D01*
X90384698Y-84909070D01*
X90364417Y-85114996D01*
X90364417Y-85115003D01*
X67510500Y-85115003D01*
X67510500Y-81408620D01*
X67510606Y-81405382D01*
X67525956Y-81171184D01*
X67526802Y-81164758D01*
X67572274Y-80936156D01*
X67573949Y-80929903D01*
X67648872Y-80709185D01*
X67651344Y-80703216D01*
X67754438Y-80494162D01*
X67757679Y-80488548D01*
X67887170Y-80294751D01*
X67891107Y-80289619D01*
X68044802Y-80114364D01*
X68049364Y-80109802D01*
X68224619Y-79956107D01*
X68229751Y-79952170D01*
X68423552Y-79822676D01*
X68429162Y-79819438D01*
X68435097Y-79816511D01*
X68638216Y-79716344D01*
X68644185Y-79713872D01*
X68864903Y-79638949D01*
X68871156Y-79637274D01*
X68985457Y-79614538D01*
X69099760Y-79591801D01*
X69106177Y-79590956D01*
X69340383Y-79575606D01*
X69343621Y-79575500D01*
X69381882Y-79575500D01*
X160488118Y-79575500D01*
X160526379Y-79575500D01*
X160529617Y-79575606D01*
G37*
G04 #@! TD.AperFunction*
M02*
