M48
; DRILL file {KiCad 7.0.8} date Sun Dec 17 13:50:10 2023
; FORMAT={-:-/ absolute / metric / decimal}
; #@! TF.CreationDate,2023-12-17T13:50:10+01:00
; #@! TF.GenerationSoftware,Kicad,Pcbnew,7.0.8
; #@! TF.FileFunction,Plated,1,2,PTH
FMAT,2
METRIC
; #@! TA.AperFunction,Plated,PTH,ViaDrill
T1C0.300
; #@! TA.AperFunction,Plated,PTH,ViaDrill
T2C0.400
; #@! TA.AperFunction,Plated,PTH,ViaDrill
T3C0.500
; #@! TA.AperFunction,Plated,PTH,ViaDrill
T4C0.600
; #@! TA.AperFunction,Plated,PTH,ComponentDrill
T5C0.600
; #@! TA.AperFunction,Plated,PTH,ComponentDrill
T6C1.000
; #@! TA.AperFunction,Plated,PTH,ComponentDrill
T7C1.100
; #@! TA.AperFunction,Plated,PTH,ComponentDrill
T8C1.200
; #@! TA.AperFunction,Plated,PTH,ComponentDrill
T9C3.200
%
G90
G05
T1
X122.631Y-136.906
X125.476Y-134.366
X138.582Y-91.719
X148.798Y-91.852
X149.657Y-139.217
X149.69Y-138.194
X150.851Y-139.522
X151.105Y-140.513
X152.552Y-139.929
X153.365Y-138.938
X155.26Y-138.43
X156.022Y-139.446
T2
X79.375Y-152.527
X81.229Y-89.916
X84.01Y-152.59
X85.014Y-98.4
X86.868Y-89.027
X117.856Y-118.11
X119.126Y-118.872
X123.571Y-121.285
X124.333Y-117.348
X136.906Y-131.572
X139.471Y-118.897
X140.462Y-129.032
X141.503Y-118.288
X144.78Y-118.415
X145.288Y-105.918
X146.558Y-102.108
X147.32Y-99.314
X147.32Y-118.516
X150.495Y-119.228
X152.4Y-118.212
T3
X71.806Y-149.606
X72.06Y-152.121
X72.568Y-109.677
X72.593Y-113.589
X73.66Y-126.365
X73.66Y-130.81
X73.66Y-135.255
X75.819Y-155.931
X75.87Y-153.137
X76.835Y-121.285
X78.486Y-110.134
X79.375Y-126.365
X79.375Y-135.255
X79.781Y-101.676
X79.959Y-98.501
X80.01Y-118.745
X81.915Y-130.175
X83.185Y-115.57
X83.185Y-122.555
X83.82Y-106.045
X83.82Y-110.49
X84.455Y-141.605
X84.633Y-147.269
X85.09Y-133.35
X85.725Y-126.365
X87.63Y-118.745
X87.63Y-146.05
X87.706Y-152.527
X87.833Y-156.591
X88.189Y-93.828
X88.468Y-83.185
X89.027Y-129.54
X89.205Y-94.64
X89.535Y-106.045
X89.535Y-110.49
X89.535Y-114.935
X89.535Y-122.555
X89.764Y-98.044
X90.602Y-95.91
X92.456Y-152.4
X92.71Y-119.38
X92.71Y-125.857
X92.761Y-89.383
X94.615Y-146.05
X95.25Y-133.35
X95.885Y-122.555
X95.885Y-139.7
X96.647Y-97.282
X97.688Y-83.109
X97.79Y-104.14
X100.025Y-138.328
X100.203Y-106.68
X100.838Y-95.352
X101.6Y-133.35
X101.625Y-100.0
X101.905Y-93.04
X102.362Y-122.352
X102.87Y-144.78
X102.997Y-109.22
X103.657Y-100.101
X104.013Y-104.14
X104.089Y-122.428
X104.14Y-153.492
X105.41Y-142.24
X105.918Y-147.32
X106.553Y-106.68
X106.68Y-151.13
X107.594Y-87.605
X109.474Y-143.637
X110.49Y-137.16
X112.42Y-152.324
X113.03Y-144.78
X113.157Y-140.335
X113.767Y-121.133
X115.189Y-111.836
X116.027Y-97.714
X116.154Y-92.151
X116.332Y-144.78
X116.764Y-103.124
X116.764Y-117.17
X116.967Y-105.918
X117.323Y-120.853
X117.5Y-123.85
X117.805Y-92.253
X117.983Y-138.43
X118.008Y-97.688
X118.161Y-131.089
X118.466Y-111.989
X118.923Y-89.459
X119.38Y-101.6
X119.507Y-104.14
X120.726Y-142.088
X120.955Y-144.729
X122.834Y-154.0
X123.876Y-145.44
X124.46Y-101.6
X124.46Y-104.267
X126.086Y-145.491
X126.492Y-133.121
X127.203Y-135.712
X127.432Y-120.32
X128.143Y-111.709
X128.245Y-91.694
X128.422Y-97.841
X129.184Y-141.097
X129.54Y-119.38
X129.54Y-144.78
X129.845Y-117.729
X130.505Y-81.788
X130.861Y-97.841
X130.912Y-111.76
X130.937Y-91.948
X132.385Y-152.959
X133.477Y-124.46
X133.731Y-127.381
X134.214Y-81.737
X136.449Y-123.063
X136.576Y-133.299
X138.405Y-130.175
X138.709Y-121.006
X139.217Y-143.713
X139.573Y-127.254
X139.649Y-101.625
X139.827Y-109.22
X140.614Y-123.063
X141.097Y-92.126
X141.732Y-81.28
X141.859Y-143.637
X142.24Y-106.68
X142.646Y-128.448
X143.195Y-134.747
X143.485Y-92.1
X143.739Y-101.575
X145.085Y-86.106
X145.136Y-128.524
X145.212Y-91.364
X145.491Y-139.141
X145.735Y-134.364
X146.38Y-140.284
X147.193Y-86.106
X147.193Y-91.237
X147.447Y-110.49
X148.717Y-105.41
X148.717Y-107.95
X150.368Y-82.169
X153.543Y-129.667
X153.67Y-120.65
X153.67Y-123.19
X154.381Y-92.1
X154.559Y-125.349
X155.6Y-118.186
X156.235Y-92.202
X156.591Y-122.225
X157.124Y-142.291
X157.353Y-130.81
X158.75Y-126.695
X159.588Y-122.58
X160.426Y-142.646
X161.29Y-116.84
X161.341Y-130.988
X161.747Y-133.121
X161.773Y-137.262
T4
X81.255Y-94.132
X81.269Y-93.052
X86.157Y-102.184
X87.31Y-102.155
X102.423Y-91.487
X121.92Y-99.06
X121.92Y-118.872
T6
X91.42Y-85.115
X93.96Y-85.115
X100.965Y-120.015
X103.505Y-120.015
X106.045Y-120.015
X111.59Y-103.724
X111.59Y-105.724
X114.89Y-104.724
X115.316Y-122.706
X115.316Y-125.246
X115.316Y-127.786
X115.316Y-130.326
X124.89Y-107.224
X141.59Y-99.06
X141.59Y-101.6
X141.59Y-104.14
X143.525Y-88.646
X146.065Y-88.646
X148.605Y-88.646
T7
X90.206Y-149.15
X90.206Y-155.65
X94.706Y-149.15
X94.706Y-155.65
X110.272Y-149.15
X110.272Y-155.65
X114.772Y-149.15
X114.772Y-155.65
X130.338Y-149.15
X130.338Y-155.65
X134.838Y-149.15
X134.838Y-155.65
T8
X75.438Y-111.688
X75.438Y-115.498
T9
X71.12Y-83.185
X71.12Y-156.21
X134.62Y-142.24
X158.75Y-83.185
T5
X77.595Y-154.02G85X77.595Y-155.12
G05
X77.595Y-158.35G85X77.595Y-159.15
G05
X86.235Y-154.02G85X86.235Y-155.12
G05
X86.235Y-158.35G85X86.235Y-159.15
G05
T0
M30
